G75*
G70*
%OFA0B0*%
%FSLAX24Y24*%
%IPPOS*%
%LPD*%
%AMOC8*
5,1,8,0,0,1.08239X$1,22.5*
%
%ADD10R,0.0236X0.0866*%
%ADD11R,0.0300X0.0300*%
%ADD12R,0.0315X0.0472*%
%ADD13R,0.0460X0.0630*%
%ADD14R,0.0300X0.0450*%
%ADD15R,0.0787X0.0945*%
%ADD16R,0.0500X0.0220*%
%ADD17R,0.0220X0.0500*%
%ADD18R,0.0236X0.0620*%
%ADD19R,0.0810X0.0810*%
%ADD20R,0.0945X0.0787*%
%ADD21R,0.0591X0.0787*%
%ADD22R,0.0197X0.0079*%
%ADD23R,0.0579X0.0500*%
%ADD24R,0.0591X0.1142*%
%ADD25R,0.1378X0.4016*%
%ADD26R,0.1024X0.1772*%
%ADD27R,0.0830X0.0630*%
D10*
X009430Y005156D03*
X009930Y005156D03*
X010430Y005156D03*
X010930Y005156D03*
X010930Y007204D03*
X010430Y007204D03*
X009930Y007204D03*
X009430Y007204D03*
D11*
X008680Y007380D03*
X007930Y007380D03*
X007930Y007980D03*
X008680Y007980D03*
X009430Y008180D03*
X010030Y008180D03*
X010880Y008180D03*
X011480Y008180D03*
X011618Y007480D03*
X011618Y006880D03*
X008180Y004855D03*
X008180Y004255D03*
X007430Y004255D03*
X006680Y004255D03*
X006680Y004855D03*
X007430Y004855D03*
X010880Y004180D03*
X011480Y004180D03*
X013130Y003180D03*
X013730Y003180D03*
X011980Y002680D03*
X011380Y002680D03*
X011380Y001680D03*
X011980Y001680D03*
X012943Y001680D03*
X013543Y001680D03*
X017130Y003180D03*
X017730Y003180D03*
X018380Y002680D03*
X018980Y002680D03*
X022243Y004880D03*
X022243Y005480D03*
X025930Y003980D03*
X026680Y003980D03*
X026680Y003380D03*
X025930Y003380D03*
X027430Y003443D03*
X027430Y004043D03*
X028180Y004168D03*
X028180Y003568D03*
X022243Y008880D03*
X022243Y009480D03*
X021180Y009380D03*
X020493Y009380D03*
X020493Y009980D03*
X021180Y009980D03*
X021180Y010630D03*
X020493Y010630D03*
X020493Y011230D03*
X021180Y011230D03*
X022630Y012180D03*
X023230Y012180D03*
X018118Y012318D03*
X018118Y012918D03*
X016618Y013380D03*
X015930Y013380D03*
X015930Y013980D03*
X016618Y013980D03*
X012843Y012055D03*
X012243Y012055D03*
X009555Y013255D03*
X009555Y013855D03*
X008918Y012680D03*
X008318Y012680D03*
X008168Y011930D03*
X007568Y011930D03*
X007568Y011180D03*
X008168Y011180D03*
X005980Y013180D03*
X005380Y013180D03*
X005380Y013930D03*
X005980Y013930D03*
X005980Y014680D03*
X005380Y014680D03*
X005380Y015430D03*
X005980Y015430D03*
X005980Y016180D03*
X005380Y016180D03*
X005380Y018180D03*
X005980Y018180D03*
X005980Y018993D03*
X005380Y018993D03*
X016255Y008680D03*
X016855Y008680D03*
X026680Y016380D03*
X026680Y016980D03*
X028130Y017180D03*
X028730Y017180D03*
X029430Y017130D03*
X029430Y017730D03*
X030243Y017730D03*
X030243Y017130D03*
D12*
X006274Y010680D03*
X005566Y010680D03*
X005326Y016930D03*
X006034Y016930D03*
D13*
X006380Y007930D03*
X006980Y007930D03*
X031255Y012805D03*
X031855Y012805D03*
D14*
X016180Y008065D03*
X015680Y008065D03*
X015180Y008065D03*
X014680Y008065D03*
X014180Y008065D03*
X013680Y008065D03*
X013180Y008065D03*
X012680Y008065D03*
X012180Y008065D03*
X012180Y004295D03*
X012680Y004295D03*
X013180Y004295D03*
X013680Y004295D03*
X014180Y004295D03*
X014680Y004295D03*
X015180Y004295D03*
X015680Y004295D03*
X016180Y004295D03*
D15*
X016217Y003180D03*
X014643Y003180D03*
X008180Y014180D03*
D16*
X017490Y007282D03*
X017490Y006967D03*
X017490Y006652D03*
X017490Y006337D03*
X017490Y006023D03*
X017490Y005708D03*
X017490Y005393D03*
X017490Y005078D03*
X020870Y005078D03*
X020870Y005393D03*
X020870Y005708D03*
X020870Y006023D03*
X020870Y006337D03*
X020870Y006652D03*
X020870Y006967D03*
X020870Y007282D03*
D17*
X020282Y007870D03*
X019967Y007870D03*
X019652Y007870D03*
X019337Y007870D03*
X019023Y007870D03*
X018708Y007870D03*
X018393Y007870D03*
X018078Y007870D03*
X018078Y004490D03*
X018393Y004490D03*
X018708Y004490D03*
X019023Y004490D03*
X019337Y004490D03*
X019652Y004490D03*
X019967Y004490D03*
X020282Y004490D03*
D18*
X015180Y012656D03*
X014680Y012656D03*
X014180Y012656D03*
X013680Y012656D03*
X013680Y014704D03*
X014180Y014704D03*
X014680Y014704D03*
X015180Y014704D03*
D19*
X014430Y013680D03*
D20*
X022243Y007967D03*
X022243Y006393D03*
D21*
X018361Y017180D03*
X017179Y017180D03*
X017179Y018580D03*
X018361Y018580D03*
D22*
X008928Y014810D03*
X008928Y014495D03*
X008928Y014180D03*
X008928Y013865D03*
X008928Y013550D03*
X007432Y013550D03*
X007432Y013865D03*
X007432Y014180D03*
X007432Y014495D03*
X007432Y014810D03*
D23*
X010680Y014526D03*
X012243Y014526D03*
X012243Y012834D03*
X010680Y012834D03*
D24*
X006271Y011930D03*
X005089Y011930D03*
D25*
X007881Y017680D03*
X010479Y017680D03*
D26*
X012605Y017680D03*
X015755Y017680D03*
D27*
X006370Y002680D03*
X009990Y002680D03*
M02*
