G75*
G70*
%OFA0B0*%
%FSLAX24Y24*%
%IPPOS*%
%LPD*%
%AMOC8*
5,1,8,0,0,1.08239X$1,22.5*
%
%ADD10C,0.0060*%
%ADD11C,0.0050*%
%ADD12C,0.0150*%
%ADD13C,0.0110*%
%ADD14C,0.0100*%
%ADD15C,0.0070*%
%ADD16C,0.0120*%
%ADD17C,0.0039*%
%ADD18R,0.0100X0.0200*%
%ADD19R,0.0050X0.0150*%
%ADD20R,0.0100X0.0100*%
%ADD21C,0.0080*%
%ADD22C,0.0059*%
D10*
X007130Y006780D02*
X008230Y006780D01*
X008247Y006782D01*
X008264Y006786D01*
X008280Y006793D01*
X008294Y006803D01*
X008307Y006816D01*
X008317Y006830D01*
X008324Y006846D01*
X008328Y006863D01*
X008330Y006880D01*
X008330Y007480D01*
X008328Y007497D01*
X008324Y007514D01*
X008317Y007530D01*
X008307Y007544D01*
X008294Y007557D01*
X008280Y007567D01*
X008264Y007574D01*
X008247Y007578D01*
X008230Y007580D01*
X007130Y007580D01*
X007113Y007578D01*
X007096Y007574D01*
X007080Y007567D01*
X007066Y007557D01*
X007053Y007544D01*
X007043Y007530D01*
X007036Y007514D01*
X007032Y007497D01*
X007030Y007480D01*
X007030Y006880D01*
X007032Y006863D01*
X007036Y006846D01*
X007043Y006830D01*
X007053Y006816D01*
X007066Y006803D01*
X007080Y006793D01*
X007096Y006786D01*
X007113Y006782D01*
X007130Y006780D01*
X012180Y009430D02*
X012180Y010930D01*
X012430Y011180D01*
X012930Y011180D01*
X013180Y010930D01*
X013180Y009430D01*
X012930Y009180D01*
X012430Y009180D01*
X012180Y009430D01*
X013180Y009430D02*
X013430Y009180D01*
X013930Y009180D01*
X014180Y009430D01*
X014180Y010930D01*
X013930Y011180D01*
X013430Y011180D01*
X013180Y010930D01*
X014180Y010930D02*
X014430Y011180D01*
X014930Y011180D01*
X015180Y010930D01*
X015180Y009430D01*
X014930Y009180D01*
X014430Y009180D01*
X014180Y009430D01*
X015335Y010585D02*
X015562Y010585D01*
X015448Y010585D02*
X015448Y010925D01*
X015335Y010812D01*
X016180Y009930D02*
X016430Y010180D01*
X016930Y010180D01*
X017180Y009930D01*
X017180Y009430D01*
X016930Y009180D01*
X016430Y009180D01*
X016180Y009430D01*
X016180Y009930D01*
X015300Y007560D02*
X018060Y007560D01*
X018060Y004940D01*
X017920Y004800D01*
X015300Y004800D01*
X015300Y007560D01*
X017619Y005100D02*
X017621Y005123D01*
X017627Y005146D01*
X017636Y005167D01*
X017649Y005187D01*
X017665Y005204D01*
X017683Y005218D01*
X017703Y005229D01*
X017725Y005237D01*
X017748Y005241D01*
X017772Y005241D01*
X017795Y005237D01*
X017817Y005229D01*
X017837Y005218D01*
X017855Y005204D01*
X017871Y005187D01*
X017884Y005167D01*
X017893Y005146D01*
X017899Y005123D01*
X017901Y005100D01*
X017899Y005077D01*
X017893Y005054D01*
X017884Y005033D01*
X017871Y005013D01*
X017855Y004996D01*
X017837Y004982D01*
X017817Y004971D01*
X017795Y004963D01*
X017772Y004959D01*
X017748Y004959D01*
X017725Y004963D01*
X017703Y004971D01*
X017683Y004982D01*
X017665Y004996D01*
X017649Y005013D01*
X017636Y005033D01*
X017627Y005054D01*
X017621Y005077D01*
X017619Y005100D01*
X017680Y003180D02*
X017180Y003180D01*
X016930Y002930D01*
X016930Y002430D01*
X017180Y002180D01*
X017680Y002180D01*
X017930Y002430D01*
X018180Y002180D01*
X018680Y002180D01*
X018930Y002430D01*
X019180Y002180D01*
X019680Y002180D01*
X019930Y002430D01*
X020180Y002180D01*
X020680Y002180D01*
X020930Y002430D01*
X021180Y002180D01*
X021680Y002180D01*
X021930Y002430D01*
X022180Y002180D01*
X022680Y002180D01*
X022930Y002430D01*
X022930Y002930D01*
X022680Y003180D01*
X022180Y003180D01*
X021930Y002930D01*
X021680Y003180D01*
X021180Y003180D01*
X020930Y002930D01*
X020680Y003180D01*
X020180Y003180D01*
X019930Y002930D01*
X019680Y003180D01*
X019180Y003180D01*
X018930Y002930D01*
X018680Y003180D01*
X018180Y003180D01*
X017930Y002930D01*
X017680Y003180D01*
X021180Y005780D02*
X021280Y005680D01*
X022080Y005680D01*
X022180Y005780D01*
X022280Y005680D01*
X023080Y005680D01*
X023180Y005780D01*
X023280Y005680D01*
X024080Y005680D01*
X024180Y005780D01*
X024180Y006580D01*
X024080Y006680D01*
X023280Y006680D01*
X023180Y006580D01*
X023080Y006680D01*
X022280Y006680D01*
X022180Y006580D01*
X022080Y006680D01*
X021280Y006680D01*
X021180Y006580D01*
X021180Y005780D01*
X021585Y005369D02*
X021585Y005312D01*
X021642Y005255D01*
X021755Y005255D01*
X021812Y005198D01*
X021812Y005142D01*
X021755Y005085D01*
X021642Y005085D01*
X021585Y005142D01*
X021585Y005369D02*
X021642Y005425D01*
X021755Y005425D01*
X021812Y005369D01*
X021953Y005425D02*
X022123Y005425D01*
X022180Y005369D01*
X022180Y005255D01*
X022123Y005198D01*
X021953Y005198D01*
X021953Y005085D02*
X021953Y005425D01*
X022322Y005425D02*
X022435Y005425D01*
X022378Y005425D02*
X022378Y005085D01*
X022322Y005085D02*
X022435Y005085D01*
X022773Y005142D02*
X022829Y005085D01*
X022943Y005085D01*
X022999Y005142D01*
X022999Y005198D01*
X022943Y005255D01*
X022829Y005255D01*
X022773Y005312D01*
X022773Y005369D01*
X022829Y005425D01*
X022943Y005425D01*
X022999Y005369D01*
X023141Y005085D02*
X023368Y005425D01*
X023509Y005425D02*
X023679Y005425D01*
X023736Y005369D01*
X023736Y005142D01*
X023679Y005085D01*
X023509Y005085D01*
X023509Y005425D01*
X023280Y007680D02*
X024080Y007680D01*
X024180Y007780D01*
X024180Y008580D01*
X024080Y008680D01*
X023280Y008680D01*
X023180Y008580D01*
X023080Y008680D01*
X022280Y008680D01*
X022180Y008580D01*
X022080Y008680D01*
X021280Y008680D01*
X021180Y008580D01*
X021180Y007780D01*
X021280Y007680D01*
X022080Y007680D01*
X022180Y007780D01*
X022280Y007680D01*
X023080Y007680D01*
X023180Y007780D01*
X023280Y007680D01*
X023280Y009680D02*
X023180Y009780D01*
X023080Y009680D01*
X022280Y009680D01*
X022180Y009780D01*
X022080Y009680D01*
X021280Y009680D01*
X021180Y009780D01*
X021180Y010580D01*
X021280Y010680D01*
X022080Y010680D01*
X022180Y010580D01*
X022280Y010680D01*
X023080Y010680D01*
X023180Y010580D01*
X023280Y010680D01*
X024080Y010680D01*
X024180Y010580D01*
X024180Y009780D01*
X024080Y009680D01*
X023280Y009680D01*
X023280Y011680D02*
X024080Y011680D01*
X024180Y011780D01*
X024180Y012580D01*
X024080Y012680D01*
X023280Y012680D01*
X023180Y012580D01*
X023080Y012680D01*
X022280Y012680D01*
X022180Y012580D01*
X022080Y012680D01*
X021280Y012680D01*
X021180Y012580D01*
X021180Y011780D01*
X021280Y011680D01*
X022080Y011680D01*
X022180Y011780D01*
X022280Y011680D01*
X023080Y011680D01*
X023180Y011780D01*
X023280Y011680D01*
X026540Y011180D02*
X026810Y011180D01*
X026810Y011830D01*
X026810Y012180D01*
X027330Y012180D01*
X027930Y012180D01*
X028430Y012180D01*
X029030Y012180D01*
X029560Y012180D01*
X029560Y011830D01*
X029560Y011180D01*
X029560Y003180D01*
X029560Y002530D01*
X029560Y002190D01*
X029030Y002190D01*
X028430Y002190D01*
X027930Y002190D01*
X027330Y002190D01*
X027330Y002530D01*
X026810Y002530D01*
X026810Y002190D01*
X027330Y002190D01*
X026810Y002530D02*
X026810Y003180D01*
X026540Y003180D01*
X026540Y011180D01*
X026930Y010680D02*
X027030Y010680D01*
X026930Y010680D02*
X027260Y010850D01*
X027260Y010510D01*
X026930Y010680D01*
X027460Y011288D02*
X028000Y011288D01*
X028000Y011108D02*
X028000Y011468D01*
X027640Y011108D02*
X027460Y011288D01*
X028505Y012405D02*
X029605Y012405D01*
X029622Y012407D01*
X029639Y012411D01*
X029655Y012418D01*
X029669Y012428D01*
X029682Y012441D01*
X029692Y012455D01*
X029699Y012471D01*
X029703Y012488D01*
X029705Y012505D01*
X029705Y013105D01*
X029703Y013122D01*
X029699Y013139D01*
X029692Y013155D01*
X029682Y013169D01*
X029669Y013182D01*
X029655Y013192D01*
X029639Y013199D01*
X029622Y013203D01*
X029605Y013205D01*
X028505Y013205D01*
X028488Y013203D01*
X028471Y013199D01*
X028455Y013192D01*
X028441Y013182D01*
X028428Y013169D01*
X028418Y013155D01*
X028411Y013139D01*
X028407Y013122D01*
X028405Y013105D01*
X028405Y012505D01*
X028407Y012488D01*
X028411Y012471D01*
X028418Y012455D01*
X028428Y012441D01*
X028441Y012428D01*
X028455Y012418D01*
X028471Y012411D01*
X028488Y012407D01*
X028505Y012405D01*
X006038Y010916D02*
X005802Y010916D01*
X005802Y010444D02*
X006038Y010444D01*
X001175Y010407D02*
X001175Y010180D01*
X001062Y010237D02*
X001005Y010180D01*
X000892Y010180D01*
X000835Y010237D01*
X000835Y010350D01*
X000892Y010407D01*
X001005Y010407D02*
X001062Y010293D01*
X001062Y010237D01*
X001005Y010407D02*
X001175Y010407D01*
X001005Y010548D02*
X001005Y010775D01*
X000892Y010662D02*
X001119Y010662D01*
X001119Y010999D02*
X000892Y010999D01*
X000835Y011056D01*
X000835Y011226D01*
X001175Y011226D01*
X001175Y011056D01*
X001119Y010999D01*
X001175Y011367D02*
X000835Y011367D01*
X001175Y011594D01*
X000835Y011594D01*
X000892Y011736D02*
X001005Y011736D01*
X001005Y011849D01*
X000892Y011736D02*
X000835Y011792D01*
X000835Y011906D01*
X000892Y011963D01*
X001119Y011963D01*
X001175Y011906D01*
X001175Y011792D01*
X001119Y011736D01*
X001175Y012193D02*
X000948Y012193D01*
X000835Y012307D01*
X000948Y012420D01*
X001175Y012420D01*
X001175Y012618D02*
X000835Y012618D01*
X001005Y012562D02*
X001005Y012788D01*
X001175Y012618D01*
X001119Y012930D02*
X001175Y012987D01*
X001175Y013100D01*
X001119Y013157D01*
X001005Y013298D02*
X001005Y013525D01*
X000892Y013412D02*
X001119Y013412D01*
X000835Y013157D02*
X001062Y012930D01*
X001119Y012930D01*
X000835Y012930D02*
X000835Y013157D01*
X000892Y013812D02*
X001119Y013812D01*
X001175Y013868D01*
X001175Y014038D01*
X000835Y014038D01*
X000835Y013868D01*
X000892Y013812D01*
X000835Y014180D02*
X001175Y014180D01*
X001175Y014407D02*
X000835Y014407D01*
X000892Y014548D02*
X001005Y014548D01*
X001005Y014662D01*
X000892Y014775D02*
X000835Y014718D01*
X000835Y014605D01*
X000892Y014548D01*
X001119Y014548D02*
X001175Y014605D01*
X001175Y014718D01*
X001119Y014775D01*
X000892Y014775D01*
X000948Y015131D02*
X001175Y015131D01*
X001175Y015358D02*
X000948Y015358D01*
X000835Y015244D01*
X000948Y015131D01*
X000892Y015499D02*
X000835Y015556D01*
X000835Y015669D01*
X000892Y015726D01*
X001119Y015499D01*
X000892Y015499D01*
X001119Y015499D02*
X001175Y015556D01*
X001175Y015669D01*
X001119Y015726D01*
X000892Y015726D01*
X000892Y015867D02*
X000948Y015867D01*
X001005Y015924D01*
X001005Y016094D01*
X000892Y016094D01*
X000835Y016037D01*
X000835Y015924D01*
X000892Y015867D01*
X001005Y016094D02*
X001119Y015981D01*
X001175Y015867D01*
X001005Y016236D02*
X001005Y016463D01*
X000892Y016349D02*
X001119Y016349D01*
X001175Y014407D02*
X000835Y014180D01*
X005562Y016694D02*
X005798Y016694D01*
X005798Y017166D02*
X005562Y017166D01*
X001175Y010038D02*
X000948Y010038D01*
X000835Y009925D01*
X000948Y009812D01*
X001175Y009812D01*
X001119Y009338D02*
X000892Y009338D01*
X000835Y009281D01*
X000835Y009167D01*
X000892Y009111D01*
X001005Y009111D01*
X001005Y009224D01*
X001119Y009111D02*
X001175Y009167D01*
X001175Y009281D01*
X001119Y009338D01*
X001175Y008969D02*
X000835Y008969D01*
X000835Y008742D02*
X001175Y008742D01*
X001175Y008601D02*
X001175Y008431D01*
X001119Y008374D01*
X000892Y008374D01*
X000835Y008431D01*
X000835Y008601D01*
X001175Y008601D01*
X001175Y008969D02*
X000835Y008742D01*
D11*
X004143Y008100D02*
X004143Y007830D01*
X004143Y007920D02*
X004278Y007920D01*
X004323Y007965D01*
X004323Y008055D01*
X004278Y008100D01*
X004143Y008100D01*
X004233Y007920D02*
X004323Y007830D01*
X004437Y007875D02*
X004482Y007830D01*
X004572Y007830D01*
X004617Y007875D01*
X004617Y007920D01*
X004572Y007965D01*
X004482Y007965D01*
X004437Y008010D01*
X004437Y008055D01*
X004482Y008100D01*
X004572Y008100D01*
X004617Y008055D01*
X004732Y007965D02*
X004912Y007965D01*
X005026Y007920D02*
X005026Y007875D01*
X005071Y007830D01*
X005162Y007830D01*
X005207Y007875D01*
X005207Y007920D01*
X005162Y007965D01*
X005071Y007965D01*
X005026Y008010D01*
X005026Y008055D01*
X005071Y008100D01*
X005162Y008100D01*
X005207Y008055D01*
X005207Y008010D01*
X005162Y007965D01*
X005071Y007965D02*
X005026Y007920D01*
X004867Y007830D02*
X004867Y008100D01*
X004732Y007965D01*
X005321Y007965D02*
X005411Y008010D01*
X005456Y008010D01*
X005501Y007965D01*
X005501Y007875D01*
X005456Y007830D01*
X005366Y007830D01*
X005321Y007875D01*
X005321Y007965D02*
X005321Y008100D01*
X005501Y008100D01*
X006080Y007823D02*
X006080Y007643D01*
X006080Y007778D02*
X006260Y007778D01*
X006260Y007823D02*
X006260Y007643D01*
X006260Y007823D02*
X006170Y007913D01*
X006080Y007823D01*
X007205Y007975D02*
X007385Y007975D01*
X007295Y007975D02*
X007295Y007705D01*
X007500Y007705D02*
X007680Y007705D01*
X007794Y007705D02*
X007794Y007975D01*
X007929Y007975D01*
X007974Y007930D01*
X007974Y007840D01*
X007929Y007795D01*
X007794Y007795D01*
X007884Y007795D02*
X007974Y007705D01*
X008089Y007705D02*
X008089Y007975D01*
X008179Y007885D01*
X008269Y007975D01*
X008269Y007705D01*
X007680Y007975D02*
X007500Y007975D01*
X007500Y007705D01*
X007500Y007840D02*
X007590Y007840D01*
X006215Y005725D02*
X006260Y005680D01*
X006260Y005635D01*
X006215Y005590D01*
X006080Y005590D01*
X006080Y005455D02*
X006080Y005725D01*
X006215Y005725D01*
X006215Y005590D02*
X006260Y005545D01*
X006260Y005500D01*
X006215Y005455D01*
X006080Y005455D01*
X006170Y005350D02*
X006260Y005260D01*
X006260Y005080D01*
X006260Y005215D02*
X006080Y005215D01*
X006080Y005260D02*
X006170Y005350D01*
X006080Y005260D02*
X006080Y005080D01*
X006080Y003225D02*
X006215Y003225D01*
X006260Y003180D01*
X006260Y003135D01*
X006215Y003090D01*
X006080Y003090D01*
X006080Y002955D02*
X006215Y002955D01*
X006260Y003000D01*
X006260Y003045D01*
X006215Y003090D01*
X006080Y002955D02*
X006080Y003225D01*
X005894Y001788D02*
X005939Y001743D01*
X005759Y001563D01*
X005804Y001518D01*
X005894Y001518D01*
X005939Y001563D01*
X005939Y001743D01*
X005894Y001788D02*
X005804Y001788D01*
X005759Y001743D01*
X005759Y001563D01*
X005644Y001518D02*
X005464Y001518D01*
X005644Y001698D01*
X005644Y001743D01*
X005599Y001788D01*
X005509Y001788D01*
X005464Y001743D01*
X005349Y001743D02*
X005169Y001563D01*
X005214Y001518D01*
X005304Y001518D01*
X005349Y001563D01*
X005349Y001743D01*
X005304Y001788D01*
X005214Y001788D01*
X005169Y001743D01*
X005169Y001563D01*
X005055Y001518D02*
X004875Y001518D01*
X005055Y001698D01*
X005055Y001743D01*
X005010Y001788D01*
X004920Y001788D01*
X004875Y001743D01*
X004760Y001743D02*
X004760Y001653D01*
X004715Y001608D01*
X004580Y001608D01*
X004670Y001608D02*
X004760Y001518D01*
X004580Y001518D02*
X004580Y001788D01*
X004715Y001788D01*
X004760Y001743D01*
X005018Y001288D02*
X005018Y001018D01*
X005198Y001018D01*
X005312Y001063D02*
X005357Y001018D01*
X005492Y001018D01*
X005492Y001198D01*
X005607Y001288D02*
X005607Y001018D01*
X005607Y001108D02*
X005742Y001198D01*
X005852Y001153D02*
X005897Y001198D01*
X005987Y001198D01*
X006033Y001153D01*
X006033Y001108D01*
X005852Y001108D01*
X005852Y001063D02*
X005852Y001153D01*
X005852Y001063D02*
X005897Y001018D01*
X005987Y001018D01*
X005742Y001018D02*
X005607Y001108D01*
X005312Y001063D02*
X005312Y001198D01*
X006348Y001563D02*
X006393Y001518D01*
X006483Y001518D01*
X006528Y001563D01*
X006528Y001608D01*
X006483Y001653D01*
X006393Y001653D01*
X006348Y001698D01*
X006348Y001743D01*
X006393Y001788D01*
X006483Y001788D01*
X006528Y001743D01*
X006643Y001653D02*
X006688Y001698D01*
X006778Y001698D01*
X006823Y001653D01*
X006823Y001608D01*
X006643Y001608D01*
X006643Y001563D02*
X006643Y001653D01*
X006643Y001563D02*
X006688Y001518D01*
X006778Y001518D01*
X006937Y001518D02*
X006937Y001698D01*
X007027Y001698D02*
X007072Y001698D01*
X007027Y001698D02*
X006937Y001608D01*
X007183Y001698D02*
X007273Y001518D01*
X007363Y001698D01*
X007477Y001653D02*
X007477Y001563D01*
X007522Y001518D01*
X007613Y001518D01*
X007658Y001563D01*
X007658Y001653D01*
X007613Y001698D01*
X007522Y001698D01*
X007477Y001653D01*
X007371Y001243D02*
X007371Y001063D01*
X007416Y001018D01*
X007522Y001063D02*
X007567Y001018D01*
X007657Y001018D01*
X007702Y001063D01*
X007702Y001153D01*
X007657Y001198D01*
X007567Y001198D01*
X007522Y001153D01*
X007522Y001063D01*
X007416Y001198D02*
X007326Y001198D01*
X007211Y001198D02*
X007076Y001198D01*
X007031Y001153D01*
X007076Y001108D01*
X007166Y001108D01*
X007211Y001063D01*
X007166Y001018D01*
X007031Y001018D01*
X006916Y001108D02*
X006736Y001108D01*
X006736Y001153D02*
X006781Y001198D01*
X006871Y001198D01*
X006916Y001153D01*
X006916Y001108D01*
X006871Y001018D02*
X006781Y001018D01*
X006736Y001063D01*
X006736Y001153D01*
X006622Y001018D02*
X006622Y001288D01*
X006442Y001288D02*
X006442Y001018D01*
X006532Y001108D01*
X006622Y001018D01*
X007817Y001018D02*
X007817Y001198D01*
X007952Y001198D01*
X007997Y001153D01*
X007997Y001018D01*
X008111Y000927D02*
X008201Y001018D01*
X008156Y001018D01*
X008156Y001063D01*
X008201Y001063D01*
X008201Y001018D01*
X008602Y001018D02*
X008783Y001198D01*
X008783Y001243D01*
X008738Y001288D01*
X008647Y001288D01*
X008602Y001243D01*
X008602Y001018D02*
X008783Y001018D01*
X008897Y001063D02*
X009077Y001243D01*
X009077Y001063D01*
X009032Y001018D01*
X008942Y001018D01*
X008897Y001063D01*
X008897Y001243D01*
X008942Y001288D01*
X009032Y001288D01*
X009077Y001243D01*
X009192Y001198D02*
X009282Y001288D01*
X009282Y001018D01*
X009192Y001018D02*
X009372Y001018D01*
X009486Y001063D02*
X009531Y001018D01*
X009621Y001018D01*
X009667Y001063D01*
X009667Y001108D01*
X009621Y001153D01*
X009576Y001153D01*
X009621Y001153D02*
X009667Y001198D01*
X009667Y001243D01*
X009621Y001288D01*
X009531Y001288D01*
X009486Y001243D01*
X009528Y001518D02*
X009573Y001563D01*
X009573Y001653D01*
X009528Y001698D01*
X009438Y001698D01*
X009393Y001653D01*
X009393Y001563D01*
X009438Y001518D01*
X009528Y001518D01*
X009687Y001518D02*
X009777Y001518D01*
X009732Y001518D02*
X009732Y001788D01*
X009687Y001788D01*
X009884Y001788D02*
X009929Y001788D01*
X009929Y001518D01*
X009884Y001518D02*
X009974Y001518D01*
X010080Y001563D02*
X010080Y001653D01*
X010125Y001698D01*
X010215Y001698D01*
X010260Y001653D01*
X010260Y001608D01*
X010080Y001608D01*
X010080Y001563D02*
X010125Y001518D01*
X010215Y001518D01*
X010375Y001518D02*
X010375Y001698D01*
X010465Y001698D02*
X010510Y001698D01*
X010465Y001698D02*
X010375Y001608D01*
X009282Y001698D02*
X009237Y001698D01*
X009147Y001608D01*
X009147Y001518D02*
X009147Y001698D01*
X009041Y001698D02*
X008951Y001698D01*
X008996Y001743D02*
X008996Y001563D01*
X009041Y001518D01*
X008836Y001518D02*
X008836Y001653D01*
X008791Y001698D01*
X008656Y001698D01*
X008656Y001518D01*
X008542Y001563D02*
X008542Y001653D01*
X008496Y001698D01*
X008406Y001698D01*
X008361Y001653D01*
X008361Y001563D01*
X008406Y001518D01*
X008496Y001518D01*
X008542Y001563D01*
X008247Y001563D02*
X008202Y001518D01*
X008112Y001518D01*
X008067Y001563D01*
X008067Y001743D01*
X008112Y001788D01*
X008202Y001788D01*
X008247Y001743D01*
X011750Y001225D02*
X011750Y002605D01*
X014110Y002605D01*
X014110Y001225D01*
X011750Y001225D01*
X012340Y001615D02*
X013520Y001615D01*
X013520Y002215D01*
X012340Y002215D01*
X012340Y001615D01*
X012268Y002705D02*
X012268Y002975D01*
X012403Y002975D01*
X012448Y002930D01*
X012448Y002840D01*
X012403Y002795D01*
X012268Y002795D01*
X012358Y002795D02*
X012448Y002705D01*
X012562Y002750D02*
X012562Y002840D01*
X012607Y002885D01*
X012697Y002885D01*
X012742Y002840D01*
X012742Y002795D01*
X012562Y002795D01*
X012562Y002750D02*
X012607Y002705D01*
X012697Y002705D01*
X012857Y002705D02*
X012992Y002705D01*
X013037Y002750D01*
X012992Y002795D01*
X012902Y002795D01*
X012857Y002840D01*
X012902Y002885D01*
X013037Y002885D01*
X013151Y002840D02*
X013196Y002885D01*
X013287Y002885D01*
X013332Y002840D01*
X013332Y002795D01*
X013151Y002795D01*
X013151Y002750D02*
X013151Y002840D01*
X013151Y002750D02*
X013196Y002705D01*
X013287Y002705D01*
X013491Y002750D02*
X013491Y002930D01*
X013446Y002885D02*
X013536Y002885D01*
X013491Y002750D02*
X013536Y002705D01*
X017018Y002038D02*
X017018Y001768D01*
X017153Y001768D01*
X017198Y001813D01*
X017198Y001993D01*
X017153Y002038D01*
X017018Y002038D01*
X017312Y002038D02*
X017492Y002038D01*
X017402Y002038D02*
X017402Y001768D01*
X017607Y001768D02*
X017607Y002038D01*
X017742Y002038D01*
X017787Y001993D01*
X017787Y001903D01*
X017742Y001858D01*
X017607Y001858D01*
X017697Y001858D02*
X017787Y001768D01*
X018080Y001768D02*
X018080Y002038D01*
X018215Y002038D01*
X018260Y001993D01*
X018260Y001903D01*
X018215Y001858D01*
X018080Y001858D01*
X018170Y001858D02*
X018260Y001768D01*
X018375Y001768D02*
X018555Y002038D01*
X018669Y002038D02*
X018804Y002038D01*
X018849Y001993D01*
X018849Y001813D01*
X018804Y001768D01*
X018669Y001768D01*
X018669Y002038D01*
X018555Y001768D02*
X018375Y002038D01*
X019080Y002038D02*
X019260Y002038D01*
X019170Y002038D02*
X019170Y001768D01*
X019375Y001768D02*
X019555Y002038D01*
X019669Y002038D02*
X019804Y002038D01*
X019849Y001993D01*
X019849Y001813D01*
X019804Y001768D01*
X019669Y001768D01*
X019669Y002038D01*
X019555Y001768D02*
X019375Y002038D01*
X020080Y001903D02*
X020260Y001903D01*
X020375Y001903D02*
X020465Y001948D01*
X020510Y001948D01*
X020555Y001903D01*
X020555Y001813D01*
X020510Y001768D01*
X020420Y001768D01*
X020375Y001813D01*
X020375Y001903D02*
X020375Y002038D01*
X020555Y002038D01*
X020669Y002038D02*
X020669Y001858D01*
X020759Y001768D01*
X020849Y001858D01*
X020849Y002038D01*
X021205Y002038D02*
X021205Y001768D01*
X021385Y001768D02*
X021205Y002038D01*
X021385Y002038D02*
X021385Y001768D01*
X021500Y001813D02*
X021545Y001768D01*
X021635Y001768D01*
X021680Y001813D01*
X021680Y001993D02*
X021635Y002038D01*
X021545Y002038D01*
X021500Y001993D01*
X021500Y001813D01*
X022018Y001813D02*
X022063Y001768D01*
X022153Y001768D01*
X022198Y001813D01*
X022198Y001903D01*
X022108Y001903D01*
X022198Y001993D02*
X022153Y002038D01*
X022063Y002038D01*
X022018Y001993D01*
X022018Y001813D01*
X022312Y001768D02*
X022312Y002038D01*
X022492Y001768D01*
X022492Y002038D01*
X022607Y002038D02*
X022607Y001768D01*
X022742Y001768D01*
X022787Y001813D01*
X022787Y001993D01*
X022742Y002038D01*
X022607Y002038D01*
X022723Y003580D02*
X022678Y003625D01*
X022678Y003715D01*
X022723Y003760D01*
X022813Y003760D01*
X022858Y003715D01*
X022858Y003625D01*
X022813Y003580D01*
X022723Y003580D01*
X022568Y003760D02*
X022523Y003760D01*
X022433Y003670D01*
X022433Y003580D02*
X022433Y003760D01*
X022322Y003760D02*
X022277Y003760D01*
X022187Y003670D01*
X022187Y003580D02*
X022187Y003760D01*
X022073Y003850D02*
X021893Y003850D01*
X021893Y003580D01*
X022073Y003580D01*
X021983Y003715D02*
X021893Y003715D01*
X021876Y004268D02*
X021741Y004268D01*
X021696Y004313D01*
X021741Y004358D01*
X021876Y004358D01*
X021876Y004403D02*
X021876Y004268D01*
X021991Y004268D02*
X021991Y004448D01*
X022036Y004448D01*
X022081Y004403D01*
X022126Y004448D01*
X022171Y004403D01*
X022171Y004268D01*
X022081Y004268D02*
X022081Y004403D01*
X022285Y004403D02*
X022330Y004448D01*
X022421Y004448D01*
X022466Y004403D01*
X022466Y004358D01*
X022285Y004358D01*
X022285Y004313D02*
X022285Y004403D01*
X022285Y004313D02*
X022330Y004268D01*
X022421Y004268D01*
X022875Y004268D02*
X023010Y004268D01*
X023055Y004313D01*
X023010Y004358D01*
X022920Y004358D01*
X022875Y004403D01*
X022920Y004448D01*
X023055Y004448D01*
X023169Y004448D02*
X023214Y004448D01*
X023214Y004268D01*
X023169Y004268D02*
X023259Y004268D01*
X023366Y004313D02*
X023411Y004268D01*
X023546Y004268D01*
X023546Y004538D01*
X023546Y004448D02*
X023411Y004448D01*
X023366Y004403D01*
X023366Y004313D01*
X023446Y004552D02*
X023446Y004823D01*
X023581Y004823D01*
X023626Y004778D01*
X023626Y004688D01*
X023581Y004643D01*
X023446Y004643D01*
X023332Y004643D02*
X023332Y004778D01*
X023287Y004823D01*
X023242Y004778D01*
X023242Y004643D01*
X023214Y004583D02*
X023214Y004538D01*
X023152Y004643D02*
X023152Y004823D01*
X023197Y004823D01*
X023242Y004778D01*
X023037Y004823D02*
X023037Y004643D01*
X022902Y004643D01*
X022857Y004688D01*
X022857Y004823D01*
X022751Y004823D02*
X022751Y004597D01*
X022705Y004552D01*
X022660Y004552D01*
X022751Y004913D02*
X022751Y004958D01*
X022214Y004913D02*
X022214Y004643D01*
X022169Y004643D02*
X022259Y004643D01*
X022063Y004643D02*
X021973Y004643D01*
X022018Y004643D02*
X022018Y004913D01*
X021973Y004913D01*
X021858Y004778D02*
X021858Y004643D01*
X021723Y004643D01*
X021678Y004688D01*
X021723Y004733D01*
X021858Y004733D01*
X021858Y004778D02*
X021813Y004823D01*
X021723Y004823D01*
X022169Y004913D02*
X022214Y004913D01*
X021831Y004448D02*
X021876Y004403D01*
X021831Y004448D02*
X021741Y004448D01*
X021582Y004448D02*
X021446Y004448D01*
X021401Y004403D01*
X021446Y004358D01*
X021537Y004358D01*
X021582Y004313D01*
X021537Y004268D01*
X021401Y004268D01*
X020992Y004268D02*
X020992Y004403D01*
X020947Y004448D01*
X020812Y004448D01*
X020812Y004268D01*
X020698Y004313D02*
X020698Y004403D01*
X020653Y004448D01*
X020563Y004448D01*
X020518Y004403D01*
X020518Y004313D01*
X020563Y004268D01*
X020653Y004268D01*
X020698Y004313D01*
X020635Y004643D02*
X020545Y004643D01*
X020500Y004688D01*
X020500Y004778D01*
X020545Y004823D01*
X020635Y004823D01*
X020680Y004778D01*
X020680Y004733D01*
X020500Y004733D01*
X020385Y004643D02*
X020250Y004778D01*
X020205Y004733D02*
X020385Y004913D01*
X020205Y004913D02*
X020205Y004643D01*
X020794Y004688D02*
X020794Y004778D01*
X020839Y004823D01*
X020929Y004823D01*
X020974Y004778D01*
X020974Y004733D01*
X020794Y004733D01*
X020794Y004688D02*
X020839Y004643D01*
X020929Y004643D01*
X021089Y004643D02*
X021224Y004643D01*
X021269Y004688D01*
X021269Y004778D01*
X021224Y004823D01*
X021089Y004823D01*
X021089Y004552D01*
X022973Y003760D02*
X022973Y003580D01*
X022973Y003670D02*
X023063Y003760D01*
X023108Y003760D01*
X023660Y004313D02*
X023705Y004268D01*
X023796Y004268D01*
X023841Y004358D02*
X023660Y004358D01*
X023660Y004403D02*
X023705Y004448D01*
X023796Y004448D01*
X023841Y004403D01*
X023841Y004358D01*
X023660Y004313D02*
X023660Y004403D01*
X023786Y004643D02*
X023741Y004688D01*
X023741Y004778D01*
X023786Y004823D01*
X023876Y004823D01*
X023921Y004778D01*
X023921Y004733D01*
X023741Y004733D01*
X023786Y004643D02*
X023876Y004643D01*
X024035Y004643D02*
X024035Y004823D01*
X024035Y004733D02*
X024126Y004823D01*
X024171Y004823D01*
X024281Y004778D02*
X024326Y004823D01*
X024461Y004823D01*
X024416Y004733D02*
X024461Y004688D01*
X024416Y004643D01*
X024281Y004643D01*
X024326Y004733D02*
X024281Y004778D01*
X024326Y004733D02*
X024416Y004733D01*
X025955Y004610D02*
X026000Y004655D01*
X025955Y004610D02*
X025955Y004520D01*
X026000Y004475D01*
X026090Y004475D01*
X026135Y004520D01*
X026135Y004565D01*
X026090Y004655D01*
X026225Y004655D01*
X026225Y004475D01*
X026225Y004360D02*
X026045Y004360D01*
X025955Y004270D01*
X026045Y004180D01*
X026225Y004180D01*
X026180Y004030D02*
X026000Y004030D01*
X025955Y003985D01*
X025955Y003895D01*
X026000Y003850D01*
X026180Y003850D01*
X026225Y003895D01*
X026225Y003985D01*
X026180Y004030D01*
X026135Y003735D02*
X026000Y003735D01*
X025955Y003690D01*
X025955Y003555D01*
X026135Y003555D01*
X026135Y003441D02*
X026135Y003351D01*
X026180Y003396D02*
X026000Y003396D01*
X025955Y003351D01*
X021983Y006875D02*
X021938Y006830D01*
X021848Y006830D01*
X021803Y006875D01*
X021803Y007055D01*
X021848Y007100D01*
X021938Y007100D01*
X021983Y007055D01*
X021983Y006875D01*
X021689Y006875D02*
X021644Y006830D01*
X021554Y006830D01*
X021509Y006875D01*
X021554Y006965D02*
X021644Y006965D01*
X021689Y006920D01*
X021689Y006875D01*
X021554Y006965D02*
X021509Y007010D01*
X021509Y007055D01*
X021554Y007100D01*
X021644Y007100D01*
X021689Y007055D01*
X021402Y007100D02*
X021312Y007100D01*
X021357Y007100D02*
X021357Y006830D01*
X021312Y006830D02*
X021402Y006830D01*
X021198Y006830D02*
X021198Y007100D01*
X021108Y007010D01*
X021018Y007100D01*
X021018Y006830D01*
X021018Y008830D02*
X021018Y009100D01*
X021108Y009010D01*
X021198Y009100D01*
X021198Y008830D01*
X021312Y008875D02*
X021357Y008830D01*
X021447Y008830D01*
X021492Y008875D01*
X021492Y009055D01*
X021447Y009100D01*
X021357Y009100D01*
X021312Y009055D01*
X021312Y008875D01*
X021607Y008875D02*
X021652Y008830D01*
X021742Y008830D01*
X021787Y008875D01*
X021787Y008920D01*
X021742Y008965D01*
X021652Y008965D01*
X021607Y009010D01*
X021607Y009055D01*
X021652Y009100D01*
X021742Y009100D01*
X021787Y009055D01*
X021901Y009100D02*
X021992Y009100D01*
X021946Y009100D02*
X021946Y008830D01*
X021901Y008830D02*
X021992Y008830D01*
X023393Y008830D02*
X023528Y008830D01*
X023573Y008875D01*
X023573Y009055D01*
X023528Y009100D01*
X023393Y009100D01*
X023393Y008830D01*
X023687Y008830D02*
X023777Y008830D01*
X023732Y008830D02*
X023732Y009100D01*
X023687Y009100D02*
X023777Y009100D01*
X023884Y009100D02*
X023884Y008830D01*
X023884Y008920D02*
X024019Y008920D01*
X024064Y008965D01*
X024064Y009055D01*
X024019Y009100D01*
X023884Y009100D01*
X023974Y008920D02*
X024064Y008830D01*
X025893Y008850D02*
X025893Y008580D01*
X026028Y008580D01*
X026073Y008625D01*
X026073Y008805D01*
X026028Y008850D01*
X025893Y008850D01*
X025893Y009580D02*
X025893Y009760D01*
X025983Y009850D01*
X026073Y009760D01*
X026073Y009580D01*
X026073Y009715D02*
X025893Y009715D01*
X025893Y010580D02*
X026028Y010580D01*
X026073Y010625D01*
X026073Y010670D01*
X026028Y010715D01*
X025893Y010715D01*
X026028Y010715D02*
X026073Y010760D01*
X026073Y010805D01*
X026028Y010850D01*
X025893Y010850D01*
X025893Y010580D01*
X025893Y011580D02*
X025983Y011580D01*
X025938Y011580D02*
X025938Y011850D01*
X025893Y011850D02*
X025983Y011850D01*
X026893Y012330D02*
X026893Y012600D01*
X027028Y012600D01*
X027073Y012555D01*
X027073Y012465D01*
X027028Y012420D01*
X026893Y012420D01*
X026983Y012420D02*
X027073Y012330D01*
X027187Y012330D02*
X027367Y012510D01*
X027367Y012555D01*
X027322Y012600D01*
X027232Y012600D01*
X027187Y012555D01*
X027187Y012330D02*
X027367Y012330D01*
X027482Y012375D02*
X027662Y012555D01*
X027662Y012375D01*
X027617Y012330D01*
X027527Y012330D01*
X027482Y012375D01*
X027482Y012555D01*
X027527Y012600D01*
X027617Y012600D01*
X027662Y012555D01*
X027776Y012555D02*
X027821Y012600D01*
X027912Y012600D01*
X027957Y012555D01*
X027957Y012510D01*
X027776Y012330D01*
X027957Y012330D01*
X028071Y012375D02*
X028251Y012555D01*
X028251Y012375D01*
X028206Y012330D01*
X028116Y012330D01*
X028071Y012375D01*
X028071Y012555D01*
X028116Y012600D01*
X028206Y012600D01*
X028251Y012555D01*
X027180Y013530D02*
X027180Y015680D01*
X027750Y016205D02*
X027840Y016205D01*
X027885Y016250D01*
X028000Y016250D02*
X028045Y016205D01*
X028180Y016205D01*
X028180Y016340D01*
X028135Y016385D01*
X028045Y016385D01*
X028045Y016295D02*
X028180Y016295D01*
X028045Y016295D02*
X028000Y016250D01*
X027885Y016430D02*
X027840Y016475D01*
X027750Y016475D01*
X027705Y016430D01*
X027705Y016250D01*
X027750Y016205D01*
X028294Y016205D02*
X028294Y016385D01*
X028339Y016385D01*
X028384Y016340D01*
X028429Y016385D01*
X028474Y016340D01*
X028474Y016205D01*
X028384Y016205D02*
X028384Y016340D01*
X028884Y016295D02*
X029019Y016295D01*
X029064Y016340D01*
X029064Y016430D01*
X029019Y016475D01*
X028884Y016475D01*
X028884Y016205D01*
X029178Y016250D02*
X029223Y016205D01*
X029313Y016205D01*
X029358Y016250D01*
X029358Y016340D01*
X029313Y016385D01*
X029223Y016385D01*
X029178Y016340D01*
X029178Y016250D01*
X029473Y016385D02*
X029563Y016385D01*
X029518Y016430D02*
X029518Y016250D01*
X029563Y016205D01*
X029830Y013343D02*
X030100Y013343D01*
X030100Y013162D01*
X030205Y013190D02*
X030205Y013280D01*
X030205Y013235D02*
X030475Y013235D01*
X030475Y013280D02*
X030475Y013190D01*
X030475Y013084D02*
X030205Y012903D01*
X030475Y012903D01*
X030475Y012789D02*
X030205Y012789D01*
X030205Y012654D01*
X030250Y012609D01*
X030430Y012609D01*
X030475Y012654D01*
X030475Y012789D01*
X030475Y012494D02*
X030205Y012494D01*
X030205Y012314D01*
X030100Y012323D02*
X030100Y012414D01*
X030055Y012459D01*
X029875Y012459D01*
X029830Y012414D01*
X029830Y012323D01*
X029875Y012278D01*
X029830Y012164D02*
X030100Y012164D01*
X030205Y012200D02*
X030475Y012019D01*
X030475Y012200D02*
X030205Y012019D01*
X030100Y011984D02*
X029920Y012164D01*
X029965Y012119D02*
X029830Y011984D01*
X030055Y012278D02*
X030100Y012323D01*
X030340Y012404D02*
X030340Y012494D01*
X030475Y012494D02*
X030475Y012314D01*
X030100Y012663D02*
X030010Y012573D01*
X029830Y012573D01*
X029965Y012573D02*
X029965Y012753D01*
X030010Y012753D02*
X030100Y012663D01*
X030010Y012753D02*
X029830Y012753D01*
X029875Y012868D02*
X029830Y012913D01*
X029830Y013048D01*
X030100Y013048D01*
X030100Y012913D01*
X030055Y012868D01*
X030010Y012868D01*
X029965Y012913D01*
X029965Y013048D01*
X029965Y012913D02*
X029920Y012868D01*
X029875Y012868D01*
X030205Y013084D02*
X030475Y013084D01*
X029965Y013252D02*
X029965Y013343D01*
X024474Y013518D02*
X024474Y013788D01*
X024294Y013788D02*
X024294Y013518D01*
X024384Y013608D01*
X024474Y013518D01*
X024180Y013563D02*
X024180Y013743D01*
X024135Y013788D01*
X024045Y013788D01*
X024000Y013743D01*
X024000Y013563D01*
X024045Y013518D01*
X024135Y013518D01*
X024180Y013563D01*
X023885Y013518D02*
X023705Y013518D01*
X023705Y013788D01*
X023099Y014080D02*
X023099Y014350D01*
X023009Y014260D01*
X022919Y014350D01*
X022919Y014080D01*
X022805Y014080D02*
X022715Y014170D01*
X022625Y014080D01*
X022625Y014350D01*
X022510Y014305D02*
X022510Y014215D01*
X022465Y014170D01*
X022330Y014170D01*
X022330Y014080D02*
X022330Y014350D01*
X022465Y014350D01*
X022510Y014305D01*
X022805Y014350D02*
X022805Y014080D01*
X022162Y014080D02*
X022027Y014215D01*
X021982Y014170D02*
X022162Y014350D01*
X021982Y014350D02*
X021982Y014080D01*
X021867Y014125D02*
X021822Y014080D01*
X021732Y014080D01*
X021687Y014125D01*
X021687Y014305D01*
X021732Y014350D01*
X021822Y014350D01*
X021867Y014305D01*
X021573Y014305D02*
X021528Y014350D01*
X021438Y014350D01*
X021393Y014305D01*
X021393Y014260D01*
X021438Y014215D01*
X021528Y014215D01*
X021573Y014170D01*
X021573Y014125D01*
X021528Y014080D01*
X021438Y014080D01*
X021393Y014125D01*
X021171Y014125D02*
X021126Y014080D01*
X021036Y014080D01*
X020991Y014125D01*
X020991Y014305D01*
X021036Y014350D01*
X021126Y014350D01*
X021171Y014305D01*
X021171Y014125D01*
X020876Y014125D02*
X020831Y014080D01*
X020741Y014080D01*
X020696Y014125D01*
X020741Y014215D02*
X020696Y014260D01*
X020696Y014305D01*
X020741Y014350D01*
X020831Y014350D01*
X020876Y014305D01*
X020831Y014215D02*
X020876Y014170D01*
X020876Y014125D01*
X020831Y014215D02*
X020741Y014215D01*
X020590Y014080D02*
X020500Y014080D01*
X020545Y014080D02*
X020545Y014350D01*
X020500Y014350D02*
X020590Y014350D01*
X020385Y014350D02*
X020385Y014080D01*
X020205Y014080D02*
X020205Y014350D01*
X020295Y014260D01*
X020385Y014350D01*
X020019Y014450D02*
X019430Y014450D01*
X019500Y014350D02*
X019455Y014305D01*
X019455Y014125D01*
X019500Y014080D01*
X019590Y014080D01*
X019635Y014125D01*
X019750Y014125D02*
X019795Y014080D01*
X019885Y014080D01*
X019930Y014125D01*
X019930Y014170D01*
X019885Y014215D01*
X019795Y014215D01*
X019750Y014260D01*
X019750Y014305D01*
X019795Y014350D01*
X019885Y014350D01*
X019930Y014305D01*
X019635Y014305D02*
X019590Y014350D01*
X019500Y014350D01*
X019099Y014305D02*
X019054Y014350D01*
X018919Y014350D01*
X018919Y014080D01*
X019054Y014080D01*
X019099Y014125D01*
X019099Y014305D01*
X018805Y014350D02*
X018805Y014080D01*
X018625Y014350D01*
X018625Y014080D01*
X018510Y014125D02*
X018510Y014215D01*
X018420Y014215D01*
X018330Y014125D02*
X018375Y014080D01*
X018465Y014080D01*
X018510Y014125D01*
X018330Y014125D02*
X018330Y014305D01*
X018375Y014350D01*
X018465Y014350D01*
X018510Y014305D01*
X018519Y013850D02*
X018384Y013715D01*
X018564Y013715D01*
X018519Y013580D02*
X018519Y013850D01*
X018678Y013805D02*
X018723Y013850D01*
X018813Y013850D01*
X018858Y013805D01*
X018678Y013625D01*
X018723Y013580D01*
X018813Y013580D01*
X018858Y013625D01*
X018858Y013805D01*
X018678Y013805D02*
X018678Y013625D01*
X018269Y013625D02*
X018269Y013805D01*
X018089Y013625D01*
X018134Y013580D01*
X018224Y013580D01*
X018269Y013625D01*
X018089Y013625D02*
X018089Y013805D01*
X018134Y013850D01*
X018224Y013850D01*
X018269Y013805D01*
X017974Y013850D02*
X017794Y013850D01*
X017794Y013715D01*
X017884Y013760D01*
X017929Y013760D01*
X017974Y013715D01*
X017974Y013625D01*
X017929Y013580D01*
X017839Y013580D01*
X017794Y013625D01*
X017680Y013625D02*
X017635Y013580D01*
X017545Y013580D01*
X017500Y013625D01*
X017545Y013715D02*
X017635Y013715D01*
X017680Y013670D01*
X017680Y013625D01*
X017545Y013715D02*
X017500Y013760D01*
X017500Y013805D01*
X017545Y013850D01*
X017635Y013850D01*
X017680Y013805D01*
X017635Y014080D02*
X017545Y014080D01*
X017500Y014125D01*
X017500Y014215D02*
X017590Y014260D01*
X017635Y014260D01*
X017680Y014215D01*
X017680Y014125D01*
X017635Y014080D01*
X017794Y014170D02*
X017884Y014080D01*
X017974Y014170D01*
X017974Y014350D01*
X017794Y014350D02*
X017794Y014170D01*
X017680Y014350D02*
X017500Y014350D01*
X017500Y014215D01*
X017385Y014215D02*
X017205Y014215D01*
X017295Y014305D02*
X017295Y014125D01*
X017295Y013850D02*
X017205Y013760D01*
X017205Y013580D01*
X017205Y013715D02*
X017385Y013715D01*
X017385Y013760D02*
X017385Y013580D01*
X017385Y013760D02*
X017295Y013850D01*
X015019Y011600D02*
X015064Y011555D01*
X015064Y011465D01*
X015019Y011420D01*
X014884Y011420D01*
X014884Y011330D02*
X014884Y011600D01*
X015019Y011600D01*
X014769Y011555D02*
X014724Y011600D01*
X014634Y011600D01*
X014589Y011555D01*
X014589Y011510D01*
X014634Y011465D01*
X014724Y011465D01*
X014769Y011420D01*
X014769Y011375D01*
X014724Y011330D01*
X014634Y011330D01*
X014589Y011375D01*
X014483Y011330D02*
X014393Y011330D01*
X014438Y011330D02*
X014438Y011600D01*
X014393Y011600D02*
X014483Y011600D01*
X016330Y010538D02*
X016330Y010268D01*
X016330Y010358D02*
X016465Y010358D01*
X016510Y010403D01*
X016510Y010493D01*
X016465Y010538D01*
X016330Y010538D01*
X016625Y010493D02*
X016625Y010313D01*
X016670Y010268D01*
X016760Y010268D01*
X016805Y010313D01*
X016919Y010313D02*
X016919Y010268D01*
X016919Y010313D02*
X017099Y010493D01*
X017099Y010538D01*
X016919Y010538D01*
X016805Y010493D02*
X016760Y010538D01*
X016670Y010538D01*
X016625Y010493D01*
X016893Y010768D02*
X016893Y011038D01*
X017028Y011038D01*
X017073Y010993D01*
X017073Y010903D01*
X017028Y010858D01*
X016893Y010858D01*
X017187Y010768D02*
X017187Y011038D01*
X017322Y011038D01*
X017367Y010993D01*
X017367Y010813D01*
X017322Y010768D01*
X017187Y010768D01*
X017482Y010813D02*
X017482Y010903D01*
X017617Y010903D01*
X017662Y010858D01*
X017662Y010813D01*
X017617Y010768D01*
X017527Y010768D01*
X017482Y010813D01*
X017482Y010903D02*
X017572Y010993D01*
X017662Y011038D01*
X019018Y011038D02*
X019018Y010768D01*
X019018Y010858D02*
X019153Y010858D01*
X019198Y010903D01*
X019198Y010993D01*
X019153Y011038D01*
X019018Y011038D01*
X019312Y011038D02*
X019312Y010768D01*
X019447Y010768D01*
X019492Y010813D01*
X019492Y010993D01*
X019447Y011038D01*
X019312Y011038D01*
X019607Y011038D02*
X019607Y010903D01*
X019697Y010948D01*
X019742Y010948D01*
X019787Y010903D01*
X019787Y010813D01*
X019742Y010768D01*
X019652Y010768D01*
X019607Y010813D01*
X019607Y011038D02*
X019787Y011038D01*
X021205Y011055D02*
X021205Y011010D01*
X021250Y010965D01*
X021340Y010965D01*
X021385Y010920D01*
X021385Y010875D01*
X021340Y010830D01*
X021250Y010830D01*
X021205Y010875D01*
X021205Y011055D02*
X021250Y011100D01*
X021340Y011100D01*
X021385Y011055D01*
X021500Y011055D02*
X021500Y010875D01*
X021545Y010830D01*
X021635Y010830D01*
X021680Y010875D01*
X021794Y010830D02*
X021794Y011100D01*
X021680Y011055D02*
X021635Y011100D01*
X021545Y011100D01*
X021500Y011055D01*
X021794Y010920D02*
X021974Y011100D01*
X021839Y010965D02*
X021974Y010830D01*
X023393Y010875D02*
X023438Y010830D01*
X023528Y010830D01*
X023573Y010875D01*
X023573Y010920D01*
X023528Y010965D01*
X023438Y010965D01*
X023393Y011010D01*
X023393Y011055D01*
X023438Y011100D01*
X023528Y011100D01*
X023573Y011055D01*
X023687Y011100D02*
X023867Y011100D01*
X023777Y011100D02*
X023777Y010830D01*
X023982Y010830D02*
X023982Y011100D01*
X024117Y011100D01*
X024162Y011055D01*
X024162Y010965D01*
X024117Y010920D01*
X023982Y010920D01*
X023947Y012830D02*
X024037Y012920D01*
X024037Y013100D01*
X023857Y013100D02*
X023857Y012920D01*
X023947Y012830D01*
X023742Y012875D02*
X023697Y012830D01*
X023607Y012830D01*
X023562Y012875D01*
X023562Y012965D02*
X023652Y013010D01*
X023697Y013010D01*
X023742Y012965D01*
X023742Y012875D01*
X023562Y012965D02*
X023562Y013100D01*
X023742Y013100D01*
X023448Y012965D02*
X023268Y012965D01*
X023358Y013055D02*
X023358Y012875D01*
X022019Y013200D02*
X021430Y013200D01*
X021500Y013100D02*
X021455Y013055D01*
X021455Y012875D01*
X021500Y012830D01*
X021590Y012830D01*
X021635Y012875D01*
X021750Y012875D02*
X021795Y012830D01*
X021885Y012830D01*
X021930Y012875D01*
X021930Y012920D01*
X021885Y012965D01*
X021795Y012965D01*
X021750Y013010D01*
X021750Y013055D01*
X021795Y013100D01*
X021885Y013100D01*
X021930Y013055D01*
X021635Y013055D02*
X021590Y013100D01*
X021500Y013100D01*
X024080Y014580D02*
X024170Y014580D01*
X024125Y014580D02*
X024125Y014850D01*
X024080Y014850D02*
X024170Y014850D01*
X024276Y014850D02*
X024457Y014580D01*
X024457Y014850D01*
X024276Y014850D02*
X024276Y014580D01*
X024241Y015518D02*
X024241Y015788D01*
X024126Y015743D02*
X024081Y015788D01*
X023991Y015788D01*
X023946Y015743D01*
X023946Y015563D01*
X023991Y015518D01*
X024081Y015518D01*
X024126Y015563D01*
X024126Y015653D01*
X024036Y015653D01*
X024241Y015653D02*
X024421Y015653D01*
X024421Y015788D02*
X024421Y015518D01*
X023840Y015518D02*
X023750Y015518D01*
X023795Y015518D02*
X023795Y015788D01*
X023750Y015788D02*
X023840Y015788D01*
X023635Y015788D02*
X023635Y015518D01*
X023635Y015653D02*
X023455Y015653D01*
X023455Y015518D02*
X023455Y015788D01*
X025893Y007850D02*
X025893Y007625D01*
X025938Y007580D01*
X026028Y007580D01*
X026073Y007625D01*
X026073Y007850D01*
X020170Y001993D02*
X020170Y001813D01*
X004571Y019268D02*
X004571Y019448D01*
X004661Y019448D02*
X004706Y019448D01*
X004661Y019448D02*
X004571Y019358D01*
X004457Y019358D02*
X004276Y019358D01*
X004276Y019403D02*
X004321Y019448D01*
X004412Y019448D01*
X004457Y019403D01*
X004457Y019358D01*
X004412Y019268D02*
X004321Y019268D01*
X004276Y019313D01*
X004276Y019403D01*
X004162Y019448D02*
X004162Y019313D01*
X004117Y019268D01*
X004072Y019313D01*
X004027Y019268D01*
X003982Y019313D01*
X003982Y019448D01*
X003867Y019403D02*
X003822Y019448D01*
X003732Y019448D01*
X003687Y019403D01*
X003687Y019313D01*
X003732Y019268D01*
X003822Y019268D01*
X003867Y019313D01*
X003867Y019403D01*
X003573Y019403D02*
X003573Y019493D01*
X003528Y019538D01*
X003393Y019538D01*
X003393Y019268D01*
X003393Y019358D02*
X003528Y019358D01*
X003573Y019403D01*
D12*
X022180Y012680D02*
X022180Y012238D01*
X022180Y011845D02*
X022180Y011403D01*
X022180Y011009D02*
X022180Y010567D01*
X022180Y010174D02*
X022180Y009732D01*
X022180Y009338D02*
X022180Y008897D01*
X022180Y008503D02*
X022180Y008061D01*
X022180Y007668D02*
X022180Y007226D01*
X022180Y006832D02*
X022180Y006390D01*
X022180Y005997D02*
X022180Y005555D01*
X023180Y005555D02*
X023180Y005997D01*
X023180Y006390D02*
X023180Y006832D01*
X023180Y007226D02*
X023180Y007668D01*
X023180Y008061D02*
X023180Y008503D01*
X023180Y008897D02*
X023180Y009338D01*
X023180Y009732D02*
X023180Y010174D01*
X023180Y010567D02*
X023180Y011009D01*
X023180Y011403D02*
X023180Y011845D01*
X023180Y012238D02*
X023180Y012680D01*
D13*
X018208Y004771D02*
X018110Y004771D01*
X018110Y004673D01*
X018208Y004673D01*
X018208Y004771D01*
D14*
X019643Y005130D02*
X019643Y005230D01*
X019843Y005230D02*
X019843Y005130D01*
X016030Y002780D02*
X015930Y002780D01*
X015930Y002580D02*
X016030Y002580D01*
X016030Y002018D02*
X015930Y002018D01*
X015930Y001818D02*
X016030Y001818D01*
X010230Y002705D02*
X010130Y002705D01*
X010130Y002905D02*
X010230Y002905D01*
X008918Y002905D02*
X008818Y002905D01*
X008818Y002705D02*
X008918Y002705D01*
X005430Y003180D02*
X005430Y003430D01*
X005180Y003430D01*
X005180Y003930D01*
X005430Y003930D01*
X005430Y004430D01*
X005180Y004430D01*
X005180Y004930D01*
X005430Y004930D01*
X005430Y005180D01*
X004180Y005180D01*
X004180Y004830D01*
X001730Y004830D01*
X001590Y004700D01*
X001590Y004680D02*
X001030Y004680D01*
X000830Y004580D01*
X000830Y003780D01*
X001030Y003680D01*
X001590Y003680D01*
X001590Y003660D02*
X001730Y003530D01*
X004180Y003530D01*
X004180Y003180D02*
X004180Y004830D01*
X004180Y005680D02*
X004180Y007330D01*
X001730Y007330D01*
X001590Y007200D01*
X001590Y007180D02*
X001030Y007180D01*
X000830Y007080D01*
X000830Y006280D01*
X001030Y006180D01*
X001590Y006180D01*
X001590Y006160D02*
X001730Y006030D01*
X004180Y006030D01*
X004180Y005680D02*
X005430Y005680D01*
X005430Y005930D01*
X005180Y005930D01*
X005180Y006430D01*
X005430Y006430D01*
X005430Y006930D01*
X005180Y006930D01*
X005180Y007430D01*
X005430Y007430D01*
X005430Y007680D01*
X004180Y007680D01*
X004180Y007330D01*
X007630Y006280D02*
X007730Y006280D01*
X007730Y006080D02*
X007630Y006080D01*
X005430Y003180D02*
X004180Y003180D01*
X013630Y006580D02*
X013730Y006580D01*
X013730Y006780D02*
X013630Y006780D01*
X013630Y007580D02*
X013730Y007580D01*
X013730Y007780D02*
X013630Y007780D01*
X013630Y008580D02*
X013730Y008580D01*
X013730Y008780D02*
X013630Y008780D01*
X012593Y011955D02*
X012493Y011955D01*
X012493Y012155D02*
X012593Y012155D01*
X009655Y013505D02*
X009655Y013605D01*
X009455Y013605D02*
X009455Y013505D01*
X008668Y012780D02*
X008568Y012780D01*
X008568Y012580D02*
X008668Y012580D01*
X007918Y012030D02*
X007818Y012030D01*
X007818Y011830D02*
X007918Y011830D01*
X007918Y011218D02*
X007818Y011218D01*
X007818Y011018D02*
X007918Y011018D01*
X005730Y013080D02*
X005630Y013080D01*
X005630Y013280D02*
X005730Y013280D01*
X005730Y013830D02*
X005630Y013830D01*
X005630Y014030D02*
X005730Y014030D01*
X005730Y014580D02*
X005630Y014580D01*
X005630Y014780D02*
X005730Y014780D01*
X005730Y015330D02*
X005630Y015330D01*
X005630Y015530D02*
X005730Y015530D01*
X005730Y016080D02*
X005630Y016080D01*
X005630Y016280D02*
X005730Y016280D01*
X003918Y018080D02*
X003818Y018080D01*
X003818Y018280D02*
X003918Y018280D01*
X015830Y013730D02*
X015830Y013630D01*
X016030Y013630D02*
X016030Y013730D01*
X016518Y013730D02*
X016518Y013630D01*
X016718Y013630D02*
X016718Y013730D01*
X017180Y015930D02*
X017430Y015930D01*
X017430Y016180D01*
X017930Y016180D01*
X017930Y015930D01*
X018430Y015930D01*
X018430Y016180D01*
X018930Y016180D01*
X018930Y015930D01*
X019430Y015930D01*
X019430Y016180D01*
X019930Y016180D01*
X019930Y015930D01*
X020430Y015930D01*
X020430Y016180D01*
X020930Y016180D01*
X020930Y015930D01*
X021430Y015930D01*
X021430Y016180D01*
X021930Y016180D01*
X021930Y015930D01*
X022430Y015930D01*
X022430Y016180D01*
X022930Y016180D01*
X022930Y015930D01*
X023180Y015930D01*
X023180Y017180D01*
X022830Y017180D01*
X017180Y017180D01*
X017180Y015930D01*
X017530Y017180D02*
X017530Y019630D01*
X017660Y019770D01*
X017680Y019770D02*
X017680Y020330D01*
X017780Y020530D01*
X022580Y020530D01*
X022680Y020330D01*
X022680Y019770D01*
X022700Y019770D02*
X022830Y019630D01*
X022830Y017180D01*
X024080Y016730D02*
X024080Y016630D01*
X024280Y016630D02*
X024280Y016730D01*
X025880Y017080D02*
X025980Y017080D01*
X025980Y017280D02*
X025880Y017280D01*
X026830Y017380D02*
X026830Y017480D01*
X027030Y017480D02*
X027030Y017380D01*
X027643Y017380D02*
X027643Y017480D01*
X027843Y017480D02*
X027843Y017380D01*
X027180Y016180D02*
X025930Y016180D01*
X025930Y015930D01*
X026180Y015930D01*
X026180Y015430D01*
X025930Y015430D01*
X025930Y014930D01*
X026180Y014930D01*
X026180Y014430D01*
X025930Y014430D01*
X025930Y013930D01*
X026180Y013930D01*
X026180Y013430D01*
X025930Y013430D01*
X025930Y013180D01*
X027180Y013180D01*
X027180Y013530D01*
X029630Y013530D01*
X029770Y013660D01*
X029770Y013680D02*
X030330Y013680D01*
X030530Y013780D01*
X030530Y014200D01*
X030530Y014160D02*
X030530Y015580D01*
X030330Y015680D01*
X029770Y015680D01*
X029770Y015700D02*
X029630Y015830D01*
X027180Y015830D01*
X027180Y015680D02*
X027180Y016180D01*
X020480Y012280D02*
X020380Y012280D01*
X020380Y012080D02*
X020480Y012080D01*
X018780Y009730D02*
X018780Y009630D01*
X018580Y009630D02*
X018580Y009730D01*
X018093Y009730D02*
X018093Y009630D01*
X017893Y009630D02*
X017893Y009730D01*
X019643Y009230D02*
X019643Y009130D01*
X019843Y009130D02*
X019843Y009230D01*
X024080Y003730D02*
X024080Y003630D01*
X024280Y003630D02*
X024280Y003730D01*
X024830Y003693D02*
X024830Y003793D01*
X025030Y003793D02*
X025030Y003693D01*
D15*
X025530Y003798D02*
X025830Y003798D01*
X025680Y003938D01*
X025530Y003798D01*
X025510Y003938D02*
X025680Y003938D01*
X025850Y003938D01*
X023600Y003750D02*
X023430Y003750D01*
X023580Y003610D01*
X023280Y003610D01*
X023430Y003751D01*
X023430Y003750D02*
X023260Y003750D01*
X018830Y010860D02*
X018530Y010860D01*
X018680Y011001D01*
X018680Y011000D02*
X018830Y010860D01*
X018850Y011000D02*
X018680Y011000D01*
X018510Y011000D01*
X018163Y011000D02*
X017993Y011000D01*
X018143Y010860D01*
X017843Y010860D01*
X017993Y011001D01*
X017993Y011000D02*
X017823Y011000D01*
X017836Y016554D02*
X017836Y016841D01*
X017836Y016698D02*
X017405Y016698D01*
X017549Y016554D01*
X022385Y016791D02*
X022457Y016648D01*
X022600Y016504D01*
X022600Y016720D01*
X022672Y016791D01*
X022744Y016791D01*
X022816Y016720D01*
X022816Y016576D01*
X022744Y016504D01*
X022600Y016504D01*
X026554Y015811D02*
X026698Y015955D01*
X026698Y015524D01*
X026841Y015524D02*
X026554Y015524D01*
X026576Y013975D02*
X026720Y013975D01*
X026791Y013903D01*
X026791Y013831D01*
X026720Y013760D01*
X026791Y013688D01*
X026791Y013616D01*
X026720Y013544D01*
X026576Y013544D01*
X026504Y013616D01*
X026648Y013760D02*
X026720Y013760D01*
X026576Y013975D02*
X026504Y013903D01*
X004752Y007244D02*
X004680Y007316D01*
X004537Y007316D01*
X004465Y007244D01*
X004752Y007244D02*
X004752Y007173D01*
X004465Y006886D01*
X004752Y006886D01*
X004559Y006336D02*
X004559Y005906D01*
X004702Y005906D02*
X004415Y005906D01*
X004415Y006193D02*
X004559Y006336D01*
X004537Y004816D02*
X004465Y004744D01*
X004537Y004816D02*
X004680Y004816D01*
X004752Y004744D01*
X004752Y004673D01*
X004465Y004386D01*
X004752Y004386D01*
X004559Y003836D02*
X004559Y003406D01*
X004702Y003406D02*
X004415Y003406D01*
X004415Y003693D02*
X004559Y003836D01*
X003938Y018823D02*
X003938Y018993D01*
X003798Y019143D01*
X003798Y018843D01*
X003938Y018993D01*
X003938Y019163D01*
D16*
X013245Y012693D02*
X013247Y012708D01*
X013252Y012722D01*
X013261Y012734D01*
X013273Y012744D01*
X013286Y012750D01*
X013301Y012753D01*
X013316Y012752D01*
X013331Y012747D01*
X013343Y012739D01*
X013354Y012728D01*
X013361Y012715D01*
X013365Y012701D01*
X013365Y012685D01*
X013361Y012671D01*
X013354Y012658D01*
X013343Y012647D01*
X013331Y012639D01*
X013316Y012634D01*
X013301Y012633D01*
X013286Y012636D01*
X013273Y012642D01*
X013261Y012652D01*
X013252Y012664D01*
X013247Y012678D01*
X013245Y012693D01*
D17*
X009046Y013314D02*
X009048Y013322D01*
X009053Y013329D01*
X009060Y013333D01*
X009068Y013334D01*
X009076Y013331D01*
X009082Y013326D01*
X009086Y013318D01*
X009086Y013310D01*
X009082Y013302D01*
X009076Y013297D01*
X009068Y013294D01*
X009060Y013295D01*
X009053Y013299D01*
X009048Y013306D01*
X009046Y013314D01*
X008967Y013393D02*
X008967Y013432D01*
X008967Y013393D02*
X007393Y013393D01*
X007393Y013432D01*
X007393Y013668D02*
X007393Y013747D01*
X007393Y013983D02*
X007393Y014062D01*
X007393Y014298D02*
X007393Y014377D01*
X007393Y014613D02*
X007393Y014692D01*
X007393Y014928D02*
X007393Y014967D01*
X008967Y014967D01*
X008967Y014928D01*
X008967Y014692D02*
X008967Y014613D01*
X008967Y014377D02*
X008967Y014298D01*
X008967Y014062D02*
X008967Y013983D01*
X008967Y013747D02*
X008967Y013668D01*
X019113Y008164D02*
X019191Y008164D01*
X019113Y008164D02*
X019113Y006196D01*
X019191Y006196D01*
X020294Y006196D02*
X020372Y006196D01*
X020372Y008164D01*
X020294Y008164D01*
D18*
X027140Y010680D03*
D19*
X027215Y010755D03*
X027215Y010605D03*
D20*
X027060Y010680D03*
D21*
X025680Y010430D02*
X025430Y010180D01*
X025680Y009930D01*
X025680Y009430D01*
X025430Y009180D01*
X025680Y008930D01*
X025680Y008430D01*
X025430Y008180D01*
X025680Y007930D01*
X025680Y007430D01*
X025430Y007180D01*
X024930Y007180D01*
X024680Y007430D01*
X024680Y007930D01*
X024930Y008180D01*
X024680Y008430D01*
X024680Y008930D01*
X024930Y009180D01*
X024680Y009430D01*
X024680Y009930D01*
X024930Y010180D01*
X024680Y010430D01*
X024680Y010930D01*
X024930Y011180D01*
X024680Y011430D01*
X024680Y011930D01*
X024930Y012180D01*
X025430Y012180D01*
X025680Y011930D01*
X025680Y011430D01*
X025430Y011180D01*
X025680Y010930D01*
X025680Y010430D01*
X012813Y012774D02*
X012636Y012774D01*
X012813Y012774D02*
X012813Y014586D01*
X012636Y014586D01*
X011849Y014586D02*
X011672Y014586D01*
X011672Y012774D01*
X011849Y012774D01*
X011251Y012774D02*
X011074Y012774D01*
X011251Y012774D02*
X011251Y014586D01*
X011074Y014586D01*
X010286Y014586D02*
X010109Y014586D01*
X010109Y012774D01*
X010286Y012774D01*
X010286Y013286D02*
X011074Y013286D01*
X011849Y013286D02*
X012636Y013286D01*
X004019Y016389D02*
X004019Y008082D01*
X001735Y008082D01*
X001735Y016389D01*
X004019Y016389D01*
X001735Y016389D02*
X001341Y016389D01*
X001341Y008082D01*
X001735Y008082D01*
X008119Y005125D02*
X009419Y005125D01*
X009419Y003235D01*
X008119Y003235D01*
X009419Y003235D02*
X009616Y003235D01*
X009616Y005125D02*
X009419Y005125D01*
D22*
X003347Y001276D02*
X003156Y001296D01*
X003156Y001439D01*
X003347Y001459D01*
X003367Y001523D01*
X003398Y001583D01*
X003277Y001731D01*
X003379Y001833D01*
X003527Y001712D01*
X003587Y001743D01*
X003651Y001763D01*
X003671Y001954D01*
X003814Y001954D01*
X003834Y001763D01*
X003898Y001743D01*
X003958Y001712D01*
X004106Y001833D01*
X004208Y001731D01*
X004087Y001583D01*
X004118Y001523D01*
X004138Y001459D01*
X004329Y001439D01*
X004329Y001296D01*
X004138Y001276D01*
X004118Y001212D01*
X004087Y001152D01*
X004208Y001004D01*
X004106Y000902D01*
X003958Y001023D01*
X003898Y000992D01*
X003813Y001197D01*
X003852Y001219D01*
X003884Y001249D01*
X003908Y001286D01*
X003923Y001328D01*
X003927Y001372D01*
X003921Y001415D01*
X003904Y001456D01*
X003879Y001492D01*
X003845Y001521D01*
X003806Y001541D01*
X003763Y001551D01*
X003718Y001550D01*
X003676Y001539D01*
X003637Y001519D01*
X003604Y001489D01*
X003579Y001453D01*
X003563Y001411D01*
X003558Y001368D01*
X003563Y001324D01*
X003578Y001284D01*
X003602Y001248D01*
X003634Y001218D01*
X003672Y001197D01*
X003587Y000992D01*
X003527Y001023D01*
X003379Y000902D01*
X003277Y001004D01*
X003398Y001152D01*
X003367Y001212D01*
X003347Y001276D01*
X003353Y001256D02*
X003597Y001256D01*
X003567Y001313D02*
X003156Y001313D01*
X003156Y001371D02*
X003558Y001371D01*
X003570Y001428D02*
X003156Y001428D01*
X003355Y001486D02*
X003601Y001486D01*
X003691Y001543D02*
X003378Y001543D01*
X003383Y001601D02*
X004102Y001601D01*
X004107Y001543D02*
X003795Y001543D01*
X003883Y001486D02*
X004130Y001486D01*
X004149Y001658D02*
X003336Y001658D01*
X003289Y001716D02*
X003522Y001716D01*
X003535Y001716D02*
X003950Y001716D01*
X003963Y001716D02*
X004196Y001716D01*
X004165Y001774D02*
X004033Y001774D01*
X004104Y001831D02*
X004108Y001831D01*
X003827Y001831D02*
X003658Y001831D01*
X003652Y001774D02*
X003833Y001774D01*
X003821Y001889D02*
X003664Y001889D01*
X003670Y001946D02*
X003815Y001946D01*
X003452Y001774D02*
X003320Y001774D01*
X003377Y001831D02*
X003381Y001831D01*
X003916Y001428D02*
X004329Y001428D01*
X004329Y001371D02*
X003927Y001371D01*
X003918Y001313D02*
X004329Y001313D01*
X004132Y001256D02*
X003888Y001256D01*
X003815Y001198D02*
X004110Y001198D01*
X004097Y001140D02*
X003837Y001140D01*
X003860Y001083D02*
X004143Y001083D01*
X004190Y001025D02*
X003884Y001025D01*
X004026Y000968D02*
X004172Y000968D01*
X004114Y000910D02*
X004096Y000910D01*
X003625Y001083D02*
X003342Y001083D01*
X003388Y001140D02*
X003648Y001140D01*
X003670Y001198D02*
X003375Y001198D01*
X003295Y001025D02*
X003601Y001025D01*
X003459Y000968D02*
X003313Y000968D01*
X003371Y000910D02*
X003389Y000910D01*
X007015Y015711D02*
X007015Y019649D01*
X008786Y019649D02*
X009574Y019649D01*
X011345Y019649D02*
X011345Y015711D01*
X009574Y015711D02*
X008786Y015711D01*
X014180Y015712D02*
X014273Y015715D01*
X014366Y015722D01*
X014458Y015733D01*
X014550Y015749D01*
X014641Y015769D01*
X014731Y015794D01*
X014820Y015822D01*
X014907Y015855D01*
X014992Y015892D01*
X015076Y015933D01*
X015158Y015978D01*
X015237Y016027D01*
X015314Y016079D01*
X015388Y016135D01*
X015460Y016195D01*
X015529Y016257D01*
X015595Y016324D01*
X015657Y016393D01*
X015716Y016465D01*
X015772Y016539D01*
X015824Y016616D01*
X015872Y016696D01*
X014180Y015712D02*
X014087Y015715D01*
X013994Y015722D01*
X013902Y015733D01*
X013810Y015749D01*
X013719Y015769D01*
X013629Y015794D01*
X013540Y015822D01*
X013453Y015855D01*
X013368Y015892D01*
X013284Y015933D01*
X013202Y015978D01*
X013123Y016027D01*
X013046Y016079D01*
X012972Y016135D01*
X012900Y016195D01*
X012831Y016257D01*
X012765Y016324D01*
X012703Y016393D01*
X012644Y016465D01*
X012588Y016539D01*
X012536Y016616D01*
X012488Y016696D01*
X014180Y019648D02*
X014273Y019645D01*
X014366Y019638D01*
X014458Y019627D01*
X014550Y019611D01*
X014641Y019591D01*
X014731Y019566D01*
X014820Y019538D01*
X014907Y019505D01*
X014992Y019468D01*
X015076Y019427D01*
X015158Y019382D01*
X015237Y019333D01*
X015314Y019281D01*
X015388Y019225D01*
X015460Y019165D01*
X015529Y019103D01*
X015595Y019036D01*
X015657Y018967D01*
X015716Y018895D01*
X015772Y018821D01*
X015824Y018744D01*
X015872Y018664D01*
X014180Y019648D02*
X014087Y019645D01*
X013994Y019638D01*
X013902Y019627D01*
X013810Y019611D01*
X013719Y019591D01*
X013629Y019566D01*
X013540Y019538D01*
X013453Y019505D01*
X013368Y019468D01*
X013284Y019427D01*
X013202Y019382D01*
X013123Y019333D01*
X013046Y019281D01*
X012972Y019225D01*
X012900Y019165D01*
X012831Y019103D01*
X012765Y019036D01*
X012703Y018967D01*
X012644Y018895D01*
X012588Y018821D01*
X012536Y018744D01*
X012488Y018664D01*
M02*
