G75*
G70*
%OFA0B0*%
%FSLAX24Y24*%
%IPPOS*%
%LPD*%
%AMOC8*
5,1,8,0,0,1.08239X$1,22.5*
%
%ADD10C,0.1360*%
%ADD11C,0.0660*%
%ADD12C,0.0600*%
%ADD13OC8,0.0600*%
%ADD14OC8,0.0660*%
%ADD15C,0.0760*%
%ADD16C,0.0720*%
%ADD17C,0.0660*%
%ADD18R,0.0769X0.0769*%
%ADD19C,0.0769*%
D10*
X002180Y002180D03*
X028180Y002180D03*
X031680Y019180D03*
X002180Y019180D03*
D11*
X020180Y015480D02*
X020180Y014880D01*
X021180Y014880D02*
X021180Y015480D01*
X022180Y015480D02*
X022180Y014880D01*
X023180Y014880D02*
X023180Y015480D01*
X024180Y015480D02*
X024180Y014880D01*
X025180Y014880D02*
X025180Y015480D01*
X027380Y015680D02*
X027980Y015680D01*
X027980Y014680D02*
X027380Y014680D01*
X027380Y013680D02*
X027980Y013680D01*
X006980Y006680D02*
X006380Y006680D01*
X006380Y005680D02*
X006980Y005680D01*
D12*
X030180Y010680D03*
D13*
X031180Y010680D03*
X031180Y009680D03*
X030180Y009680D03*
X030180Y008680D03*
X031180Y008680D03*
X031180Y007680D03*
X030180Y007680D03*
X030180Y006680D03*
X031180Y006680D03*
X031180Y005680D03*
X030180Y005680D03*
X030180Y004680D03*
X031180Y004680D03*
X031180Y003680D03*
X030180Y003680D03*
D14*
X019180Y009680D03*
X017180Y009680D03*
X016180Y009680D03*
X015180Y009680D03*
X015180Y010680D03*
X016180Y010680D03*
X017180Y010680D03*
D15*
X019930Y002680D03*
X020930Y002680D03*
X021930Y002680D03*
X022930Y002680D03*
X023930Y002680D03*
X024930Y002680D03*
D16*
X025180Y006180D03*
X024180Y006180D03*
X026180Y006180D03*
X026180Y008180D03*
X025180Y008180D03*
X024180Y008180D03*
X024180Y010180D03*
X025180Y010180D03*
X026180Y010180D03*
X026180Y012180D03*
X025180Y012180D03*
X024180Y012180D03*
D17*
X027680Y011680D03*
X027680Y010680D03*
X027680Y009680D03*
X027680Y008680D03*
X027680Y007680D03*
D18*
X002680Y015680D03*
D19*
X002680Y014302D03*
X002680Y012924D03*
X002680Y011546D03*
X002680Y010168D03*
X002680Y008790D03*
M02*
