%
M48
M72
T01C0.0157
T02C0.0360
T03C0.0400
T04C0.0472
T05C0.1300
%
T01
X10430Y4180
X11680Y4680
X13180Y5680
X13680Y4930
X14180Y4930
X15180Y5680
X15618Y5430
X16118Y5430
X16680Y5430
X18078Y5368
X18680Y5180
X18430Y3868
X18805Y3493
X19337Y3835
X17490Y4058
X16993Y4055
X17430Y2430
X21555Y3618
X21455Y5393
X19805Y6993
X19023Y6743
X18680Y7055
X18305Y6743
X16180Y7180
X15680Y7180
X15180Y6930
X14180Y6680
X12680Y6430
X12680Y7180
X11618Y6430
X13180Y8555
X13180Y9180
X14555Y8930
X15743Y8680
X17490Y8370
X18618Y8680
X18430Y10180
X19430Y10430
X17930Y11180
X18118Y11868
X20430Y11868
X22055Y13180
X23680Y13680
X26180Y13680
X27680Y12930
X29243Y14680
X22930Y10180
X28680Y6680
X28680Y4680
X26680Y4680
X12930Y2180
X12493Y1680
X10868Y2680
X8180Y9680
X9976Y12834
X7555Y13055
X4930Y13930
X9664Y15164
X6493Y18180
X14679Y18181
X15180Y16180
X14680Y15680
X16180Y15680
X17180Y14680
T02
X24180Y12180
X25180Y12180
X26180Y12180
X26180Y10180
X25180Y10180
X24180Y10180
X24180Y8180
X25180Y8180
X26180Y8180
X26180Y6180
X25180Y6180
X24180Y6180
X30180Y5680
X31180Y5680
X31180Y4680
X30180Y4680
X30180Y3680
X31180Y3680
X31180Y6680
X30180Y6680
X30180Y7680
X31180Y7680
X31180Y8680
X30180Y8680
X30180Y9680
X31180Y9680
X31180Y10680
X30180Y10680
T03
X27680Y10680
X27680Y11680
X27680Y9680
X27680Y8680
X27680Y7680
X24930Y2680
X23930Y2680
X22930Y2680
X21930Y2680
X20930Y2680
X19930Y2680
X19180Y9680
X17180Y9680
X16180Y9680
X15180Y9680
X15180Y10680
X16180Y10680
X17180Y10680
X20180Y15180
X21180Y15180
X22180Y15180
X23180Y15180
X24180Y15180
X25180Y15180
X27680Y14680
X27680Y13680
X27680Y15680
X6680Y6680
X6680Y5680
T04
X2680Y8790
X2680Y10168
X2680Y11546
X2680Y12924
X2680Y14302
X2680Y15680
T05
X2180Y2180
X28180Y2180
X31680Y19180
X2180Y19180
M30
