G75*
G70*
%OFA0B0*%
%FSLAX24Y24*%
%IPPOS*%
%LPD*%
%AMOC8*
5,1,8,0,0,1.08239X$1,22.5*
%
%ADD10C,0.1360*%
%ADD11C,0.0660*%
%ADD12C,0.0600*%
%ADD13OC8,0.0600*%
%ADD14OC8,0.0660*%
%ADD15C,0.0760*%
%ADD16C,0.0720*%
%ADD17C,0.0660*%
%ADD18R,0.0769X0.0769*%
%ADD19C,0.0769*%
D10*
X002180Y002180D03*
X025680Y002180D03*
X029180Y019180D03*
X002180Y019180D03*
D11*
X017680Y015480D02*
X017680Y014880D01*
X018680Y014880D02*
X018680Y015480D01*
X019680Y015480D02*
X019680Y014880D01*
X020680Y014880D02*
X020680Y015480D01*
X021680Y015480D02*
X021680Y014880D01*
X022680Y014880D02*
X022680Y015480D01*
X024880Y015680D02*
X025480Y015680D01*
X025480Y014680D02*
X024880Y014680D01*
X024880Y013680D02*
X025480Y013680D01*
X006480Y007180D02*
X005880Y007180D01*
X005880Y006180D02*
X006480Y006180D01*
X006480Y004680D02*
X005880Y004680D01*
X005880Y003680D02*
X006480Y003680D01*
D12*
X027680Y010680D03*
D13*
X028680Y010680D03*
X028680Y009680D03*
X027680Y009680D03*
X027680Y008680D03*
X028680Y008680D03*
X028680Y007680D03*
X027680Y007680D03*
X027680Y006680D03*
X028680Y006680D03*
X028680Y005680D03*
X027680Y005680D03*
X027680Y004680D03*
X028680Y004680D03*
X028680Y003680D03*
X027680Y003680D03*
D14*
X016680Y009680D03*
X014680Y009680D03*
X013680Y009680D03*
X012680Y009680D03*
X012680Y010680D03*
X013680Y010680D03*
X014680Y010680D03*
D15*
X017430Y002680D03*
X018430Y002680D03*
X019430Y002680D03*
X020430Y002680D03*
X021430Y002680D03*
X022430Y002680D03*
D16*
X022680Y006180D03*
X021680Y006180D03*
X023680Y006180D03*
X023680Y008180D03*
X022680Y008180D03*
X021680Y008180D03*
X021680Y010180D03*
X022680Y010180D03*
X023680Y010180D03*
X023680Y012180D03*
X022680Y012180D03*
X021680Y012180D03*
D17*
X025180Y011680D03*
X025180Y010680D03*
X025180Y009680D03*
X025180Y008680D03*
X025180Y007680D03*
D18*
X002680Y015680D03*
D19*
X002680Y014302D03*
X002680Y012924D03*
X002680Y011546D03*
X002680Y010168D03*
X002680Y008790D03*
M02*
