G75*
G70*
%OFA0B0*%
%FSLAX24Y24*%
%IPPOS*%
%LPD*%
%AMOC8*
5,1,8,0,0,1.08239X$1,22.5*
%
%ADD10C,0.0060*%
%ADD11C,0.0050*%
%ADD12C,0.0150*%
%ADD13C,0.0110*%
%ADD14C,0.0100*%
%ADD15C,0.0070*%
%ADD16C,0.0039*%
%ADD17C,0.0120*%
%ADD18R,0.0100X0.0200*%
%ADD19R,0.0050X0.0150*%
%ADD20R,0.0100X0.0100*%
%ADD21C,0.0080*%
%ADD22C,0.0059*%
D10*
X006130Y007530D02*
X007230Y007530D01*
X007247Y007532D01*
X007264Y007536D01*
X007280Y007543D01*
X007294Y007553D01*
X007307Y007566D01*
X007317Y007580D01*
X007324Y007596D01*
X007328Y007613D01*
X007330Y007630D01*
X007330Y008230D01*
X007328Y008247D01*
X007324Y008264D01*
X007317Y008280D01*
X007307Y008294D01*
X007294Y008307D01*
X007280Y008317D01*
X007264Y008324D01*
X007247Y008328D01*
X007230Y008330D01*
X006130Y008330D01*
X006113Y008328D01*
X006096Y008324D01*
X006080Y008317D01*
X006066Y008307D01*
X006053Y008294D01*
X006043Y008280D01*
X006036Y008264D01*
X006032Y008247D01*
X006030Y008230D01*
X006030Y007630D01*
X006032Y007613D01*
X006036Y007596D01*
X006043Y007580D01*
X006053Y007566D01*
X006066Y007553D01*
X006080Y007543D01*
X006096Y007536D01*
X006113Y007532D01*
X006130Y007530D01*
X006038Y010444D02*
X005802Y010444D01*
X005802Y010916D02*
X006038Y010916D01*
X001175Y011056D02*
X001175Y011226D01*
X000835Y011226D01*
X000835Y011056D01*
X000892Y010999D01*
X001119Y010999D01*
X001175Y011056D01*
X001005Y010775D02*
X001005Y010548D01*
X001005Y010407D02*
X001062Y010293D01*
X001062Y010237D01*
X001005Y010180D01*
X000892Y010180D01*
X000835Y010237D01*
X000835Y010350D01*
X000892Y010407D01*
X001005Y010407D02*
X001175Y010407D01*
X001175Y010180D01*
X001175Y010038D02*
X000948Y010038D01*
X000835Y009925D01*
X000948Y009812D01*
X001175Y009812D01*
X001119Y009338D02*
X000892Y009338D01*
X000835Y009281D01*
X000835Y009167D01*
X000892Y009111D01*
X001005Y009111D01*
X001005Y009224D01*
X001119Y009111D02*
X001175Y009167D01*
X001175Y009281D01*
X001119Y009338D01*
X001175Y008969D02*
X000835Y008969D01*
X000835Y008742D02*
X001175Y008742D01*
X001175Y008601D02*
X001175Y008431D01*
X001119Y008374D01*
X000892Y008374D01*
X000835Y008431D01*
X000835Y008601D01*
X001175Y008601D01*
X001175Y008969D02*
X000835Y008742D01*
X000892Y010662D02*
X001119Y010662D01*
X001175Y011367D02*
X000835Y011367D01*
X001175Y011594D01*
X000835Y011594D01*
X000892Y011736D02*
X001005Y011736D01*
X001005Y011849D01*
X000892Y011736D02*
X000835Y011792D01*
X000835Y011906D01*
X000892Y011963D01*
X001119Y011963D01*
X001175Y011906D01*
X001175Y011792D01*
X001119Y011736D01*
X001175Y012193D02*
X000948Y012193D01*
X000835Y012307D01*
X000948Y012420D01*
X001175Y012420D01*
X001175Y012618D02*
X001005Y012788D01*
X001005Y012562D01*
X000835Y012618D02*
X001175Y012618D01*
X001119Y012930D02*
X001175Y012987D01*
X001175Y013100D01*
X001119Y013157D01*
X001005Y013298D02*
X001005Y013525D01*
X000892Y013412D02*
X001119Y013412D01*
X000835Y013157D02*
X001062Y012930D01*
X001119Y012930D01*
X000835Y012930D02*
X000835Y013157D01*
X000892Y013812D02*
X001119Y013812D01*
X001175Y013868D01*
X001175Y014038D01*
X000835Y014038D01*
X000835Y013868D01*
X000892Y013812D01*
X000835Y014180D02*
X001175Y014180D01*
X001175Y014407D02*
X000835Y014407D01*
X000892Y014548D02*
X001005Y014548D01*
X001005Y014662D01*
X000892Y014775D02*
X000835Y014718D01*
X000835Y014605D01*
X000892Y014548D01*
X001119Y014548D02*
X001175Y014605D01*
X001175Y014718D01*
X001119Y014775D01*
X000892Y014775D01*
X000948Y015131D02*
X001175Y015131D01*
X001175Y015358D02*
X000948Y015358D01*
X000835Y015244D01*
X000948Y015131D01*
X000892Y015499D02*
X000835Y015556D01*
X000835Y015669D01*
X000892Y015726D01*
X001119Y015499D01*
X000892Y015499D01*
X001119Y015499D02*
X001175Y015556D01*
X001175Y015669D01*
X001119Y015726D01*
X000892Y015726D01*
X000892Y015867D02*
X000948Y015867D01*
X001005Y015924D01*
X001005Y016094D01*
X000892Y016094D01*
X000835Y016037D01*
X000835Y015924D01*
X000892Y015867D01*
X001005Y016094D02*
X001119Y015981D01*
X001175Y015867D01*
X001005Y016236D02*
X001005Y016463D01*
X000892Y016349D02*
X001119Y016349D01*
X001175Y014407D02*
X000835Y014180D01*
X005562Y016694D02*
X005798Y016694D01*
X005798Y017166D02*
X005562Y017166D01*
X014680Y010930D02*
X014930Y011180D01*
X015430Y011180D01*
X015680Y010930D01*
X015680Y009430D01*
X015430Y009180D01*
X014930Y009180D01*
X014680Y009430D01*
X014680Y010930D01*
X015680Y010930D02*
X015930Y011180D01*
X016430Y011180D01*
X016680Y010930D01*
X016680Y009430D01*
X016430Y009180D01*
X015930Y009180D01*
X015680Y009430D01*
X016680Y009430D02*
X016930Y009180D01*
X017430Y009180D01*
X017680Y009430D01*
X017680Y010930D01*
X017430Y011180D01*
X016930Y011180D01*
X016680Y010930D01*
X017710Y011210D02*
X017937Y011210D01*
X017823Y011210D02*
X017823Y011550D01*
X017710Y011437D01*
X018930Y010180D02*
X018680Y009930D01*
X018680Y009430D01*
X018930Y009180D01*
X019430Y009180D01*
X019680Y009430D01*
X019680Y009930D01*
X019430Y010180D01*
X018930Y010180D01*
X017800Y007560D02*
X020560Y007560D01*
X020560Y004940D01*
X020420Y004800D01*
X017800Y004800D01*
X017800Y007560D01*
X016400Y007625D02*
X011950Y007625D01*
X011950Y004725D01*
X016400Y004725D01*
X016400Y007625D01*
X020119Y005100D02*
X020121Y005123D01*
X020127Y005146D01*
X020136Y005167D01*
X020149Y005187D01*
X020165Y005204D01*
X020183Y005218D01*
X020203Y005229D01*
X020225Y005237D01*
X020248Y005241D01*
X020272Y005241D01*
X020295Y005237D01*
X020317Y005229D01*
X020337Y005218D01*
X020355Y005204D01*
X020371Y005187D01*
X020384Y005167D01*
X020393Y005146D01*
X020399Y005123D01*
X020401Y005100D01*
X020399Y005077D01*
X020393Y005054D01*
X020384Y005033D01*
X020371Y005013D01*
X020355Y004996D01*
X020337Y004982D01*
X020317Y004971D01*
X020295Y004963D01*
X020272Y004959D01*
X020248Y004959D01*
X020225Y004963D01*
X020203Y004971D01*
X020183Y004982D01*
X020165Y004996D01*
X020149Y005013D01*
X020136Y005033D01*
X020127Y005054D01*
X020121Y005077D01*
X020119Y005100D01*
X020180Y003180D02*
X019680Y003180D01*
X019430Y002930D01*
X019430Y002430D01*
X019680Y002180D01*
X020180Y002180D01*
X020430Y002430D01*
X020680Y002180D01*
X021180Y002180D01*
X021430Y002430D01*
X021680Y002180D01*
X022180Y002180D01*
X022430Y002430D01*
X022680Y002180D01*
X023180Y002180D01*
X023430Y002430D01*
X023680Y002180D01*
X024180Y002180D01*
X024430Y002430D01*
X024680Y002180D01*
X025180Y002180D01*
X025430Y002430D01*
X025430Y002930D01*
X025180Y003180D01*
X024680Y003180D01*
X024430Y002930D01*
X024180Y003180D01*
X023680Y003180D01*
X023430Y002930D01*
X023180Y003180D01*
X022680Y003180D01*
X022430Y002930D01*
X022180Y003180D01*
X021680Y003180D01*
X021430Y002930D01*
X021180Y003180D01*
X020680Y003180D01*
X020430Y002930D01*
X020180Y003180D01*
X023680Y005780D02*
X023780Y005680D01*
X024580Y005680D01*
X024680Y005780D01*
X024780Y005680D01*
X025580Y005680D01*
X025680Y005780D01*
X025780Y005680D01*
X026580Y005680D01*
X026680Y005780D01*
X026680Y006580D01*
X026580Y006680D01*
X025780Y006680D01*
X025680Y006580D01*
X025580Y006680D01*
X024780Y006680D01*
X024680Y006580D01*
X024580Y006680D01*
X023780Y006680D01*
X023680Y006580D01*
X023680Y005780D01*
X024085Y005369D02*
X024085Y005312D01*
X024142Y005255D01*
X024255Y005255D01*
X024312Y005198D01*
X024312Y005142D01*
X024255Y005085D01*
X024142Y005085D01*
X024085Y005142D01*
X024085Y005369D02*
X024142Y005425D01*
X024255Y005425D01*
X024312Y005369D01*
X024453Y005425D02*
X024623Y005425D01*
X024680Y005369D01*
X024680Y005255D01*
X024623Y005198D01*
X024453Y005198D01*
X024453Y005085D02*
X024453Y005425D01*
X024822Y005425D02*
X024935Y005425D01*
X024878Y005425D02*
X024878Y005085D01*
X024822Y005085D02*
X024935Y005085D01*
X025273Y005142D02*
X025329Y005085D01*
X025443Y005085D01*
X025499Y005142D01*
X025499Y005198D01*
X025443Y005255D01*
X025329Y005255D01*
X025273Y005312D01*
X025273Y005369D01*
X025329Y005425D01*
X025443Y005425D01*
X025499Y005369D01*
X025641Y005085D02*
X025868Y005425D01*
X026009Y005425D02*
X026179Y005425D01*
X026236Y005369D01*
X026236Y005142D01*
X026179Y005085D01*
X026009Y005085D01*
X026009Y005425D01*
X025780Y007680D02*
X026580Y007680D01*
X026680Y007780D01*
X026680Y008580D01*
X026580Y008680D01*
X025780Y008680D01*
X025680Y008580D01*
X025580Y008680D01*
X024780Y008680D01*
X024680Y008580D01*
X024580Y008680D01*
X023780Y008680D01*
X023680Y008580D01*
X023680Y007780D01*
X023780Y007680D01*
X024580Y007680D01*
X024680Y007780D01*
X024780Y007680D01*
X025580Y007680D01*
X025680Y007780D01*
X025780Y007680D01*
X025780Y009680D02*
X025680Y009780D01*
X025580Y009680D01*
X024780Y009680D01*
X024680Y009780D01*
X024580Y009680D01*
X023780Y009680D01*
X023680Y009780D01*
X023680Y010580D01*
X023780Y010680D01*
X024580Y010680D01*
X024680Y010580D01*
X024780Y010680D01*
X025580Y010680D01*
X025680Y010580D01*
X025780Y010680D01*
X026580Y010680D01*
X026680Y010580D01*
X026680Y009780D01*
X026580Y009680D01*
X025780Y009680D01*
X025780Y011680D02*
X026580Y011680D01*
X026680Y011780D01*
X026680Y012580D01*
X026580Y012680D01*
X025780Y012680D01*
X025680Y012580D01*
X025580Y012680D01*
X024780Y012680D01*
X024680Y012580D01*
X024580Y012680D01*
X023780Y012680D01*
X023680Y012580D01*
X023680Y011780D01*
X023780Y011680D01*
X024580Y011680D01*
X024680Y011780D01*
X024780Y011680D01*
X025580Y011680D01*
X025680Y011780D01*
X025780Y011680D01*
X029040Y011180D02*
X029310Y011180D01*
X029310Y011830D01*
X029310Y012180D01*
X029830Y012180D01*
X030430Y012180D01*
X030930Y012180D01*
X031530Y012180D01*
X032060Y012180D01*
X032060Y011830D01*
X032060Y011180D01*
X032060Y003180D01*
X032060Y002530D01*
X032060Y002190D01*
X031530Y002190D01*
X030930Y002190D01*
X030430Y002190D01*
X029830Y002190D01*
X029830Y002530D01*
X029310Y002530D01*
X029310Y002190D01*
X029830Y002190D01*
X029310Y002530D02*
X029310Y003180D01*
X029040Y003180D01*
X029040Y011180D01*
X029430Y010680D02*
X029530Y010680D01*
X029430Y010680D02*
X029760Y010850D01*
X029760Y010510D01*
X029430Y010680D01*
X029960Y011288D02*
X030500Y011288D01*
X030500Y011108D02*
X030500Y011468D01*
X030140Y011108D02*
X029960Y011288D01*
X031005Y012405D02*
X032105Y012405D01*
X032122Y012407D01*
X032139Y012411D01*
X032155Y012418D01*
X032169Y012428D01*
X032182Y012441D01*
X032192Y012455D01*
X032199Y012471D01*
X032203Y012488D01*
X032205Y012505D01*
X032205Y013105D01*
X032203Y013122D01*
X032199Y013139D01*
X032192Y013155D01*
X032182Y013169D01*
X032169Y013182D01*
X032155Y013192D01*
X032139Y013199D01*
X032122Y013203D01*
X032105Y013205D01*
X031005Y013205D01*
X030988Y013203D01*
X030971Y013199D01*
X030955Y013192D01*
X030941Y013182D01*
X030928Y013169D01*
X030918Y013155D01*
X030911Y013139D01*
X030907Y013122D01*
X030905Y013105D01*
X030905Y012505D01*
X030907Y012488D01*
X030911Y012471D01*
X030918Y012455D01*
X030928Y012441D01*
X030941Y012428D01*
X030955Y012418D01*
X030971Y012411D01*
X030988Y012407D01*
X031005Y012405D01*
X012130Y005085D02*
X012132Y005114D01*
X012138Y005142D01*
X012147Y005169D01*
X012161Y005194D01*
X012177Y005218D01*
X012197Y005238D01*
X012219Y005257D01*
X012243Y005271D01*
X012270Y005283D01*
X012297Y005291D01*
X012326Y005295D01*
X012354Y005295D01*
X012383Y005291D01*
X012410Y005283D01*
X012437Y005271D01*
X012461Y005257D01*
X012483Y005238D01*
X012503Y005218D01*
X012519Y005194D01*
X012533Y005169D01*
X012542Y005142D01*
X012548Y005114D01*
X012550Y005085D01*
X012548Y005056D01*
X012542Y005028D01*
X012533Y005001D01*
X012519Y004976D01*
X012503Y004952D01*
X012483Y004932D01*
X012461Y004913D01*
X012437Y004899D01*
X012410Y004887D01*
X012383Y004879D01*
X012354Y004875D01*
X012326Y004875D01*
X012297Y004879D01*
X012270Y004887D01*
X012243Y004899D01*
X012219Y004913D01*
X012197Y004932D01*
X012177Y004952D01*
X012161Y004976D01*
X012147Y005001D01*
X012138Y005028D01*
X012132Y005056D01*
X012130Y005085D01*
D11*
X009360Y003370D02*
X009360Y001990D01*
X007000Y001990D01*
X007000Y003370D01*
X009360Y003370D01*
X008786Y003455D02*
X008741Y003500D01*
X008741Y003680D01*
X008696Y003635D02*
X008786Y003635D01*
X008582Y003590D02*
X008537Y003635D01*
X008446Y003635D01*
X008401Y003590D01*
X008401Y003500D01*
X008446Y003455D01*
X008537Y003455D01*
X008582Y003545D02*
X008401Y003545D01*
X008287Y003500D02*
X008242Y003545D01*
X008152Y003545D01*
X008107Y003590D01*
X008152Y003635D01*
X008287Y003635D01*
X008287Y003500D02*
X008242Y003455D01*
X008107Y003455D01*
X007992Y003545D02*
X007812Y003545D01*
X007812Y003500D02*
X007812Y003590D01*
X007857Y003635D01*
X007947Y003635D01*
X007992Y003590D01*
X007992Y003545D01*
X007947Y003455D02*
X007857Y003455D01*
X007812Y003500D01*
X007698Y003455D02*
X007608Y003545D01*
X007653Y003545D02*
X007518Y003545D01*
X007518Y003455D02*
X007518Y003725D01*
X007653Y003725D01*
X007698Y003680D01*
X007698Y003590D01*
X007653Y003545D01*
X007590Y002980D02*
X008770Y002980D01*
X008770Y002380D01*
X007590Y002380D01*
X007590Y002980D01*
X008582Y003545D02*
X008582Y003590D01*
X008452Y001788D02*
X008362Y001788D01*
X008317Y001743D01*
X008317Y001563D01*
X008362Y001518D01*
X008452Y001518D01*
X008497Y001563D01*
X008611Y001563D02*
X008656Y001518D01*
X008746Y001518D01*
X008792Y001563D01*
X008792Y001653D01*
X008746Y001698D01*
X008656Y001698D01*
X008611Y001653D01*
X008611Y001563D01*
X008497Y001743D02*
X008452Y001788D01*
X007908Y001653D02*
X007863Y001698D01*
X007772Y001698D01*
X007727Y001653D01*
X007727Y001563D01*
X007772Y001518D01*
X007863Y001518D01*
X007908Y001563D01*
X007908Y001653D01*
X007613Y001698D02*
X007523Y001518D01*
X007433Y001698D01*
X007322Y001698D02*
X007277Y001698D01*
X007187Y001608D01*
X007187Y001518D02*
X007187Y001698D01*
X007073Y001653D02*
X007073Y001608D01*
X006893Y001608D01*
X006893Y001653D02*
X006938Y001698D01*
X007028Y001698D01*
X007073Y001653D01*
X007028Y001518D02*
X006938Y001518D01*
X006893Y001563D01*
X006893Y001653D01*
X006778Y001608D02*
X006778Y001563D01*
X006733Y001518D01*
X006643Y001518D01*
X006598Y001563D01*
X006643Y001653D02*
X006733Y001653D01*
X006778Y001608D01*
X006778Y001743D02*
X006733Y001788D01*
X006643Y001788D01*
X006598Y001743D01*
X006598Y001698D01*
X006643Y001653D01*
X006189Y001743D02*
X006009Y001563D01*
X006054Y001518D01*
X006144Y001518D01*
X006189Y001563D01*
X006189Y001743D01*
X006144Y001788D01*
X006054Y001788D01*
X006009Y001743D01*
X006009Y001563D01*
X005894Y001518D02*
X005714Y001518D01*
X005894Y001698D01*
X005894Y001743D01*
X005849Y001788D01*
X005759Y001788D01*
X005714Y001743D01*
X005599Y001743D02*
X005419Y001563D01*
X005464Y001518D01*
X005554Y001518D01*
X005599Y001563D01*
X005599Y001743D01*
X005554Y001788D01*
X005464Y001788D01*
X005419Y001743D01*
X005419Y001563D01*
X005305Y001518D02*
X005125Y001518D01*
X005305Y001698D01*
X005305Y001743D01*
X005260Y001788D01*
X005170Y001788D01*
X005125Y001743D01*
X005010Y001743D02*
X005010Y001653D01*
X004965Y001608D01*
X004830Y001608D01*
X004920Y001608D02*
X005010Y001518D01*
X004830Y001518D02*
X004830Y001788D01*
X004965Y001788D01*
X005010Y001743D01*
X005455Y001225D02*
X005455Y000955D01*
X005635Y000955D01*
X005750Y001000D02*
X005795Y000955D01*
X005930Y000955D01*
X005930Y001135D01*
X006044Y001045D02*
X006179Y001135D01*
X006290Y001090D02*
X006335Y001135D01*
X006425Y001135D01*
X006470Y001090D01*
X006470Y001045D01*
X006290Y001045D01*
X006290Y001000D02*
X006290Y001090D01*
X006290Y001000D02*
X006335Y000955D01*
X006425Y000955D01*
X006179Y000955D02*
X006044Y001045D01*
X006044Y000955D02*
X006044Y001225D01*
X005750Y001135D02*
X005750Y001000D01*
X006879Y000955D02*
X006969Y001045D01*
X007059Y000955D01*
X007059Y001225D01*
X007174Y001090D02*
X007174Y001000D01*
X007219Y000955D01*
X007309Y000955D01*
X007354Y001045D02*
X007174Y001045D01*
X007174Y001090D02*
X007219Y001135D01*
X007309Y001135D01*
X007354Y001090D01*
X007354Y001045D01*
X007468Y001090D02*
X007513Y001135D01*
X007649Y001135D01*
X007604Y001045D02*
X007513Y001045D01*
X007468Y001090D01*
X007468Y000955D02*
X007604Y000955D01*
X007649Y001000D01*
X007604Y001045D01*
X007763Y001135D02*
X007853Y001135D01*
X007808Y001180D02*
X007808Y001000D01*
X007853Y000955D01*
X007960Y001000D02*
X008005Y000955D01*
X008095Y000955D01*
X008140Y001000D01*
X008140Y001090D01*
X008095Y001135D01*
X008005Y001135D01*
X007960Y001090D01*
X007960Y001000D01*
X008254Y000955D02*
X008254Y001135D01*
X008389Y001135D01*
X008434Y001090D01*
X008434Y000955D01*
X008549Y000865D02*
X008639Y000955D01*
X008594Y000955D01*
X008594Y001000D01*
X008639Y001000D01*
X008639Y000955D01*
X009040Y000955D02*
X009220Y001135D01*
X009220Y001180D01*
X009175Y001225D01*
X009085Y001225D01*
X009040Y001180D01*
X009040Y000955D02*
X009220Y000955D01*
X009335Y001000D02*
X009515Y001180D01*
X009515Y001000D01*
X009470Y000955D01*
X009380Y000955D01*
X009335Y001000D01*
X009335Y001180D01*
X009380Y001225D01*
X009470Y001225D01*
X009515Y001180D01*
X009629Y001135D02*
X009719Y001225D01*
X009719Y000955D01*
X009629Y000955D02*
X009809Y000955D01*
X009924Y001000D02*
X009969Y000955D01*
X010059Y000955D01*
X010104Y001000D01*
X010104Y001045D01*
X010059Y001090D01*
X010014Y001090D01*
X010059Y001090D02*
X010104Y001135D01*
X010104Y001180D01*
X010059Y001225D01*
X009969Y001225D01*
X009924Y001180D01*
X009937Y001518D02*
X010027Y001518D01*
X009982Y001518D02*
X009982Y001788D01*
X009937Y001788D01*
X009823Y001653D02*
X009778Y001698D01*
X009688Y001698D01*
X009643Y001653D01*
X009643Y001563D01*
X009688Y001518D01*
X009778Y001518D01*
X009823Y001563D01*
X009823Y001653D01*
X009532Y001698D02*
X009487Y001698D01*
X009397Y001608D01*
X009397Y001518D02*
X009397Y001698D01*
X009291Y001698D02*
X009201Y001698D01*
X009246Y001743D02*
X009246Y001563D01*
X009291Y001518D01*
X009086Y001518D02*
X009086Y001653D01*
X009041Y001698D01*
X008906Y001698D01*
X008906Y001518D01*
X010134Y001518D02*
X010224Y001518D01*
X010179Y001518D02*
X010179Y001788D01*
X010134Y001788D01*
X010330Y001653D02*
X010375Y001698D01*
X010465Y001698D01*
X010510Y001653D01*
X010510Y001608D01*
X010330Y001608D01*
X010330Y001563D02*
X010330Y001653D01*
X010330Y001563D02*
X010375Y001518D01*
X010465Y001518D01*
X010625Y001518D02*
X010625Y001698D01*
X010715Y001698D02*
X010760Y001698D01*
X010715Y001698D02*
X010625Y001608D01*
X006879Y001225D02*
X006879Y000955D01*
X004439Y005080D02*
X004259Y005080D01*
X004259Y005350D01*
X003849Y005350D02*
X003849Y005080D01*
X003669Y005350D01*
X003669Y005080D01*
X003555Y005080D02*
X003555Y005260D01*
X003465Y005350D01*
X003375Y005260D01*
X003375Y005080D01*
X003260Y005125D02*
X003215Y005080D01*
X003125Y005080D01*
X003080Y005125D01*
X003080Y005305D01*
X003125Y005350D01*
X003215Y005350D01*
X003260Y005305D01*
X003375Y005215D02*
X003555Y005215D01*
X003555Y007018D02*
X003555Y007198D01*
X003465Y007288D01*
X003375Y007198D01*
X003375Y007018D01*
X003260Y007063D02*
X003215Y007018D01*
X003125Y007018D01*
X003080Y007063D01*
X003080Y007243D01*
X003125Y007288D01*
X003215Y007288D01*
X003260Y007243D01*
X003375Y007153D02*
X003555Y007153D01*
X003669Y007018D02*
X003669Y007288D01*
X003849Y007018D01*
X003849Y007288D01*
X004259Y007288D02*
X004259Y007018D01*
X004259Y007153D02*
X004439Y007153D01*
X004439Y007288D02*
X004439Y007018D01*
X006295Y008455D02*
X006295Y008725D01*
X006205Y008725D02*
X006385Y008725D01*
X006375Y008830D02*
X006465Y008830D01*
X006510Y008875D01*
X006625Y008830D02*
X006625Y009010D01*
X006715Y009100D01*
X006805Y009010D01*
X006805Y008830D01*
X006794Y008725D02*
X006929Y008725D01*
X006974Y008680D01*
X006974Y008590D01*
X006929Y008545D01*
X006794Y008545D01*
X006794Y008455D02*
X006794Y008725D01*
X006680Y008725D02*
X006500Y008725D01*
X006500Y008455D01*
X006680Y008455D01*
X006590Y008590D02*
X006500Y008590D01*
X006375Y008830D02*
X006330Y008875D01*
X006330Y009055D01*
X006375Y009100D01*
X006465Y009100D01*
X006510Y009055D01*
X006625Y008965D02*
X006805Y008965D01*
X006919Y008830D02*
X006919Y009100D01*
X007099Y008830D01*
X007099Y009100D01*
X007089Y008725D02*
X007179Y008635D01*
X007269Y008725D01*
X007269Y008455D01*
X007089Y008455D02*
X007089Y008725D01*
X006884Y008545D02*
X006974Y008455D01*
X016893Y011330D02*
X016983Y011330D01*
X016938Y011330D02*
X016938Y011600D01*
X016893Y011600D02*
X016983Y011600D01*
X017089Y011555D02*
X017089Y011510D01*
X017134Y011465D01*
X017224Y011465D01*
X017269Y011420D01*
X017269Y011375D01*
X017224Y011330D01*
X017134Y011330D01*
X017089Y011375D01*
X017089Y011555D02*
X017134Y011600D01*
X017224Y011600D01*
X017269Y011555D01*
X017384Y011600D02*
X017519Y011600D01*
X017564Y011555D01*
X017564Y011465D01*
X017519Y011420D01*
X017384Y011420D01*
X017384Y011330D02*
X017384Y011600D01*
X018830Y010538D02*
X018965Y010538D01*
X019010Y010493D01*
X019010Y010403D01*
X018965Y010358D01*
X018830Y010358D01*
X018830Y010268D02*
X018830Y010538D01*
X019125Y010493D02*
X019125Y010313D01*
X019170Y010268D01*
X019260Y010268D01*
X019305Y010313D01*
X019419Y010313D02*
X019419Y010268D01*
X019419Y010313D02*
X019599Y010493D01*
X019599Y010538D01*
X019419Y010538D01*
X019305Y010493D02*
X019260Y010538D01*
X019170Y010538D01*
X019125Y010493D01*
X019393Y010768D02*
X019393Y011038D01*
X019528Y011038D01*
X019573Y010993D01*
X019573Y010903D01*
X019528Y010858D01*
X019393Y010858D01*
X019687Y010768D02*
X019687Y011038D01*
X019822Y011038D01*
X019867Y010993D01*
X019867Y010813D01*
X019822Y010768D01*
X019687Y010768D01*
X019982Y010813D02*
X019982Y010903D01*
X020117Y010903D01*
X020162Y010858D01*
X020162Y010813D01*
X020117Y010768D01*
X020027Y010768D01*
X019982Y010813D01*
X019982Y010903D02*
X020072Y010993D01*
X020162Y011038D01*
X021518Y011038D02*
X021518Y010768D01*
X021518Y010858D02*
X021653Y010858D01*
X021698Y010903D01*
X021698Y010993D01*
X021653Y011038D01*
X021518Y011038D01*
X021812Y011038D02*
X021812Y010768D01*
X021947Y010768D01*
X021992Y010813D01*
X021992Y010993D01*
X021947Y011038D01*
X021812Y011038D01*
X022107Y011038D02*
X022107Y010903D01*
X022197Y010948D01*
X022242Y010948D01*
X022287Y010903D01*
X022287Y010813D01*
X022242Y010768D01*
X022152Y010768D01*
X022107Y010813D01*
X022107Y011038D02*
X022287Y011038D01*
X023705Y011055D02*
X023705Y011010D01*
X023750Y010965D01*
X023840Y010965D01*
X023885Y010920D01*
X023885Y010875D01*
X023840Y010830D01*
X023750Y010830D01*
X023705Y010875D01*
X023705Y011055D02*
X023750Y011100D01*
X023840Y011100D01*
X023885Y011055D01*
X024000Y011055D02*
X024000Y010875D01*
X024045Y010830D01*
X024135Y010830D01*
X024180Y010875D01*
X024294Y010830D02*
X024294Y011100D01*
X024180Y011055D02*
X024135Y011100D01*
X024045Y011100D01*
X024000Y011055D01*
X024294Y010920D02*
X024474Y011100D01*
X024339Y010965D02*
X024474Y010830D01*
X025893Y010875D02*
X025938Y010830D01*
X026028Y010830D01*
X026073Y010875D01*
X026073Y010920D01*
X026028Y010965D01*
X025938Y010965D01*
X025893Y011010D01*
X025893Y011055D01*
X025938Y011100D01*
X026028Y011100D01*
X026073Y011055D01*
X026187Y011100D02*
X026367Y011100D01*
X026277Y011100D02*
X026277Y010830D01*
X026482Y010830D02*
X026482Y011100D01*
X026617Y011100D01*
X026662Y011055D01*
X026662Y010965D01*
X026617Y010920D01*
X026482Y010920D01*
X028393Y010850D02*
X028393Y010580D01*
X028528Y010580D01*
X028573Y010625D01*
X028573Y010670D01*
X028528Y010715D01*
X028393Y010715D01*
X028528Y010715D02*
X028573Y010760D01*
X028573Y010805D01*
X028528Y010850D01*
X028393Y010850D01*
X028393Y011580D02*
X028483Y011580D01*
X028438Y011580D02*
X028438Y011850D01*
X028393Y011850D02*
X028483Y011850D01*
X029393Y012330D02*
X029393Y012600D01*
X029528Y012600D01*
X029573Y012555D01*
X029573Y012465D01*
X029528Y012420D01*
X029393Y012420D01*
X029483Y012420D02*
X029573Y012330D01*
X029687Y012330D02*
X029867Y012510D01*
X029867Y012555D01*
X029822Y012600D01*
X029732Y012600D01*
X029687Y012555D01*
X029687Y012330D02*
X029867Y012330D01*
X029982Y012375D02*
X030162Y012555D01*
X030162Y012375D01*
X030117Y012330D01*
X030027Y012330D01*
X029982Y012375D01*
X029982Y012555D01*
X030027Y012600D01*
X030117Y012600D01*
X030162Y012555D01*
X030276Y012555D02*
X030321Y012600D01*
X030412Y012600D01*
X030457Y012555D01*
X030457Y012510D01*
X030276Y012330D01*
X030457Y012330D01*
X030571Y012375D02*
X030751Y012555D01*
X030751Y012375D01*
X030706Y012330D01*
X030616Y012330D01*
X030571Y012375D01*
X030571Y012555D01*
X030616Y012600D01*
X030706Y012600D01*
X030751Y012555D01*
X029680Y013530D02*
X029680Y015680D01*
X026921Y015653D02*
X026741Y015653D01*
X026626Y015653D02*
X026536Y015653D01*
X026626Y015653D02*
X026626Y015563D01*
X026581Y015518D01*
X026491Y015518D01*
X026446Y015563D01*
X026446Y015743D01*
X026491Y015788D01*
X026581Y015788D01*
X026626Y015743D01*
X026741Y015788D02*
X026741Y015518D01*
X026921Y015518D02*
X026921Y015788D01*
X026340Y015788D02*
X026250Y015788D01*
X026295Y015788D02*
X026295Y015518D01*
X026250Y015518D02*
X026340Y015518D01*
X026135Y015518D02*
X026135Y015788D01*
X026135Y015653D02*
X025955Y015653D01*
X025955Y015518D02*
X025955Y015788D01*
X026580Y014850D02*
X026670Y014850D01*
X026625Y014850D02*
X026625Y014580D01*
X026580Y014580D02*
X026670Y014580D01*
X026776Y014580D02*
X026776Y014850D01*
X026957Y014580D01*
X026957Y014850D01*
X025599Y014350D02*
X025599Y014080D01*
X025419Y014080D02*
X025419Y014350D01*
X025509Y014260D01*
X025599Y014350D01*
X025305Y014350D02*
X025305Y014080D01*
X025215Y014170D01*
X025125Y014080D01*
X025125Y014350D01*
X025010Y014305D02*
X025010Y014215D01*
X024965Y014170D01*
X024830Y014170D01*
X024830Y014080D02*
X024830Y014350D01*
X024965Y014350D01*
X025010Y014305D01*
X024662Y014350D02*
X024482Y014170D01*
X024527Y014215D02*
X024662Y014080D01*
X024482Y014080D02*
X024482Y014350D01*
X024367Y014305D02*
X024322Y014350D01*
X024232Y014350D01*
X024187Y014305D01*
X024187Y014125D01*
X024232Y014080D01*
X024322Y014080D01*
X024367Y014125D01*
X024073Y014125D02*
X024028Y014080D01*
X023938Y014080D01*
X023893Y014125D01*
X023938Y014215D02*
X024028Y014215D01*
X024073Y014170D01*
X024073Y014125D01*
X023938Y014215D02*
X023893Y014260D01*
X023893Y014305D01*
X023938Y014350D01*
X024028Y014350D01*
X024073Y014305D01*
X023671Y014305D02*
X023626Y014350D01*
X023536Y014350D01*
X023491Y014305D01*
X023491Y014125D01*
X023536Y014080D01*
X023626Y014080D01*
X023671Y014125D01*
X023671Y014305D01*
X023376Y014305D02*
X023331Y014350D01*
X023241Y014350D01*
X023196Y014305D01*
X023196Y014260D01*
X023241Y014215D01*
X023331Y014215D01*
X023376Y014170D01*
X023376Y014125D01*
X023331Y014080D01*
X023241Y014080D01*
X023196Y014125D01*
X023090Y014080D02*
X023000Y014080D01*
X023045Y014080D02*
X023045Y014350D01*
X023000Y014350D02*
X023090Y014350D01*
X022885Y014350D02*
X022795Y014260D01*
X022705Y014350D01*
X022705Y014080D01*
X022885Y014080D02*
X022885Y014350D01*
X022519Y014450D02*
X021930Y014450D01*
X022000Y014350D02*
X021955Y014305D01*
X021955Y014125D01*
X022000Y014080D01*
X022090Y014080D01*
X022135Y014125D01*
X022250Y014125D02*
X022295Y014080D01*
X022385Y014080D01*
X022430Y014125D01*
X022430Y014170D01*
X022385Y014215D01*
X022295Y014215D01*
X022250Y014260D01*
X022250Y014305D01*
X022295Y014350D01*
X022385Y014350D01*
X022430Y014305D01*
X022135Y014305D02*
X022090Y014350D01*
X022000Y014350D01*
X021599Y014305D02*
X021554Y014350D01*
X021419Y014350D01*
X021419Y014080D01*
X021554Y014080D01*
X021599Y014125D01*
X021599Y014305D01*
X021305Y014350D02*
X021305Y014080D01*
X021125Y014350D01*
X021125Y014080D01*
X021010Y014125D02*
X021010Y014215D01*
X020920Y014215D01*
X020830Y014125D02*
X020875Y014080D01*
X020965Y014080D01*
X021010Y014125D01*
X020830Y014125D02*
X020830Y014305D01*
X020875Y014350D01*
X020965Y014350D01*
X021010Y014305D01*
X020474Y014350D02*
X020474Y014170D01*
X020384Y014080D01*
X020294Y014170D01*
X020294Y014350D01*
X020180Y014350D02*
X020000Y014350D01*
X020000Y014215D01*
X020090Y014260D01*
X020135Y014260D01*
X020180Y014215D01*
X020180Y014125D01*
X020135Y014080D01*
X020045Y014080D01*
X020000Y014125D01*
X019885Y014215D02*
X019705Y014215D01*
X019795Y014305D02*
X019795Y014125D01*
X023930Y013200D02*
X024519Y013200D01*
X024385Y013100D02*
X024295Y013100D01*
X024250Y013055D01*
X024250Y013010D01*
X024295Y012965D01*
X024385Y012965D01*
X024430Y012920D01*
X024430Y012875D01*
X024385Y012830D01*
X024295Y012830D01*
X024250Y012875D01*
X024135Y012875D02*
X024090Y012830D01*
X024000Y012830D01*
X023955Y012875D01*
X023955Y013055D01*
X024000Y013100D01*
X024090Y013100D01*
X024135Y013055D01*
X024385Y013100D02*
X024430Y013055D01*
X025768Y012965D02*
X025948Y012965D01*
X026062Y012965D02*
X026152Y013010D01*
X026197Y013010D01*
X026242Y012965D01*
X026242Y012875D01*
X026197Y012830D01*
X026107Y012830D01*
X026062Y012875D01*
X026062Y012965D02*
X026062Y013100D01*
X026242Y013100D01*
X026357Y013100D02*
X026357Y012920D01*
X026447Y012830D01*
X026537Y012920D01*
X026537Y013100D01*
X026545Y013518D02*
X026635Y013518D01*
X026680Y013563D01*
X026680Y013743D01*
X026635Y013788D01*
X026545Y013788D01*
X026500Y013743D01*
X026500Y013563D01*
X026545Y013518D01*
X026385Y013518D02*
X026205Y013518D01*
X026205Y013788D01*
X026794Y013788D02*
X026794Y013518D01*
X026884Y013608D01*
X026974Y013518D01*
X026974Y013788D01*
X025858Y013055D02*
X025858Y012875D01*
X028483Y009850D02*
X028573Y009760D01*
X028573Y009580D01*
X028573Y009715D02*
X028393Y009715D01*
X028393Y009760D02*
X028483Y009850D01*
X028393Y009760D02*
X028393Y009580D01*
X028393Y008850D02*
X028528Y008850D01*
X028573Y008805D01*
X028573Y008625D01*
X028528Y008580D01*
X028393Y008580D01*
X028393Y008850D01*
X028393Y007850D02*
X028393Y007625D01*
X028438Y007580D01*
X028528Y007580D01*
X028573Y007625D01*
X028573Y007850D01*
X026564Y008830D02*
X026474Y008920D01*
X026519Y008920D02*
X026384Y008920D01*
X026384Y008830D02*
X026384Y009100D01*
X026519Y009100D01*
X026564Y009055D01*
X026564Y008965D01*
X026519Y008920D01*
X026277Y008830D02*
X026187Y008830D01*
X026232Y008830D02*
X026232Y009100D01*
X026187Y009100D02*
X026277Y009100D01*
X026073Y009055D02*
X026028Y009100D01*
X025893Y009100D01*
X025893Y008830D01*
X026028Y008830D01*
X026073Y008875D01*
X026073Y009055D01*
X024492Y009100D02*
X024401Y009100D01*
X024446Y009100D02*
X024446Y008830D01*
X024401Y008830D02*
X024492Y008830D01*
X024287Y008875D02*
X024242Y008830D01*
X024152Y008830D01*
X024107Y008875D01*
X024152Y008965D02*
X024242Y008965D01*
X024287Y008920D01*
X024287Y008875D01*
X024152Y008965D02*
X024107Y009010D01*
X024107Y009055D01*
X024152Y009100D01*
X024242Y009100D01*
X024287Y009055D01*
X023992Y009055D02*
X023992Y008875D01*
X023947Y008830D01*
X023857Y008830D01*
X023812Y008875D01*
X023812Y009055D01*
X023857Y009100D01*
X023947Y009100D01*
X023992Y009055D01*
X023698Y009100D02*
X023698Y008830D01*
X023518Y008830D02*
X023518Y009100D01*
X023608Y009010D01*
X023698Y009100D01*
X023698Y007100D02*
X023698Y006830D01*
X023812Y006830D02*
X023902Y006830D01*
X023857Y006830D02*
X023857Y007100D01*
X023812Y007100D02*
X023902Y007100D01*
X024009Y007055D02*
X024009Y007010D01*
X024054Y006965D01*
X024144Y006965D01*
X024189Y006920D01*
X024189Y006875D01*
X024144Y006830D01*
X024054Y006830D01*
X024009Y006875D01*
X024009Y007055D02*
X024054Y007100D01*
X024144Y007100D01*
X024189Y007055D01*
X024303Y007055D02*
X024303Y006875D01*
X024348Y006830D01*
X024438Y006830D01*
X024483Y006875D01*
X024483Y007055D01*
X024438Y007100D01*
X024348Y007100D01*
X024303Y007055D01*
X023698Y007100D02*
X023608Y007010D01*
X023518Y007100D01*
X023518Y006830D01*
X025251Y004958D02*
X025251Y004913D01*
X025251Y004823D02*
X025251Y004597D01*
X025205Y004552D01*
X025160Y004552D01*
X025357Y004688D02*
X025402Y004643D01*
X025537Y004643D01*
X025537Y004823D01*
X025652Y004823D02*
X025697Y004823D01*
X025742Y004778D01*
X025787Y004823D01*
X025832Y004778D01*
X025832Y004643D01*
X025742Y004643D02*
X025742Y004778D01*
X025652Y004823D02*
X025652Y004643D01*
X025714Y004583D02*
X025714Y004538D01*
X025714Y004448D02*
X025714Y004268D01*
X025669Y004268D02*
X025759Y004268D01*
X025866Y004313D02*
X025911Y004268D01*
X026046Y004268D01*
X026046Y004538D01*
X026046Y004448D02*
X025911Y004448D01*
X025866Y004403D01*
X025866Y004313D01*
X025714Y004448D02*
X025669Y004448D01*
X025555Y004448D02*
X025420Y004448D01*
X025375Y004403D01*
X025420Y004358D01*
X025510Y004358D01*
X025555Y004313D01*
X025510Y004268D01*
X025375Y004268D01*
X024966Y004358D02*
X024785Y004358D01*
X024785Y004403D02*
X024830Y004448D01*
X024921Y004448D01*
X024966Y004403D01*
X024966Y004358D01*
X024921Y004268D02*
X024830Y004268D01*
X024785Y004313D01*
X024785Y004403D01*
X024671Y004403D02*
X024671Y004268D01*
X024581Y004268D02*
X024581Y004403D01*
X024626Y004448D01*
X024671Y004403D01*
X024581Y004403D02*
X024536Y004448D01*
X024491Y004448D01*
X024491Y004268D01*
X024376Y004268D02*
X024376Y004403D01*
X024331Y004448D01*
X024241Y004448D01*
X024241Y004358D02*
X024376Y004358D01*
X024376Y004268D02*
X024241Y004268D01*
X024196Y004313D01*
X024241Y004358D01*
X024082Y004313D02*
X024037Y004358D01*
X023946Y004358D01*
X023901Y004403D01*
X023946Y004448D01*
X024082Y004448D01*
X024082Y004313D02*
X024037Y004268D01*
X023901Y004268D01*
X023492Y004268D02*
X023492Y004403D01*
X023447Y004448D01*
X023312Y004448D01*
X023312Y004268D01*
X023198Y004313D02*
X023153Y004268D01*
X023063Y004268D01*
X023018Y004313D01*
X023018Y004403D01*
X023063Y004448D01*
X023153Y004448D01*
X023198Y004403D01*
X023198Y004313D01*
X023135Y004643D02*
X023045Y004643D01*
X023000Y004688D01*
X023000Y004778D01*
X023045Y004823D01*
X023135Y004823D01*
X023180Y004778D01*
X023180Y004733D01*
X023000Y004733D01*
X022885Y004643D02*
X022750Y004778D01*
X022705Y004733D02*
X022885Y004913D01*
X022705Y004913D02*
X022705Y004643D01*
X023294Y004688D02*
X023294Y004778D01*
X023339Y004823D01*
X023429Y004823D01*
X023474Y004778D01*
X023474Y004733D01*
X023294Y004733D01*
X023294Y004688D02*
X023339Y004643D01*
X023429Y004643D01*
X023589Y004643D02*
X023724Y004643D01*
X023769Y004688D01*
X023769Y004778D01*
X023724Y004823D01*
X023589Y004823D01*
X023589Y004552D01*
X024178Y004688D02*
X024223Y004733D01*
X024358Y004733D01*
X024358Y004778D02*
X024358Y004643D01*
X024223Y004643D01*
X024178Y004688D01*
X024223Y004823D02*
X024313Y004823D01*
X024358Y004778D01*
X024473Y004913D02*
X024518Y004913D01*
X024518Y004643D01*
X024473Y004643D02*
X024563Y004643D01*
X024669Y004643D02*
X024759Y004643D01*
X024714Y004643D02*
X024714Y004913D01*
X024669Y004913D01*
X025357Y004823D02*
X025357Y004688D01*
X025946Y004643D02*
X026081Y004643D01*
X026126Y004688D01*
X026126Y004778D01*
X026081Y004823D01*
X025946Y004823D01*
X025946Y004552D01*
X026160Y004403D02*
X026205Y004448D01*
X026296Y004448D01*
X026341Y004403D01*
X026341Y004358D01*
X026160Y004358D01*
X026160Y004313D02*
X026160Y004403D01*
X026160Y004313D02*
X026205Y004268D01*
X026296Y004268D01*
X026286Y004643D02*
X026241Y004688D01*
X026241Y004778D01*
X026286Y004823D01*
X026376Y004823D01*
X026421Y004778D01*
X026421Y004733D01*
X026241Y004733D01*
X026286Y004643D02*
X026376Y004643D01*
X026535Y004643D02*
X026535Y004823D01*
X026535Y004733D02*
X026626Y004823D01*
X026671Y004823D01*
X026781Y004778D02*
X026826Y004823D01*
X026961Y004823D01*
X026916Y004733D02*
X026826Y004733D01*
X026781Y004778D01*
X026781Y004643D02*
X026916Y004643D01*
X026961Y004688D01*
X026916Y004733D01*
X028455Y004610D02*
X028500Y004655D01*
X028455Y004610D02*
X028455Y004520D01*
X028500Y004475D01*
X028590Y004475D01*
X028635Y004520D01*
X028635Y004565D01*
X028590Y004655D01*
X028725Y004655D01*
X028725Y004475D01*
X028725Y004360D02*
X028545Y004360D01*
X028455Y004270D01*
X028545Y004180D01*
X028725Y004180D01*
X028680Y004030D02*
X028500Y004030D01*
X028455Y003985D01*
X028455Y003895D01*
X028500Y003850D01*
X028680Y003850D01*
X028725Y003895D01*
X028725Y003985D01*
X028680Y004030D01*
X028635Y003735D02*
X028500Y003735D01*
X028455Y003690D01*
X028455Y003555D01*
X028635Y003555D01*
X028635Y003441D02*
X028635Y003351D01*
X028680Y003396D02*
X028500Y003396D01*
X028455Y003351D01*
X025608Y003760D02*
X025563Y003760D01*
X025473Y003670D01*
X025473Y003580D02*
X025473Y003760D01*
X025358Y003715D02*
X025358Y003625D01*
X025313Y003580D01*
X025223Y003580D01*
X025178Y003625D01*
X025178Y003715D01*
X025223Y003760D01*
X025313Y003760D01*
X025358Y003715D01*
X025068Y003760D02*
X025023Y003760D01*
X024933Y003670D01*
X024933Y003580D02*
X024933Y003760D01*
X024822Y003760D02*
X024777Y003760D01*
X024687Y003670D01*
X024687Y003580D02*
X024687Y003760D01*
X024573Y003850D02*
X024393Y003850D01*
X024393Y003580D01*
X024573Y003580D01*
X024483Y003715D02*
X024393Y003715D01*
X024563Y002038D02*
X024518Y001993D01*
X024518Y001813D01*
X024563Y001768D01*
X024653Y001768D01*
X024698Y001813D01*
X024698Y001903D01*
X024608Y001903D01*
X024698Y001993D02*
X024653Y002038D01*
X024563Y002038D01*
X024812Y002038D02*
X024992Y001768D01*
X024992Y002038D01*
X025107Y002038D02*
X025107Y001768D01*
X025242Y001768D01*
X025287Y001813D01*
X025287Y001993D01*
X025242Y002038D01*
X025107Y002038D01*
X024812Y002038D02*
X024812Y001768D01*
X024180Y001813D02*
X024135Y001768D01*
X024045Y001768D01*
X024000Y001813D01*
X024000Y001993D01*
X024045Y002038D01*
X024135Y002038D01*
X024180Y001993D01*
X023885Y002038D02*
X023885Y001768D01*
X023705Y002038D01*
X023705Y001768D01*
X023349Y001858D02*
X023349Y002038D01*
X023169Y002038D02*
X023169Y001858D01*
X023259Y001768D01*
X023349Y001858D01*
X023055Y001903D02*
X023055Y001813D01*
X023010Y001768D01*
X022920Y001768D01*
X022875Y001813D01*
X022875Y001903D02*
X022965Y001948D01*
X023010Y001948D01*
X023055Y001903D01*
X023055Y002038D02*
X022875Y002038D01*
X022875Y001903D01*
X022760Y001903D02*
X022580Y001903D01*
X022670Y001993D02*
X022670Y001813D01*
X022349Y001813D02*
X022349Y001993D01*
X022304Y002038D01*
X022169Y002038D01*
X022169Y001768D01*
X022304Y001768D01*
X022349Y001813D01*
X022055Y001768D02*
X021875Y002038D01*
X021760Y002038D02*
X021580Y002038D01*
X021670Y002038D02*
X021670Y001768D01*
X021875Y001768D02*
X022055Y002038D01*
X021349Y001993D02*
X021349Y001813D01*
X021304Y001768D01*
X021169Y001768D01*
X021169Y002038D01*
X021304Y002038D01*
X021349Y001993D01*
X021055Y002038D02*
X020875Y001768D01*
X020760Y001768D02*
X020670Y001858D01*
X020715Y001858D02*
X020580Y001858D01*
X020580Y001768D02*
X020580Y002038D01*
X020715Y002038D01*
X020760Y001993D01*
X020760Y001903D01*
X020715Y001858D01*
X020875Y002038D02*
X021055Y001768D01*
X020287Y001768D02*
X020197Y001858D01*
X020242Y001858D02*
X020107Y001858D01*
X020107Y001768D02*
X020107Y002038D01*
X020242Y002038D01*
X020287Y001993D01*
X020287Y001903D01*
X020242Y001858D01*
X019992Y002038D02*
X019812Y002038D01*
X019902Y002038D02*
X019902Y001768D01*
X019698Y001813D02*
X019698Y001993D01*
X019653Y002038D01*
X019518Y002038D01*
X019518Y001768D01*
X019653Y001768D01*
X019698Y001813D01*
X032330Y011984D02*
X032465Y012119D01*
X032420Y012164D02*
X032600Y011984D01*
X032705Y012019D02*
X032975Y012200D01*
X032975Y012314D02*
X032975Y012494D01*
X032705Y012494D01*
X032705Y012314D01*
X032600Y012323D02*
X032600Y012414D01*
X032555Y012459D01*
X032375Y012459D01*
X032330Y012414D01*
X032330Y012323D01*
X032375Y012278D01*
X032330Y012164D02*
X032600Y012164D01*
X032705Y012200D02*
X032975Y012019D01*
X032600Y012323D02*
X032555Y012278D01*
X032510Y012573D02*
X032330Y012573D01*
X032465Y012573D02*
X032465Y012753D01*
X032510Y012753D02*
X032330Y012753D01*
X032375Y012868D02*
X032330Y012913D01*
X032330Y013048D01*
X032600Y013048D01*
X032600Y012913D01*
X032555Y012868D01*
X032510Y012868D01*
X032465Y012913D01*
X032465Y013048D01*
X032465Y012913D02*
X032420Y012868D01*
X032375Y012868D01*
X032510Y012753D02*
X032600Y012663D01*
X032510Y012573D01*
X032705Y012654D02*
X032750Y012609D01*
X032930Y012609D01*
X032975Y012654D01*
X032975Y012789D01*
X032705Y012789D01*
X032705Y012654D01*
X032840Y012494D02*
X032840Y012404D01*
X032705Y012903D02*
X032975Y012903D01*
X032975Y013084D02*
X032705Y013084D01*
X032705Y013190D02*
X032705Y013280D01*
X032705Y013235D02*
X032975Y013235D01*
X032975Y013280D02*
X032975Y013190D01*
X032975Y013084D02*
X032705Y012903D01*
X032600Y013162D02*
X032600Y013343D01*
X032330Y013343D01*
X032465Y013343D02*
X032465Y013252D01*
X006394Y019448D02*
X006349Y019448D01*
X006259Y019358D01*
X006259Y019268D02*
X006259Y019448D01*
X006144Y019403D02*
X006099Y019448D01*
X006009Y019448D01*
X005964Y019403D01*
X005964Y019313D01*
X006009Y019268D01*
X006099Y019268D01*
X006144Y019358D02*
X005964Y019358D01*
X005849Y019313D02*
X005849Y019448D01*
X005849Y019313D02*
X005804Y019268D01*
X005759Y019313D01*
X005714Y019268D01*
X005669Y019313D01*
X005669Y019448D01*
X005555Y019403D02*
X005510Y019448D01*
X005420Y019448D01*
X005375Y019403D01*
X005375Y019313D01*
X005420Y019268D01*
X005510Y019268D01*
X005555Y019313D01*
X005555Y019403D01*
X005260Y019403D02*
X005260Y019493D01*
X005215Y019538D01*
X005080Y019538D01*
X005080Y019268D01*
X005080Y019358D02*
X005215Y019358D01*
X005260Y019403D01*
X006144Y019403D02*
X006144Y019358D01*
D12*
X024680Y012680D02*
X024680Y012238D01*
X024680Y011845D02*
X024680Y011403D01*
X024680Y011009D02*
X024680Y010567D01*
X024680Y010174D02*
X024680Y009732D01*
X024680Y009338D02*
X024680Y008897D01*
X024680Y008503D02*
X024680Y008061D01*
X024680Y007668D02*
X024680Y007226D01*
X024680Y006832D02*
X024680Y006390D01*
X024680Y005997D02*
X024680Y005555D01*
X025680Y005555D02*
X025680Y005997D01*
X025680Y006390D02*
X025680Y006832D01*
X025680Y007226D02*
X025680Y007668D01*
X025680Y008061D02*
X025680Y008503D01*
X025680Y008897D02*
X025680Y009338D01*
X025680Y009732D02*
X025680Y010174D01*
X025680Y010567D02*
X025680Y011009D01*
X025680Y011403D02*
X025680Y011845D01*
X025680Y012238D02*
X025680Y012680D01*
D13*
X020708Y004771D02*
X020610Y004771D01*
X020610Y004673D01*
X020708Y004673D01*
X020708Y004771D01*
X011771Y004771D02*
X011771Y004673D01*
X011673Y004673D01*
X011673Y004771D01*
X011771Y004771D01*
D14*
X011230Y004280D02*
X011130Y004280D01*
X011130Y004080D02*
X011230Y004080D01*
X011630Y002780D02*
X011730Y002780D01*
X011730Y002580D02*
X011630Y002580D01*
X011630Y001780D02*
X011730Y001780D01*
X011730Y001580D02*
X011630Y001580D01*
X013193Y001580D02*
X013293Y001580D01*
X013293Y001780D02*
X013193Y001780D01*
X013380Y003080D02*
X013480Y003080D01*
X013480Y003280D02*
X013380Y003280D01*
X017380Y003280D02*
X017480Y003280D01*
X017480Y003080D02*
X017380Y003080D01*
X018630Y002780D02*
X018730Y002780D01*
X018730Y002580D02*
X018630Y002580D01*
X022143Y005130D02*
X022143Y005230D01*
X022343Y005230D02*
X022343Y005130D01*
X026580Y003730D02*
X026580Y003630D01*
X026780Y003630D02*
X026780Y003730D01*
X027330Y003693D02*
X027330Y003793D01*
X027530Y003793D02*
X027530Y003693D01*
X022343Y009130D02*
X022343Y009230D01*
X022143Y009230D02*
X022143Y009130D01*
X021280Y009630D02*
X021280Y009730D01*
X021080Y009730D02*
X021080Y009630D01*
X020593Y009630D02*
X020593Y009730D01*
X020393Y009730D02*
X020393Y009630D01*
X022880Y012080D02*
X022980Y012080D01*
X022980Y012280D02*
X022880Y012280D01*
X018218Y012568D02*
X018218Y012668D01*
X018018Y012668D02*
X018018Y012568D01*
X016718Y013630D02*
X016718Y013730D01*
X016518Y013730D02*
X016518Y013630D01*
X016030Y013630D02*
X016030Y013730D01*
X015830Y013730D02*
X015830Y013630D01*
X012593Y012155D02*
X012493Y012155D01*
X012493Y011955D02*
X012593Y011955D01*
X009655Y013505D02*
X009655Y013605D01*
X009455Y013605D02*
X009455Y013505D01*
X008668Y012780D02*
X008568Y012780D01*
X008568Y012580D02*
X008668Y012580D01*
X007918Y012030D02*
X007818Y012030D01*
X007818Y011830D02*
X007918Y011830D01*
X007918Y011280D02*
X007818Y011280D01*
X007818Y011080D02*
X007918Y011080D01*
X005730Y013080D02*
X005630Y013080D01*
X005630Y013280D02*
X005730Y013280D01*
X005730Y013830D02*
X005630Y013830D01*
X005630Y014030D02*
X005730Y014030D01*
X005730Y014580D02*
X005630Y014580D01*
X005630Y014780D02*
X005730Y014780D01*
X005730Y015330D02*
X005630Y015330D01*
X005630Y015530D02*
X005730Y015530D01*
X005730Y016080D02*
X005630Y016080D01*
X005630Y016280D02*
X005730Y016280D01*
X005730Y018080D02*
X005630Y018080D01*
X005630Y018280D02*
X005730Y018280D01*
X019680Y017180D02*
X019680Y015930D01*
X019930Y015930D01*
X019930Y016180D01*
X020430Y016180D01*
X020430Y015930D01*
X020930Y015930D01*
X020930Y016180D01*
X021430Y016180D01*
X021430Y015930D01*
X021930Y015930D01*
X021930Y016180D01*
X022430Y016180D01*
X022430Y015930D01*
X022930Y015930D01*
X022930Y016180D01*
X023430Y016180D01*
X023430Y015930D01*
X023930Y015930D01*
X023930Y016180D01*
X024430Y016180D01*
X024430Y015930D01*
X024930Y015930D01*
X024930Y016180D01*
X025430Y016180D01*
X025430Y015930D01*
X025680Y015930D01*
X025680Y017180D01*
X025330Y017180D01*
X019680Y017180D01*
X020030Y017180D02*
X020030Y019630D01*
X020160Y019770D01*
X020180Y019770D02*
X020180Y020330D01*
X020280Y020530D01*
X025080Y020530D01*
X025180Y020330D01*
X025180Y019770D01*
X025200Y019770D02*
X025330Y019630D01*
X025330Y017180D01*
X026580Y016730D02*
X026580Y016630D01*
X026780Y016630D02*
X026780Y016730D01*
X028380Y017080D02*
X028480Y017080D01*
X028480Y017280D02*
X028380Y017280D01*
X029330Y017380D02*
X029330Y017480D01*
X029530Y017480D02*
X029530Y017380D01*
X030143Y017380D02*
X030143Y017480D01*
X030343Y017480D02*
X030343Y017380D01*
X029680Y016180D02*
X028430Y016180D01*
X028430Y015930D01*
X028680Y015930D01*
X028680Y015430D01*
X028430Y015430D01*
X028430Y014930D01*
X028680Y014930D01*
X028680Y014430D01*
X028430Y014430D01*
X028430Y013930D01*
X028680Y013930D01*
X028680Y013430D01*
X028430Y013430D01*
X028430Y013180D01*
X029680Y013180D01*
X029680Y013530D01*
X032130Y013530D01*
X032270Y013660D01*
X032270Y013680D02*
X032830Y013680D01*
X033030Y013780D01*
X033030Y014200D01*
X033030Y014160D02*
X033030Y015580D01*
X032830Y015680D01*
X032270Y015680D01*
X032270Y015700D02*
X032130Y015830D01*
X029680Y015830D01*
X029680Y015680D02*
X029680Y016180D01*
X016605Y008780D02*
X016505Y008780D01*
X016505Y008580D02*
X016605Y008580D01*
X011718Y007230D02*
X011718Y007130D01*
X011518Y007130D02*
X011518Y007230D01*
X011230Y008080D02*
X011130Y008080D01*
X011130Y008280D02*
X011230Y008280D01*
X009780Y008280D02*
X009680Y008280D01*
X009680Y008080D02*
X009780Y008080D01*
X008780Y007730D02*
X008780Y007630D01*
X008580Y007630D02*
X008580Y007730D01*
X008030Y007730D02*
X008030Y007630D01*
X007830Y007630D02*
X007830Y007730D01*
X005930Y007180D02*
X005930Y006930D01*
X005680Y006930D01*
X005680Y006430D01*
X005930Y006430D01*
X005930Y005930D01*
X005680Y005930D01*
X005680Y005430D01*
X005930Y005430D01*
X005930Y005180D01*
X004680Y005180D01*
X004680Y006830D01*
X002230Y006830D01*
X002090Y006700D01*
X002090Y006680D02*
X001530Y006680D01*
X001330Y006580D01*
X001330Y005780D01*
X001530Y005680D01*
X002090Y005680D01*
X002090Y005660D02*
X002230Y005530D01*
X004680Y005530D01*
X004680Y006830D02*
X004680Y007180D01*
X005930Y007180D01*
X006580Y004605D02*
X006580Y004505D01*
X006780Y004505D02*
X006780Y004605D01*
X007330Y004605D02*
X007330Y004505D01*
X007530Y004505D02*
X007530Y004605D01*
X008080Y004605D02*
X008080Y004505D01*
X008280Y004505D02*
X008280Y004605D01*
D15*
X005202Y005406D02*
X004915Y005406D01*
X005059Y005406D02*
X005059Y005836D01*
X004915Y005693D01*
X004965Y006386D02*
X005252Y006673D01*
X005252Y006744D01*
X005180Y006816D01*
X005037Y006816D01*
X004965Y006744D01*
X004965Y006386D02*
X005252Y006386D01*
X020343Y010860D02*
X020643Y010860D01*
X020493Y011000D01*
X020323Y011000D01*
X020343Y010860D02*
X020493Y011001D01*
X020493Y011000D02*
X020663Y011000D01*
X021010Y011000D02*
X021180Y011000D01*
X021330Y010860D01*
X021030Y010860D01*
X021180Y011001D01*
X021180Y011000D02*
X021350Y011000D01*
X029004Y013616D02*
X029076Y013544D01*
X029220Y013544D01*
X029291Y013616D01*
X029291Y013688D01*
X029220Y013760D01*
X029148Y013760D01*
X029220Y013760D02*
X029291Y013831D01*
X029291Y013903D01*
X029220Y013975D01*
X029076Y013975D01*
X029004Y013903D01*
X029054Y015524D02*
X029341Y015524D01*
X029198Y015524D02*
X029198Y015955D01*
X029054Y015811D01*
X025316Y016576D02*
X025316Y016720D01*
X025244Y016791D01*
X025172Y016791D01*
X025100Y016720D01*
X025100Y016504D01*
X025244Y016504D01*
X025316Y016576D01*
X025100Y016504D02*
X024957Y016648D01*
X024885Y016791D01*
X020336Y016841D02*
X020336Y016554D01*
X020336Y016698D02*
X019905Y016698D01*
X020049Y016554D01*
X005750Y018823D02*
X005750Y018993D01*
X005610Y018843D01*
X005610Y019143D01*
X005751Y018993D01*
X005750Y018993D02*
X005750Y019163D01*
X028010Y003938D02*
X028180Y003938D01*
X028030Y003798D01*
X028330Y003798D01*
X028180Y003938D01*
X028350Y003938D01*
X026100Y003750D02*
X025930Y003750D01*
X026080Y003610D01*
X025780Y003610D01*
X025930Y003751D01*
X025930Y003750D02*
X025760Y003750D01*
D16*
X022872Y006196D02*
X022794Y006196D01*
X022872Y006196D02*
X022872Y008164D01*
X022794Y008164D01*
X021691Y008164D02*
X021613Y008164D01*
X021613Y006196D01*
X021691Y006196D01*
X016414Y003810D02*
X016414Y003731D01*
X016414Y003810D02*
X014446Y003810D01*
X014446Y003731D01*
X014446Y002629D02*
X014446Y002550D01*
X016414Y002550D01*
X016414Y002629D01*
X009046Y013314D02*
X009048Y013322D01*
X009053Y013329D01*
X009060Y013333D01*
X009068Y013334D01*
X009076Y013331D01*
X009082Y013326D01*
X009086Y013318D01*
X009086Y013310D01*
X009082Y013302D01*
X009076Y013297D01*
X009068Y013294D01*
X009060Y013295D01*
X009053Y013299D01*
X009048Y013306D01*
X009046Y013314D01*
X008967Y013393D02*
X008967Y013432D01*
X008967Y013393D02*
X007393Y013393D01*
X007393Y013432D01*
X007393Y013668D02*
X007393Y013747D01*
X007393Y013983D02*
X007393Y014062D01*
X007393Y014298D02*
X007393Y014377D01*
X007393Y014613D02*
X007393Y014692D01*
X007393Y014928D02*
X007393Y014967D01*
X008967Y014967D01*
X008967Y014928D01*
X008967Y014692D02*
X008967Y014613D01*
X008967Y014377D02*
X008967Y014298D01*
X008967Y014062D02*
X008967Y013983D01*
X008967Y013747D02*
X008967Y013668D01*
D17*
X013245Y012693D02*
X013247Y012708D01*
X013252Y012722D01*
X013261Y012734D01*
X013273Y012744D01*
X013286Y012750D01*
X013301Y012753D01*
X013316Y012752D01*
X013331Y012747D01*
X013343Y012739D01*
X013354Y012728D01*
X013361Y012715D01*
X013365Y012701D01*
X013365Y012685D01*
X013361Y012671D01*
X013354Y012658D01*
X013343Y012647D01*
X013331Y012639D01*
X013316Y012634D01*
X013301Y012633D01*
X013286Y012636D01*
X013273Y012642D01*
X013261Y012652D01*
X013252Y012664D01*
X013247Y012678D01*
X013245Y012693D01*
D18*
X029640Y010680D03*
D19*
X029715Y010755D03*
X029715Y010605D03*
D20*
X029560Y010680D03*
D21*
X028180Y010930D02*
X028180Y010430D01*
X027930Y010180D01*
X028180Y009930D01*
X028180Y009430D01*
X027930Y009180D01*
X028180Y008930D01*
X028180Y008430D01*
X027930Y008180D01*
X028180Y007930D01*
X028180Y007430D01*
X027930Y007180D01*
X027430Y007180D01*
X027180Y007430D01*
X027180Y007930D01*
X027430Y008180D01*
X027180Y008430D01*
X027180Y008930D01*
X027430Y009180D01*
X027180Y009430D01*
X027180Y009930D01*
X027430Y010180D01*
X027180Y010430D01*
X027180Y010930D01*
X027430Y011180D01*
X027180Y011430D01*
X027180Y011930D01*
X027430Y012180D01*
X027930Y012180D01*
X028180Y011930D01*
X028180Y011430D01*
X027930Y011180D01*
X028180Y010930D01*
X012813Y012774D02*
X012636Y012774D01*
X012813Y012774D02*
X012813Y014586D01*
X012636Y014586D01*
X011849Y014586D02*
X011672Y014586D01*
X011672Y012774D01*
X011849Y012774D01*
X011251Y012774D02*
X011074Y012774D01*
X011251Y012774D02*
X011251Y014586D01*
X011074Y014586D01*
X010286Y014586D02*
X010109Y014586D01*
X010109Y012774D01*
X010286Y012774D01*
X010286Y013286D02*
X011074Y013286D01*
X011849Y013286D02*
X012636Y013286D01*
X004019Y016389D02*
X004019Y008082D01*
X001735Y008082D01*
X001735Y016389D01*
X004019Y016389D01*
X001735Y016389D02*
X001341Y016389D01*
X001341Y008082D01*
X001735Y008082D01*
D22*
X003281Y001296D02*
X003472Y001276D01*
X003492Y001212D01*
X003523Y001152D01*
X003402Y001004D01*
X003504Y000902D01*
X003652Y001023D01*
X003712Y000992D01*
X003797Y001197D01*
X003759Y001218D01*
X003727Y001248D01*
X003703Y001284D01*
X003688Y001324D01*
X003683Y001368D01*
X003688Y001411D01*
X003704Y001453D01*
X003729Y001489D01*
X003762Y001519D01*
X003801Y001539D01*
X003843Y001550D01*
X003888Y001551D01*
X003931Y001541D01*
X003970Y001521D01*
X004004Y001492D01*
X004029Y001456D01*
X004046Y001415D01*
X004052Y001372D01*
X004048Y001328D01*
X004033Y001286D01*
X004009Y001249D01*
X003977Y001219D01*
X003938Y001197D01*
X004023Y000992D01*
X004083Y001023D01*
X004231Y000902D01*
X004333Y001004D01*
X004212Y001152D01*
X004243Y001212D01*
X004263Y001276D01*
X004454Y001296D01*
X004454Y001439D01*
X004263Y001459D01*
X004243Y001523D01*
X004212Y001583D01*
X004333Y001731D01*
X004231Y001833D01*
X004083Y001712D01*
X004023Y001743D01*
X003959Y001763D01*
X003939Y001954D01*
X003796Y001954D01*
X003776Y001763D01*
X003712Y001743D01*
X003652Y001712D01*
X003504Y001833D01*
X003402Y001731D01*
X003523Y001583D01*
X003492Y001523D01*
X003472Y001459D01*
X003281Y001439D01*
X003281Y001296D01*
X003281Y001313D02*
X003692Y001313D01*
X003683Y001371D02*
X003281Y001371D01*
X003281Y001428D02*
X003695Y001428D01*
X003726Y001486D02*
X003480Y001486D01*
X003503Y001543D02*
X003816Y001543D01*
X003920Y001543D02*
X004232Y001543D01*
X004227Y001601D02*
X003508Y001601D01*
X003461Y001658D02*
X004274Y001658D01*
X004321Y001716D02*
X004088Y001716D01*
X004075Y001716D02*
X003660Y001716D01*
X003647Y001716D02*
X003414Y001716D01*
X003445Y001774D02*
X003577Y001774D01*
X003506Y001831D02*
X003502Y001831D01*
X003783Y001831D02*
X003952Y001831D01*
X003958Y001774D02*
X003777Y001774D01*
X003789Y001889D02*
X003946Y001889D01*
X003940Y001946D02*
X003795Y001946D01*
X004158Y001774D02*
X004290Y001774D01*
X004233Y001831D02*
X004229Y001831D01*
X004255Y001486D02*
X004008Y001486D01*
X004041Y001428D02*
X004454Y001428D01*
X004454Y001371D02*
X004052Y001371D01*
X004043Y001313D02*
X004454Y001313D01*
X004257Y001256D02*
X004013Y001256D01*
X003940Y001198D02*
X004235Y001198D01*
X004222Y001140D02*
X003962Y001140D01*
X003985Y001083D02*
X004268Y001083D01*
X004315Y001025D02*
X004009Y001025D01*
X004151Y000968D02*
X004297Y000968D01*
X004239Y000910D02*
X004221Y000910D01*
X003750Y001083D02*
X003467Y001083D01*
X003513Y001140D02*
X003773Y001140D01*
X003795Y001198D02*
X003500Y001198D01*
X003478Y001256D02*
X003722Y001256D01*
X003726Y001025D02*
X003420Y001025D01*
X003438Y000968D02*
X003584Y000968D01*
X003514Y000910D02*
X003496Y000910D01*
X007015Y015711D02*
X007015Y019649D01*
X008786Y019649D02*
X009574Y019649D01*
X011345Y019649D02*
X011345Y015711D01*
X009574Y015711D02*
X008786Y015711D01*
X014180Y015712D02*
X014273Y015715D01*
X014366Y015722D01*
X014458Y015733D01*
X014550Y015749D01*
X014641Y015769D01*
X014731Y015794D01*
X014820Y015822D01*
X014907Y015855D01*
X014992Y015892D01*
X015076Y015933D01*
X015158Y015978D01*
X015237Y016027D01*
X015314Y016079D01*
X015388Y016135D01*
X015460Y016195D01*
X015529Y016257D01*
X015595Y016324D01*
X015657Y016393D01*
X015716Y016465D01*
X015772Y016539D01*
X015824Y016616D01*
X015872Y016696D01*
X014180Y015712D02*
X014087Y015715D01*
X013994Y015722D01*
X013902Y015733D01*
X013810Y015749D01*
X013719Y015769D01*
X013629Y015794D01*
X013540Y015822D01*
X013453Y015855D01*
X013368Y015892D01*
X013284Y015933D01*
X013202Y015978D01*
X013123Y016027D01*
X013046Y016079D01*
X012972Y016135D01*
X012900Y016195D01*
X012831Y016257D01*
X012765Y016324D01*
X012703Y016393D01*
X012644Y016465D01*
X012588Y016539D01*
X012536Y016616D01*
X012488Y016696D01*
X014180Y019648D02*
X014273Y019645D01*
X014366Y019638D01*
X014458Y019627D01*
X014550Y019611D01*
X014641Y019591D01*
X014731Y019566D01*
X014820Y019538D01*
X014907Y019505D01*
X014992Y019468D01*
X015076Y019427D01*
X015158Y019382D01*
X015237Y019333D01*
X015314Y019281D01*
X015388Y019225D01*
X015460Y019165D01*
X015529Y019103D01*
X015595Y019036D01*
X015657Y018967D01*
X015716Y018895D01*
X015772Y018821D01*
X015824Y018744D01*
X015872Y018664D01*
X014180Y019648D02*
X014087Y019645D01*
X013994Y019638D01*
X013902Y019627D01*
X013810Y019611D01*
X013719Y019591D01*
X013629Y019566D01*
X013540Y019538D01*
X013453Y019505D01*
X013368Y019468D01*
X013284Y019427D01*
X013202Y019382D01*
X013123Y019333D01*
X013046Y019281D01*
X012972Y019225D01*
X012900Y019165D01*
X012831Y019103D01*
X012765Y019036D01*
X012703Y018967D01*
X012644Y018895D01*
X012588Y018821D01*
X012536Y018744D01*
X012488Y018664D01*
M02*
