G75*
G70*
%OFA0B0*%
%FSLAX24Y24*%
%IPPOS*%
%LPD*%
%AMOC8*
5,1,8,0,0,1.08239X$1,22.5*
%
%ADD10C,0.0000*%
%ADD11R,0.0300X0.0300*%
%ADD12R,0.0315X0.0472*%
%ADD13C,0.0600*%
%ADD14R,0.0460X0.0630*%
%ADD15R,0.0500X0.0220*%
%ADD16R,0.0220X0.0500*%
%ADD17R,0.0236X0.0620*%
%ADD18R,0.0810X0.0810*%
%ADD19R,0.0945X0.0787*%
%ADD20C,0.0540*%
%ADD21OC8,0.0540*%
%ADD22R,0.0591X0.0787*%
%ADD23OC8,0.0600*%
%ADD24C,0.0700*%
%ADD25C,0.0660*%
%ADD26C,0.0600*%
%ADD27C,0.0083*%
%ADD28R,0.1024X0.1181*%
%ADD29R,0.0579X0.0500*%
%ADD30R,0.0591X0.1142*%
%ADD31R,0.0709X0.0709*%
%ADD32C,0.0709*%
%ADD33R,0.1378X0.4016*%
%ADD34R,0.1024X0.1772*%
%ADD35R,0.0591X0.0236*%
%ADD36R,0.0830X0.0630*%
%ADD37C,0.0160*%
%ADD38C,0.0357*%
%ADD39C,0.0240*%
%ADD40C,0.0200*%
%ADD41C,0.0320*%
%ADD42C,0.0120*%
D10*
X002180Y000680D02*
X029180Y000680D01*
X029256Y000682D01*
X029332Y000688D01*
X029407Y000697D01*
X029482Y000711D01*
X029556Y000728D01*
X029629Y000749D01*
X029701Y000773D01*
X029772Y000802D01*
X029841Y000833D01*
X029908Y000868D01*
X029973Y000907D01*
X030037Y000949D01*
X030098Y000994D01*
X030157Y001042D01*
X030213Y001093D01*
X030267Y001147D01*
X030318Y001203D01*
X030366Y001262D01*
X030411Y001323D01*
X030453Y001387D01*
X030492Y001452D01*
X030527Y001519D01*
X030558Y001588D01*
X030587Y001659D01*
X030611Y001731D01*
X030632Y001804D01*
X030649Y001878D01*
X030663Y001953D01*
X030672Y002028D01*
X030678Y002104D01*
X030680Y002180D01*
X030680Y019180D01*
X028530Y019180D02*
X028532Y019230D01*
X028538Y019280D01*
X028548Y019330D01*
X028561Y019378D01*
X028578Y019426D01*
X028599Y019472D01*
X028623Y019516D01*
X028651Y019558D01*
X028682Y019598D01*
X028716Y019635D01*
X028753Y019670D01*
X028792Y019701D01*
X028833Y019730D01*
X028877Y019755D01*
X028923Y019777D01*
X028970Y019795D01*
X029018Y019809D01*
X029067Y019820D01*
X029117Y019827D01*
X029167Y019830D01*
X029218Y019829D01*
X029268Y019824D01*
X029318Y019815D01*
X029366Y019803D01*
X029414Y019786D01*
X029460Y019766D01*
X029505Y019743D01*
X029548Y019716D01*
X029588Y019686D01*
X029626Y019653D01*
X029661Y019617D01*
X029694Y019578D01*
X029723Y019537D01*
X029749Y019494D01*
X029772Y019449D01*
X029791Y019402D01*
X029806Y019354D01*
X029818Y019305D01*
X029826Y019255D01*
X029830Y019205D01*
X029830Y019155D01*
X029826Y019105D01*
X029818Y019055D01*
X029806Y019006D01*
X029791Y018958D01*
X029772Y018911D01*
X029749Y018866D01*
X029723Y018823D01*
X029694Y018782D01*
X029661Y018743D01*
X029626Y018707D01*
X029588Y018674D01*
X029548Y018644D01*
X029505Y018617D01*
X029460Y018594D01*
X029414Y018574D01*
X029366Y018557D01*
X029318Y018545D01*
X029268Y018536D01*
X029218Y018531D01*
X029167Y018530D01*
X029117Y018533D01*
X029067Y018540D01*
X029018Y018551D01*
X028970Y018565D01*
X028923Y018583D01*
X028877Y018605D01*
X028833Y018630D01*
X028792Y018659D01*
X028753Y018690D01*
X028716Y018725D01*
X028682Y018762D01*
X028651Y018802D01*
X028623Y018844D01*
X028599Y018888D01*
X028578Y018934D01*
X028561Y018982D01*
X028548Y019030D01*
X028538Y019080D01*
X028532Y019130D01*
X028530Y019180D01*
X029180Y020680D02*
X029256Y020678D01*
X029332Y020672D01*
X029407Y020663D01*
X029482Y020649D01*
X029556Y020632D01*
X029629Y020611D01*
X029701Y020587D01*
X029772Y020558D01*
X029841Y020527D01*
X029908Y020492D01*
X029973Y020453D01*
X030037Y020411D01*
X030098Y020366D01*
X030157Y020318D01*
X030213Y020267D01*
X030267Y020213D01*
X030318Y020157D01*
X030366Y020098D01*
X030411Y020037D01*
X030453Y019973D01*
X030492Y019908D01*
X030527Y019841D01*
X030558Y019772D01*
X030587Y019701D01*
X030611Y019629D01*
X030632Y019556D01*
X030649Y019482D01*
X030663Y019407D01*
X030672Y019332D01*
X030678Y019256D01*
X030680Y019180D01*
X029180Y020680D02*
X002180Y020680D01*
X001530Y019180D02*
X001532Y019230D01*
X001538Y019280D01*
X001548Y019330D01*
X001561Y019378D01*
X001578Y019426D01*
X001599Y019472D01*
X001623Y019516D01*
X001651Y019558D01*
X001682Y019598D01*
X001716Y019635D01*
X001753Y019670D01*
X001792Y019701D01*
X001833Y019730D01*
X001877Y019755D01*
X001923Y019777D01*
X001970Y019795D01*
X002018Y019809D01*
X002067Y019820D01*
X002117Y019827D01*
X002167Y019830D01*
X002218Y019829D01*
X002268Y019824D01*
X002318Y019815D01*
X002366Y019803D01*
X002414Y019786D01*
X002460Y019766D01*
X002505Y019743D01*
X002548Y019716D01*
X002588Y019686D01*
X002626Y019653D01*
X002661Y019617D01*
X002694Y019578D01*
X002723Y019537D01*
X002749Y019494D01*
X002772Y019449D01*
X002791Y019402D01*
X002806Y019354D01*
X002818Y019305D01*
X002826Y019255D01*
X002830Y019205D01*
X002830Y019155D01*
X002826Y019105D01*
X002818Y019055D01*
X002806Y019006D01*
X002791Y018958D01*
X002772Y018911D01*
X002749Y018866D01*
X002723Y018823D01*
X002694Y018782D01*
X002661Y018743D01*
X002626Y018707D01*
X002588Y018674D01*
X002548Y018644D01*
X002505Y018617D01*
X002460Y018594D01*
X002414Y018574D01*
X002366Y018557D01*
X002318Y018545D01*
X002268Y018536D01*
X002218Y018531D01*
X002167Y018530D01*
X002117Y018533D01*
X002067Y018540D01*
X002018Y018551D01*
X001970Y018565D01*
X001923Y018583D01*
X001877Y018605D01*
X001833Y018630D01*
X001792Y018659D01*
X001753Y018690D01*
X001716Y018725D01*
X001682Y018762D01*
X001651Y018802D01*
X001623Y018844D01*
X001599Y018888D01*
X001578Y018934D01*
X001561Y018982D01*
X001548Y019030D01*
X001538Y019080D01*
X001532Y019130D01*
X001530Y019180D01*
X000680Y019180D02*
X000682Y019256D01*
X000688Y019332D01*
X000697Y019407D01*
X000711Y019482D01*
X000728Y019556D01*
X000749Y019629D01*
X000773Y019701D01*
X000802Y019772D01*
X000833Y019841D01*
X000868Y019908D01*
X000907Y019973D01*
X000949Y020037D01*
X000994Y020098D01*
X001042Y020157D01*
X001093Y020213D01*
X001147Y020267D01*
X001203Y020318D01*
X001262Y020366D01*
X001323Y020411D01*
X001387Y020453D01*
X001452Y020492D01*
X001519Y020527D01*
X001588Y020558D01*
X001659Y020587D01*
X001731Y020611D01*
X001804Y020632D01*
X001878Y020649D01*
X001953Y020663D01*
X002028Y020672D01*
X002104Y020678D01*
X002180Y020680D01*
X000680Y019180D02*
X000680Y002180D01*
X001530Y002180D02*
X001532Y002230D01*
X001538Y002280D01*
X001548Y002330D01*
X001561Y002378D01*
X001578Y002426D01*
X001599Y002472D01*
X001623Y002516D01*
X001651Y002558D01*
X001682Y002598D01*
X001716Y002635D01*
X001753Y002670D01*
X001792Y002701D01*
X001833Y002730D01*
X001877Y002755D01*
X001923Y002777D01*
X001970Y002795D01*
X002018Y002809D01*
X002067Y002820D01*
X002117Y002827D01*
X002167Y002830D01*
X002218Y002829D01*
X002268Y002824D01*
X002318Y002815D01*
X002366Y002803D01*
X002414Y002786D01*
X002460Y002766D01*
X002505Y002743D01*
X002548Y002716D01*
X002588Y002686D01*
X002626Y002653D01*
X002661Y002617D01*
X002694Y002578D01*
X002723Y002537D01*
X002749Y002494D01*
X002772Y002449D01*
X002791Y002402D01*
X002806Y002354D01*
X002818Y002305D01*
X002826Y002255D01*
X002830Y002205D01*
X002830Y002155D01*
X002826Y002105D01*
X002818Y002055D01*
X002806Y002006D01*
X002791Y001958D01*
X002772Y001911D01*
X002749Y001866D01*
X002723Y001823D01*
X002694Y001782D01*
X002661Y001743D01*
X002626Y001707D01*
X002588Y001674D01*
X002548Y001644D01*
X002505Y001617D01*
X002460Y001594D01*
X002414Y001574D01*
X002366Y001557D01*
X002318Y001545D01*
X002268Y001536D01*
X002218Y001531D01*
X002167Y001530D01*
X002117Y001533D01*
X002067Y001540D01*
X002018Y001551D01*
X001970Y001565D01*
X001923Y001583D01*
X001877Y001605D01*
X001833Y001630D01*
X001792Y001659D01*
X001753Y001690D01*
X001716Y001725D01*
X001682Y001762D01*
X001651Y001802D01*
X001623Y001844D01*
X001599Y001888D01*
X001578Y001934D01*
X001561Y001982D01*
X001548Y002030D01*
X001538Y002080D01*
X001532Y002130D01*
X001530Y002180D01*
X000680Y002180D02*
X000682Y002104D01*
X000688Y002028D01*
X000697Y001953D01*
X000711Y001878D01*
X000728Y001804D01*
X000749Y001731D01*
X000773Y001659D01*
X000802Y001588D01*
X000833Y001519D01*
X000868Y001452D01*
X000907Y001387D01*
X000949Y001323D01*
X000994Y001262D01*
X001042Y001203D01*
X001093Y001147D01*
X001147Y001093D01*
X001203Y001042D01*
X001262Y000994D01*
X001323Y000949D01*
X001387Y000907D01*
X001452Y000868D01*
X001519Y000833D01*
X001588Y000802D01*
X001659Y000773D01*
X001731Y000749D01*
X001804Y000728D01*
X001878Y000711D01*
X001953Y000697D01*
X002028Y000688D01*
X002104Y000682D01*
X002180Y000680D01*
X025030Y002180D02*
X025032Y002230D01*
X025038Y002280D01*
X025048Y002330D01*
X025061Y002378D01*
X025078Y002426D01*
X025099Y002472D01*
X025123Y002516D01*
X025151Y002558D01*
X025182Y002598D01*
X025216Y002635D01*
X025253Y002670D01*
X025292Y002701D01*
X025333Y002730D01*
X025377Y002755D01*
X025423Y002777D01*
X025470Y002795D01*
X025518Y002809D01*
X025567Y002820D01*
X025617Y002827D01*
X025667Y002830D01*
X025718Y002829D01*
X025768Y002824D01*
X025818Y002815D01*
X025866Y002803D01*
X025914Y002786D01*
X025960Y002766D01*
X026005Y002743D01*
X026048Y002716D01*
X026088Y002686D01*
X026126Y002653D01*
X026161Y002617D01*
X026194Y002578D01*
X026223Y002537D01*
X026249Y002494D01*
X026272Y002449D01*
X026291Y002402D01*
X026306Y002354D01*
X026318Y002305D01*
X026326Y002255D01*
X026330Y002205D01*
X026330Y002155D01*
X026326Y002105D01*
X026318Y002055D01*
X026306Y002006D01*
X026291Y001958D01*
X026272Y001911D01*
X026249Y001866D01*
X026223Y001823D01*
X026194Y001782D01*
X026161Y001743D01*
X026126Y001707D01*
X026088Y001674D01*
X026048Y001644D01*
X026005Y001617D01*
X025960Y001594D01*
X025914Y001574D01*
X025866Y001557D01*
X025818Y001545D01*
X025768Y001536D01*
X025718Y001531D01*
X025667Y001530D01*
X025617Y001533D01*
X025567Y001540D01*
X025518Y001551D01*
X025470Y001565D01*
X025423Y001583D01*
X025377Y001605D01*
X025333Y001630D01*
X025292Y001659D01*
X025253Y001690D01*
X025216Y001725D01*
X025182Y001762D01*
X025151Y001802D01*
X025123Y001844D01*
X025099Y001888D01*
X025078Y001934D01*
X025061Y001982D01*
X025048Y002030D01*
X025038Y002080D01*
X025032Y002130D01*
X025030Y002180D01*
D11*
X024180Y003380D03*
X024930Y003443D03*
X024930Y004043D03*
X024180Y003980D03*
X023430Y003980D03*
X023430Y003380D03*
X025680Y003568D03*
X025680Y004168D03*
X019743Y004880D03*
X019743Y005480D03*
X016280Y002680D03*
X015680Y002680D03*
X015680Y001918D03*
X016280Y001918D03*
X010480Y002805D03*
X009880Y002805D03*
X009168Y002805D03*
X008568Y002805D03*
X007980Y006180D03*
X007380Y006180D03*
X013380Y006680D03*
X013980Y006680D03*
X013980Y007680D03*
X013380Y007680D03*
X013380Y008680D03*
X013980Y008680D03*
X017993Y009380D03*
X018680Y009380D03*
X018680Y009980D03*
X017993Y009980D03*
X017993Y010630D03*
X018680Y010630D03*
X018680Y011230D03*
X017993Y011230D03*
X020130Y012180D03*
X020730Y012180D03*
X019743Y009480D03*
X019743Y008880D03*
X016618Y013380D03*
X015930Y013380D03*
X015930Y013980D03*
X016618Y013980D03*
X012843Y012055D03*
X012243Y012055D03*
X009555Y013255D03*
X009555Y013855D03*
X008918Y012680D03*
X008318Y012680D03*
X008168Y011930D03*
X007568Y011930D03*
X007568Y011118D03*
X008168Y011118D03*
X005980Y013180D03*
X005380Y013180D03*
X005380Y013930D03*
X005980Y013930D03*
X005980Y014680D03*
X005380Y014680D03*
X005380Y015430D03*
X005980Y015430D03*
X005980Y016180D03*
X005380Y016180D03*
X004168Y018180D03*
X003568Y018180D03*
X003568Y018993D03*
X004168Y018993D03*
X024180Y016980D03*
X024180Y016380D03*
X025630Y017180D03*
X026230Y017180D03*
X026930Y017130D03*
X026930Y017730D03*
X027743Y017730D03*
X027743Y017130D03*
D12*
X006274Y010680D03*
X005566Y010680D03*
X005326Y016930D03*
X006034Y016930D03*
D13*
X017680Y015480D02*
X017680Y014880D01*
X018680Y014880D02*
X018680Y015480D01*
X019680Y015480D02*
X019680Y014880D01*
X020680Y014880D02*
X020680Y015480D01*
X021680Y015480D02*
X021680Y014880D01*
X022680Y014880D02*
X022680Y015480D01*
X024880Y015680D02*
X025480Y015680D01*
X025480Y014680D02*
X024880Y014680D01*
X024880Y013680D02*
X025480Y013680D01*
X006480Y007180D02*
X005880Y007180D01*
X005880Y006180D02*
X006480Y006180D01*
X006480Y004680D02*
X005880Y004680D01*
X005880Y003680D02*
X006480Y003680D01*
D14*
X007380Y007180D03*
X007980Y007180D03*
X028755Y012805D03*
X029355Y012805D03*
D15*
X018370Y007282D03*
X018370Y006967D03*
X018370Y006652D03*
X018370Y006337D03*
X018370Y006023D03*
X018370Y005708D03*
X018370Y005393D03*
X018370Y005078D03*
X014990Y005078D03*
X014990Y005393D03*
X014990Y005708D03*
X014990Y006023D03*
X014990Y006337D03*
X014990Y006652D03*
X014990Y006967D03*
X014990Y007282D03*
D16*
X015578Y007870D03*
X015893Y007870D03*
X016208Y007870D03*
X016523Y007870D03*
X016837Y007870D03*
X017152Y007870D03*
X017467Y007870D03*
X017782Y007870D03*
X017782Y004490D03*
X017467Y004490D03*
X017152Y004490D03*
X016837Y004490D03*
X016523Y004490D03*
X016208Y004490D03*
X015893Y004490D03*
X015578Y004490D03*
D17*
X015180Y012656D03*
X014680Y012656D03*
X014180Y012656D03*
X013680Y012656D03*
X013680Y014704D03*
X014180Y014704D03*
X014680Y014704D03*
X015180Y014704D03*
D18*
X014430Y013680D03*
D19*
X019743Y007967D03*
X019743Y006393D03*
D20*
X027680Y010680D03*
D21*
X028680Y010680D03*
X028680Y009680D03*
X027680Y009680D03*
X027680Y008680D03*
X028680Y008680D03*
X028680Y007680D03*
X027680Y007680D03*
X027680Y006680D03*
X028680Y006680D03*
X028680Y005680D03*
X027680Y005680D03*
X027680Y004680D03*
X028680Y004680D03*
X028680Y003680D03*
X027680Y003680D03*
D22*
X025271Y018480D03*
X024089Y018480D03*
X006308Y019180D03*
X005127Y019180D03*
D23*
X012680Y010680D03*
X013680Y010680D03*
X014680Y010680D03*
X014680Y009680D03*
X013680Y009680D03*
X012680Y009680D03*
X016680Y009680D03*
D24*
X017430Y002680D03*
X018430Y002680D03*
X019430Y002680D03*
X020430Y002680D03*
X021430Y002680D03*
X022430Y002680D03*
D25*
X022680Y006180D03*
X021680Y006180D03*
X023680Y006180D03*
X023680Y008180D03*
X022680Y008180D03*
X021680Y008180D03*
X021680Y010180D03*
X022680Y010180D03*
X023680Y010180D03*
X023680Y012180D03*
X022680Y012180D03*
X021680Y012180D03*
D26*
X025180Y011680D03*
X025180Y010680D03*
X025180Y009680D03*
X025180Y008680D03*
X025180Y007680D03*
D27*
X009005Y013568D02*
X008851Y013568D01*
X009005Y013568D02*
X009005Y013532D01*
X008851Y013532D01*
X008851Y013568D01*
X008851Y013883D02*
X009005Y013883D01*
X009005Y013847D01*
X008851Y013847D01*
X008851Y013883D01*
X008851Y014198D02*
X009005Y014198D01*
X009005Y014162D01*
X008851Y014162D01*
X008851Y014198D01*
X008851Y014513D02*
X009005Y014513D01*
X009005Y014477D01*
X008851Y014477D01*
X008851Y014513D01*
X008851Y014828D02*
X009005Y014828D01*
X009005Y014792D01*
X008851Y014792D01*
X008851Y014828D01*
X007509Y014828D02*
X007355Y014828D01*
X007509Y014828D02*
X007509Y014792D01*
X007355Y014792D01*
X007355Y014828D01*
X007355Y014513D02*
X007509Y014513D01*
X007509Y014477D01*
X007355Y014477D01*
X007355Y014513D01*
X007355Y014198D02*
X007509Y014198D01*
X007509Y014162D01*
X007355Y014162D01*
X007355Y014198D01*
X007355Y013883D02*
X007509Y013883D01*
X007509Y013847D01*
X007355Y013847D01*
X007355Y013883D01*
X007355Y013568D02*
X007509Y013568D01*
X007509Y013532D01*
X007355Y013532D01*
X007355Y013568D01*
D28*
X008180Y014180D03*
D29*
X010680Y014526D03*
X012243Y014526D03*
X012243Y012834D03*
X010680Y012834D03*
D30*
X006271Y011930D03*
X005089Y011930D03*
D31*
X002680Y015680D03*
D32*
X002680Y014302D03*
X002680Y012924D03*
X002680Y011546D03*
X002680Y010168D03*
X002680Y008790D03*
D33*
X007881Y017680D03*
X010479Y017680D03*
D34*
X012605Y017680D03*
X015755Y017680D03*
D35*
X009950Y004930D03*
X009950Y004430D03*
X009950Y003930D03*
X009950Y003430D03*
X007785Y003430D03*
X007785Y003930D03*
X007785Y004430D03*
X007785Y004930D03*
D36*
X011120Y001915D03*
X014740Y001915D03*
D37*
X001437Y001212D02*
X001212Y001437D01*
X001053Y001713D01*
X000970Y002021D01*
X000960Y002180D01*
X000960Y019124D01*
X000960Y019180D01*
X000970Y019339D01*
X001053Y019647D01*
X001212Y019923D01*
X001437Y020148D01*
X001713Y020307D01*
X002021Y020390D01*
X002180Y020400D01*
X029180Y020400D01*
X029339Y020390D01*
X029647Y020307D01*
X029923Y020148D01*
X030148Y019923D01*
X030307Y019647D01*
X030390Y019339D01*
X030400Y019180D01*
X030400Y002180D01*
X030390Y002021D01*
X030307Y001713D01*
X030148Y001437D01*
X029923Y001212D01*
X029647Y001053D01*
X029339Y000970D01*
X029180Y000960D01*
X002180Y000960D01*
X002021Y000970D01*
X002021Y000970D01*
X001713Y001053D01*
X001437Y001212D01*
X001535Y001156D02*
X029825Y001156D01*
X030025Y001314D02*
X026020Y001314D01*
X025865Y001250D02*
X025495Y001250D01*
X025153Y001392D01*
X024892Y001653D01*
X024750Y001995D01*
X024750Y002365D01*
X024892Y002707D01*
X025153Y002968D01*
X025495Y003110D01*
X025865Y003110D01*
X026207Y002968D01*
X026468Y002707D01*
X026610Y002365D01*
X026610Y001995D01*
X026468Y001653D01*
X026207Y001392D01*
X025865Y001250D01*
X026288Y001473D02*
X030168Y001473D01*
X030260Y001631D02*
X026446Y001631D01*
X026525Y001790D02*
X030328Y001790D01*
X030370Y001948D02*
X026591Y001948D01*
X026610Y002107D02*
X030395Y002107D01*
X030400Y002265D02*
X026610Y002265D01*
X026586Y002424D02*
X030400Y002424D01*
X030400Y002582D02*
X026520Y002582D01*
X026435Y002741D02*
X030400Y002741D01*
X030400Y002899D02*
X026276Y002899D01*
X025992Y003058D02*
X030400Y003058D01*
X030400Y003216D02*
X025310Y003216D01*
X025278Y003203D02*
X025366Y003239D01*
X025424Y003297D01*
X025464Y003258D01*
X025896Y003258D01*
X025990Y003351D01*
X025990Y003784D01*
X025900Y003873D01*
X025928Y003889D01*
X025958Y003919D01*
X025979Y003956D01*
X025990Y003996D01*
X025990Y004167D01*
X030400Y004167D01*
X030400Y004009D02*
X028960Y004009D01*
X028858Y004110D02*
X029110Y003858D01*
X029110Y003502D01*
X028858Y003250D01*
X028502Y003250D01*
X028250Y003502D01*
X028250Y003858D01*
X028502Y004110D01*
X028858Y004110D01*
X028858Y004250D02*
X029110Y004502D01*
X029110Y004858D01*
X028858Y005110D01*
X028589Y005110D01*
X028383Y005316D01*
X028316Y005383D01*
X028228Y005420D01*
X028028Y005420D01*
X028110Y005502D01*
X028110Y005858D01*
X028028Y005940D01*
X028081Y005940D01*
X028250Y005771D01*
X028250Y005502D01*
X028502Y005250D01*
X028858Y005250D01*
X029110Y005502D01*
X029110Y005858D01*
X028858Y006110D01*
X028589Y006110D01*
X028383Y006316D01*
X028316Y006383D01*
X028228Y006420D01*
X028028Y006420D01*
X028110Y006502D01*
X028110Y006858D01*
X028028Y006940D01*
X028228Y006940D01*
X028316Y006977D01*
X028383Y007044D01*
X028589Y007250D01*
X028858Y007250D01*
X029110Y007502D01*
X029110Y007858D01*
X028858Y008110D01*
X028502Y008110D01*
X028250Y007858D01*
X028250Y007589D01*
X028081Y007420D01*
X028028Y007420D01*
X028110Y007502D01*
X028110Y007858D01*
X027858Y008110D01*
X027589Y008110D01*
X026816Y008883D01*
X026728Y008920D01*
X025578Y008920D01*
X025570Y008941D01*
X025441Y009070D01*
X025271Y009140D01*
X025088Y009140D01*
X024919Y009070D01*
X024790Y008941D01*
X024720Y008771D01*
X024720Y008588D01*
X024790Y008419D01*
X024919Y008290D01*
X025088Y008220D01*
X025271Y008220D01*
X025441Y008290D01*
X025570Y008419D01*
X025578Y008440D01*
X026581Y008440D01*
X027250Y007771D01*
X027250Y007502D01*
X027332Y007420D01*
X027279Y007420D01*
X026816Y007883D01*
X026728Y007920D01*
X025578Y007920D01*
X025570Y007941D01*
X025441Y008070D01*
X025271Y008140D01*
X025088Y008140D01*
X024919Y008070D01*
X024790Y007941D01*
X024720Y007771D01*
X024720Y007588D01*
X024790Y007419D01*
X024919Y007290D01*
X025088Y007220D01*
X025271Y007220D01*
X025441Y007290D01*
X025570Y007419D01*
X025578Y007440D01*
X026581Y007440D01*
X026977Y007044D01*
X027044Y006977D01*
X027132Y006940D01*
X027332Y006940D01*
X027312Y006920D01*
X026419Y006920D01*
X026372Y006967D01*
X026247Y007019D01*
X026113Y007019D01*
X025988Y006967D01*
X025893Y006872D01*
X025841Y006747D01*
X025841Y006613D01*
X025893Y006488D01*
X025961Y006420D01*
X025529Y006420D01*
X024670Y007279D01*
X024670Y008478D01*
X024633Y008566D01*
X023458Y009742D01*
X023583Y009690D01*
X023777Y009690D01*
X023958Y009765D01*
X024095Y009902D01*
X024170Y010083D01*
X024170Y010277D01*
X024095Y010458D01*
X023958Y010595D01*
X023777Y010670D01*
X023583Y010670D01*
X023402Y010595D01*
X023265Y010458D01*
X023190Y010277D01*
X023190Y010083D01*
X023242Y009958D01*
X023154Y010045D01*
X023170Y010083D01*
X023170Y010277D01*
X023095Y010458D01*
X022958Y010595D01*
X022777Y010670D01*
X022583Y010670D01*
X022402Y010595D01*
X022265Y010458D01*
X022190Y010277D01*
X022190Y010083D01*
X022265Y009902D01*
X022402Y009765D01*
X022583Y009690D01*
X022777Y009690D01*
X022815Y009706D01*
X023902Y008618D01*
X023777Y008670D01*
X023583Y008670D01*
X023545Y008654D01*
X022883Y009316D01*
X022816Y009383D01*
X022728Y009420D01*
X021382Y009420D01*
X021294Y009383D01*
X021227Y009316D01*
X020727Y008816D01*
X020690Y008728D01*
X020690Y005154D01*
X020206Y004670D01*
X020042Y004670D01*
X020052Y004709D01*
X020052Y004880D01*
X019743Y004880D01*
X020052Y004880D01*
X020052Y005051D01*
X020042Y005092D01*
X020021Y005128D01*
X019991Y005158D01*
X019963Y005174D01*
X020052Y005264D01*
X020052Y005696D01*
X020022Y005726D01*
X020022Y005839D01*
X020281Y005839D01*
X020375Y005933D01*
X020375Y006853D01*
X020281Y006946D01*
X019528Y006946D01*
X019304Y007171D01*
X019291Y007176D01*
X019528Y007414D01*
X020281Y007414D01*
X020375Y007507D01*
X020375Y008427D01*
X020281Y008521D01*
X020022Y008521D01*
X020022Y008634D01*
X020052Y008664D01*
X020052Y009096D01*
X019963Y009186D01*
X019991Y009202D01*
X020021Y009232D01*
X020042Y009268D01*
X020052Y009309D01*
X020052Y009480D01*
X019743Y009480D01*
X020052Y009480D01*
X020052Y009651D01*
X020042Y009692D01*
X020021Y009728D01*
X019991Y009758D01*
X019954Y009779D01*
X019914Y009790D01*
X019743Y009790D01*
X019743Y009480D01*
X019743Y009480D01*
X019742Y009480D01*
X019432Y009480D01*
X019433Y009309D01*
X019443Y009268D01*
X019464Y009232D01*
X019494Y009202D01*
X019522Y009186D01*
X019433Y009096D01*
X019433Y008664D01*
X019463Y008634D01*
X019463Y008521D01*
X019204Y008521D01*
X019110Y008427D01*
X019110Y007674D01*
X018958Y007522D01*
X018716Y007522D01*
X018686Y007552D01*
X018054Y007552D01*
X017960Y007459D01*
X017960Y006892D01*
X017932Y006892D01*
X017920Y006904D01*
X017920Y007228D01*
X017883Y007316D01*
X017739Y007460D01*
X017959Y007460D01*
X018052Y007554D01*
X018052Y008150D01*
X018816Y008914D01*
X018883Y008982D01*
X018920Y009070D01*
X018920Y009094D01*
X018990Y009164D01*
X018990Y009596D01*
X018906Y009680D01*
X018990Y009764D01*
X018990Y010196D01*
X018960Y010226D01*
X018960Y010384D01*
X018990Y010414D01*
X018990Y010846D01*
X018900Y010936D01*
X018928Y010952D01*
X018958Y010982D01*
X018979Y011018D01*
X018990Y011059D01*
X018990Y011230D01*
X018990Y011401D01*
X018979Y011442D01*
X018958Y011478D01*
X018928Y011508D01*
X018892Y011529D01*
X018851Y011540D01*
X018680Y011540D01*
X018680Y011230D01*
X018680Y011230D01*
X018990Y011230D01*
X018680Y011230D01*
X018680Y011230D01*
X018680Y011230D01*
X018370Y011230D01*
X018370Y011401D01*
X018381Y011442D01*
X018402Y011478D01*
X018432Y011508D01*
X018468Y011529D01*
X018509Y011540D01*
X018680Y011540D01*
X018680Y011230D01*
X018370Y011230D01*
X018370Y011059D01*
X018381Y011018D01*
X018402Y010982D01*
X018432Y010952D01*
X018460Y010936D01*
X018370Y010846D01*
X018370Y010414D01*
X018400Y010384D01*
X018400Y010226D01*
X018370Y010196D01*
X018370Y009764D01*
X018454Y009680D01*
X018370Y009596D01*
X018370Y009164D01*
X018378Y009155D01*
X018232Y009009D01*
X018232Y009094D01*
X018302Y009164D01*
X018302Y009596D01*
X018219Y009680D01*
X018302Y009764D01*
X018302Y010196D01*
X018272Y010226D01*
X018272Y010384D01*
X018302Y010414D01*
X018302Y010846D01*
X018213Y010936D01*
X018241Y010952D01*
X018271Y010982D01*
X018271Y010983D02*
X018402Y010983D01*
X018292Y011018D02*
X018302Y011059D01*
X018302Y011230D01*
X017993Y011230D01*
X018302Y011230D01*
X018302Y011401D01*
X018292Y011442D01*
X018271Y011478D01*
X018241Y011508D01*
X018204Y011529D01*
X018164Y011540D01*
X018025Y011540D01*
X018122Y011580D01*
X018217Y011676D01*
X018269Y011800D01*
X018269Y011935D01*
X018217Y012059D01*
X018122Y012155D01*
X017997Y012206D01*
X017863Y012206D01*
X017845Y012199D01*
X018546Y012900D01*
X019356Y012900D01*
X019363Y012893D01*
X019488Y012841D01*
X019622Y012841D01*
X019747Y012893D01*
X019842Y012988D01*
X019890Y013104D01*
X019890Y012466D01*
X019820Y012396D01*
X019820Y011964D01*
X019890Y011894D01*
X019890Y011557D01*
X019927Y011469D01*
X020419Y010977D01*
X020507Y010940D01*
X023478Y010940D01*
X023566Y010977D01*
X023816Y011227D01*
X023883Y011294D01*
X023920Y011382D01*
X023920Y011749D01*
X023958Y011765D01*
X024095Y011902D01*
X024170Y012083D01*
X024170Y012277D01*
X024095Y012458D01*
X023958Y012595D01*
X023920Y012611D01*
X023920Y012978D01*
X023883Y013066D01*
X023605Y013344D01*
X023613Y013341D01*
X023623Y013341D01*
X024271Y012693D01*
X024374Y012650D01*
X024981Y012650D01*
X024988Y012643D01*
X025113Y012591D01*
X025247Y012591D01*
X025372Y012643D01*
X025467Y012738D01*
X025519Y012863D01*
X025519Y012997D01*
X025467Y013122D01*
X025372Y013217D01*
X025365Y013220D01*
X025571Y013220D01*
X025741Y013290D01*
X025851Y013400D01*
X025986Y013400D01*
X026089Y013443D01*
X026167Y013521D01*
X026467Y013821D01*
X026510Y013924D01*
X026510Y014433D01*
X026551Y014393D01*
X026675Y014341D01*
X026810Y014341D01*
X026934Y014393D01*
X027030Y014488D01*
X027081Y014613D01*
X027081Y014623D01*
X027980Y015521D01*
X028022Y015624D01*
X028022Y016884D01*
X028052Y016914D01*
X028052Y017346D01*
X027963Y017436D01*
X027991Y017452D01*
X028021Y017482D01*
X028042Y017518D01*
X028052Y017559D01*
X028052Y017730D01*
X027743Y017730D01*
X028052Y017730D01*
X028052Y017901D01*
X028042Y017942D01*
X028021Y017978D01*
X027991Y018008D01*
X027954Y018029D01*
X027914Y018040D01*
X027743Y018040D01*
X027743Y017730D01*
X027743Y017730D01*
X027742Y017730D01*
X027432Y017730D01*
X027433Y017559D01*
X027443Y017518D01*
X027464Y017482D01*
X027494Y017452D01*
X027522Y017436D01*
X027496Y017410D01*
X027176Y017410D01*
X027150Y017436D01*
X027178Y017452D01*
X027208Y017482D01*
X027229Y017518D01*
X027240Y017559D01*
X027240Y017730D01*
X027240Y017901D01*
X027229Y017942D01*
X027208Y017978D01*
X027178Y018008D01*
X027142Y018029D01*
X027101Y018040D01*
X026930Y018040D01*
X026930Y017730D01*
X026930Y017730D01*
X027240Y017730D01*
X026930Y017730D01*
X026930Y017730D01*
X026930Y017730D01*
X026620Y017730D01*
X026620Y017901D01*
X026631Y017942D01*
X026652Y017978D01*
X026682Y018008D01*
X026718Y018029D01*
X026759Y018040D01*
X026930Y018040D01*
X026930Y017730D01*
X026620Y017730D01*
X026620Y017559D01*
X026631Y017518D01*
X026652Y017482D01*
X026682Y017452D01*
X026710Y017436D01*
X026620Y017346D01*
X026620Y016914D01*
X026714Y016820D01*
X027146Y016820D01*
X027176Y016850D01*
X027463Y016850D01*
X027463Y015796D01*
X026685Y015019D01*
X026675Y015019D01*
X026551Y014967D01*
X026510Y014927D01*
X026510Y016934D01*
X026540Y016964D01*
X026540Y017396D01*
X026446Y017490D01*
X026014Y017490D01*
X025924Y017400D01*
X025908Y017428D01*
X025878Y017458D01*
X025842Y017479D01*
X025801Y017490D01*
X025630Y017490D01*
X025630Y017180D01*
X025630Y017180D01*
X025630Y016870D01*
X025801Y016870D01*
X025842Y016881D01*
X025878Y016902D01*
X025908Y016932D01*
X025924Y016960D01*
X025950Y016934D01*
X025950Y014096D01*
X025832Y013978D01*
X025741Y014070D01*
X025571Y014140D01*
X024788Y014140D01*
X024619Y014070D01*
X024490Y013941D01*
X024420Y013771D01*
X024420Y013588D01*
X024490Y013419D01*
X024619Y013290D01*
X024788Y013220D01*
X024995Y013220D01*
X024988Y013217D01*
X024981Y013210D01*
X024546Y013210D01*
X024019Y013737D01*
X024019Y013747D01*
X023967Y013872D01*
X023872Y013967D01*
X023747Y014019D01*
X023613Y014019D01*
X023488Y013967D01*
X023420Y013899D01*
X023420Y013956D01*
X023566Y014102D01*
X023633Y014169D01*
X023670Y014257D01*
X023670Y015531D01*
X024209Y016070D01*
X024396Y016070D01*
X024490Y016164D01*
X024490Y016596D01*
X024406Y016680D01*
X024426Y016700D01*
X024764Y016700D01*
X024900Y016564D01*
X024900Y016140D01*
X024788Y016140D01*
X024619Y016070D01*
X024490Y015941D01*
X024420Y015771D01*
X024420Y015588D01*
X024490Y015419D01*
X024619Y015290D01*
X024788Y015220D01*
X025571Y015220D01*
X025741Y015290D01*
X025870Y015419D01*
X025940Y015588D01*
X025940Y015771D01*
X025870Y015941D01*
X025741Y016070D01*
X025571Y016140D01*
X025460Y016140D01*
X025460Y016736D01*
X025417Y016839D01*
X025339Y016917D01*
X025039Y017217D01*
X024936Y017260D01*
X024426Y017260D01*
X024396Y017290D01*
X023964Y017290D01*
X023870Y017196D01*
X023870Y016764D01*
X023954Y016680D01*
X023870Y016596D01*
X023870Y016409D01*
X023227Y015766D01*
X023190Y015678D01*
X023190Y014404D01*
X022977Y014191D01*
X022960Y014151D01*
X022960Y014509D01*
X023070Y014619D01*
X023140Y014788D01*
X023140Y015571D01*
X023070Y015741D01*
X022941Y015870D01*
X022771Y015940D01*
X022588Y015940D01*
X022419Y015870D01*
X022290Y015741D01*
X022220Y015571D01*
X022220Y014788D01*
X022290Y014619D01*
X022400Y014509D01*
X022400Y014296D01*
X022064Y013960D01*
X021379Y013960D01*
X021372Y013967D01*
X021247Y014019D01*
X021113Y014019D01*
X020988Y013967D01*
X020893Y013872D01*
X020841Y013747D01*
X020841Y013613D01*
X020893Y013488D01*
X020988Y013393D01*
X021113Y013341D01*
X021247Y013341D01*
X021372Y013393D01*
X021379Y013400D01*
X022236Y013400D01*
X022339Y013443D01*
X022839Y013943D01*
X022917Y014021D01*
X022940Y014076D01*
X022940Y013382D01*
X022977Y013294D01*
X023440Y012831D01*
X023440Y012611D01*
X023402Y012595D01*
X023265Y012458D01*
X023190Y012277D01*
X023190Y012083D01*
X023265Y011902D01*
X023402Y011765D01*
X023440Y011749D01*
X023440Y011529D01*
X023331Y011420D01*
X020654Y011420D01*
X020370Y011704D01*
X020370Y011894D01*
X020430Y011954D01*
X020514Y011870D01*
X020946Y011870D01*
X020976Y011900D01*
X021267Y011900D01*
X021402Y011765D01*
X021583Y011690D01*
X021777Y011690D01*
X021958Y011765D01*
X022095Y011902D01*
X022170Y012083D01*
X022170Y012277D01*
X022095Y012458D01*
X021958Y012595D01*
X021777Y012670D01*
X021583Y012670D01*
X021402Y012595D01*
X021267Y012460D01*
X020976Y012460D01*
X020946Y012490D01*
X020514Y012490D01*
X020430Y012406D01*
X020370Y012466D01*
X020370Y013903D01*
X020333Y013991D01*
X020071Y014253D01*
X020003Y014321D01*
X019915Y014357D01*
X018029Y014357D01*
X017920Y014467D01*
X017920Y014482D01*
X017941Y014490D01*
X018070Y014619D01*
X018140Y014788D01*
X018140Y015571D01*
X018070Y015741D01*
X017941Y015870D01*
X017771Y015940D01*
X017588Y015940D01*
X017419Y015870D01*
X017290Y015741D01*
X017220Y015571D01*
X017220Y015420D01*
X016820Y015420D01*
X016732Y015383D01*
X016618Y015269D01*
X016503Y015383D01*
X016415Y015420D01*
X016399Y015420D01*
X016467Y015488D01*
X016519Y015613D01*
X016519Y015747D01*
X016467Y015872D01*
X016372Y015967D01*
X016247Y016019D01*
X016113Y016019D01*
X015988Y015967D01*
X015893Y015872D01*
X015841Y015747D01*
X015841Y015613D01*
X015893Y015488D01*
X015961Y015420D01*
X015779Y015420D01*
X015420Y015779D01*
X015420Y015941D01*
X015467Y015988D01*
X015519Y016113D01*
X015519Y016247D01*
X015467Y016372D01*
X015372Y016467D01*
X015247Y016519D01*
X015227Y016519D01*
X015343Y016634D01*
X016333Y016634D01*
X016427Y016728D01*
X016427Y018632D01*
X016333Y018726D01*
X015177Y018726D01*
X015083Y018632D01*
X015083Y017166D01*
X013443Y015526D01*
X013400Y015423D01*
X013400Y014046D01*
X013314Y013960D01*
X012437Y013960D01*
X012334Y013917D01*
X012084Y013667D01*
X012005Y013589D01*
X011963Y013486D01*
X011963Y013244D01*
X011887Y013244D01*
X011793Y013150D01*
X011793Y012517D01*
X011887Y012424D01*
X011963Y012424D01*
X011963Y012301D01*
X011933Y012271D01*
X011933Y011839D01*
X012027Y011745D01*
X012459Y011745D01*
X012543Y011829D01*
X012627Y011745D01*
X013059Y011745D01*
X013089Y011775D01*
X013361Y011775D01*
X016629Y011775D01*
X016471Y011617D02*
X008447Y011617D01*
X008447Y011684D02*
X008477Y011714D01*
X008477Y012146D01*
X008384Y012240D01*
X007951Y012240D01*
X007868Y012156D01*
X007835Y012189D01*
X007835Y012856D01*
X007842Y012863D01*
X007894Y012988D01*
X007894Y013122D01*
X007842Y013247D01*
X007835Y013254D01*
X007835Y013361D01*
X007807Y013429D01*
X008100Y013429D01*
X008100Y014100D01*
X008260Y014100D01*
X008260Y013429D01*
X008668Y013429D01*
X008668Y013045D01*
X008651Y013007D01*
X008648Y012936D01*
X008612Y012900D01*
X008596Y012928D01*
X008566Y012958D01*
X008529Y012979D01*
X008489Y012990D01*
X008318Y012990D01*
X008318Y012680D01*
X008318Y012370D01*
X008489Y012370D01*
X008529Y012381D01*
X008566Y012402D01*
X008596Y012432D01*
X008612Y012460D01*
X008701Y012370D01*
X009134Y012370D01*
X009227Y012464D01*
X009227Y012896D01*
X009207Y012916D01*
X009210Y012975D01*
X009309Y012975D01*
X009339Y012945D01*
X009469Y012945D01*
X009638Y012776D01*
X009638Y012766D01*
X009689Y012642D01*
X009785Y012546D01*
X009909Y012495D01*
X010044Y012495D01*
X010168Y012546D01*
X010176Y012554D01*
X010231Y012554D01*
X010231Y012517D01*
X010324Y012424D01*
X011036Y012424D01*
X011129Y012517D01*
X011129Y013150D01*
X011036Y013244D01*
X010324Y013244D01*
X010231Y013150D01*
X010231Y013114D01*
X010176Y013114D01*
X010168Y013121D01*
X010044Y013172D01*
X010034Y013172D01*
X009865Y013341D01*
X009865Y013471D01*
X009781Y013555D01*
X009865Y013639D01*
X009865Y014071D01*
X009771Y014165D01*
X009561Y014165D01*
X009642Y014246D01*
X010231Y014246D01*
X010231Y014210D01*
X010324Y014116D01*
X011036Y014116D01*
X011129Y014210D01*
X011129Y014843D01*
X011036Y014936D01*
X010332Y014936D01*
X010638Y015242D01*
X010717Y015321D01*
X010759Y015424D01*
X010759Y015512D01*
X011234Y015512D01*
X011328Y015606D01*
X011328Y019754D01*
X011234Y019848D01*
X009724Y019848D01*
X009630Y019754D01*
X009630Y015606D01*
X009724Y015512D01*
X010116Y015512D01*
X010048Y015444D01*
X009863Y015444D01*
X009856Y015451D01*
X009731Y015503D01*
X009597Y015503D01*
X009472Y015451D01*
X009377Y015356D01*
X009325Y015231D01*
X009325Y015097D01*
X009377Y014972D01*
X009472Y014877D01*
X009597Y014825D01*
X009731Y014825D01*
X009856Y014877D01*
X009863Y014884D01*
X010220Y014884D01*
X010309Y014921D01*
X010231Y014843D01*
X010231Y014806D01*
X009471Y014806D01*
X009368Y014764D01*
X009289Y014685D01*
X009193Y014589D01*
X009192Y014590D01*
X009166Y014636D01*
X009150Y014652D01*
X009166Y014669D01*
X009192Y014714D01*
X009206Y014766D01*
X009206Y014810D01*
X009206Y014854D01*
X009192Y014905D01*
X009166Y014951D01*
X009128Y014989D01*
X009083Y015015D01*
X009031Y015029D01*
X008928Y015029D01*
X008825Y015029D01*
X008774Y015015D01*
X008728Y014989D01*
X008690Y014951D01*
X008678Y014931D01*
X008260Y014931D01*
X008260Y014260D01*
X008100Y014260D01*
X008100Y014931D01*
X007691Y014931D01*
X007592Y015029D01*
X007581Y015029D01*
X007579Y015030D01*
X007484Y015070D01*
X007249Y015070D01*
X006730Y015589D01*
X006651Y015667D01*
X006548Y015710D01*
X006272Y015710D01*
X006272Y015946D01*
X006290Y015964D01*
X006290Y016396D01*
X006196Y016490D01*
X005764Y016490D01*
X005680Y016406D01*
X005606Y016481D01*
X005606Y016590D01*
X005643Y016628D01*
X005643Y017232D01*
X005606Y017270D01*
X005606Y017272D01*
X005733Y017400D01*
X007032Y017400D01*
X007032Y015606D01*
X007126Y015512D01*
X008636Y015512D01*
X008730Y015606D01*
X008730Y019754D01*
X008636Y019848D01*
X007126Y019848D01*
X007032Y019754D01*
X007032Y017960D01*
X005562Y017960D01*
X005459Y017917D01*
X005088Y017547D01*
X005046Y017444D01*
X005046Y017270D01*
X005008Y017232D01*
X005008Y016628D01*
X005046Y016590D01*
X005046Y016460D01*
X004562Y016460D01*
X004459Y016417D01*
X004084Y016042D01*
X004005Y015964D01*
X003963Y015861D01*
X003963Y013421D01*
X003746Y013204D01*
X003121Y013204D01*
X003116Y013215D01*
X002971Y013360D01*
X002782Y013438D01*
X002578Y013438D01*
X002389Y013360D01*
X002244Y013215D01*
X002166Y013026D01*
X002166Y012822D01*
X002244Y012633D01*
X002389Y012488D01*
X002578Y012410D01*
X002782Y012410D01*
X002971Y012488D01*
X003116Y012633D01*
X003121Y012644D01*
X003917Y012644D01*
X004020Y012687D01*
X004099Y012765D01*
X004099Y012765D01*
X004480Y013146D01*
X004522Y013249D01*
X004522Y015689D01*
X004733Y015900D01*
X005134Y015900D01*
X005164Y015870D01*
X005596Y015870D01*
X005680Y015954D01*
X005713Y015921D01*
X005713Y015689D01*
X005674Y015650D01*
X005658Y015678D01*
X005628Y015708D01*
X005592Y015729D01*
X005551Y015740D01*
X005380Y015740D01*
X005380Y015430D01*
X005380Y015430D01*
X005380Y015120D01*
X005551Y015120D01*
X005592Y015131D01*
X005628Y015152D01*
X005658Y015182D01*
X005674Y015210D01*
X005764Y015120D01*
X006196Y015120D01*
X006226Y015150D01*
X006377Y015150D01*
X006772Y014755D01*
X006751Y014755D01*
X006667Y014839D01*
X006589Y014917D01*
X006486Y014960D01*
X006226Y014960D01*
X006196Y014990D01*
X005764Y014990D01*
X005674Y014900D01*
X005658Y014928D01*
X005628Y014958D01*
X005592Y014979D01*
X005551Y014990D01*
X005380Y014990D01*
X005380Y014680D01*
X005380Y014680D01*
X005380Y014370D01*
X005551Y014370D01*
X005592Y014381D01*
X005628Y014402D01*
X005658Y014432D01*
X005674Y014460D01*
X005764Y014370D01*
X006196Y014370D01*
X006226Y014400D01*
X006314Y014400D01*
X006409Y014305D01*
X006314Y014210D01*
X006226Y014210D01*
X006196Y014240D01*
X005764Y014240D01*
X005680Y014156D01*
X005596Y014240D01*
X005164Y014240D01*
X005131Y014208D01*
X005122Y014217D01*
X004997Y014269D01*
X004863Y014269D01*
X004738Y014217D01*
X004643Y014122D01*
X004591Y013997D01*
X004591Y013863D01*
X004643Y013738D01*
X004738Y013643D01*
X004863Y013591D01*
X004997Y013591D01*
X005122Y013643D01*
X005131Y013652D01*
X005164Y013620D01*
X005596Y013620D01*
X005680Y013704D01*
X005764Y013620D01*
X006196Y013620D01*
X006226Y013650D01*
X006486Y013650D01*
X006517Y013663D01*
X006314Y013460D01*
X006226Y013460D01*
X006196Y013490D01*
X005764Y013490D01*
X005674Y013400D01*
X005658Y013428D01*
X005628Y013458D01*
X005592Y013479D01*
X005551Y013490D01*
X005380Y013490D01*
X005380Y013180D01*
X005380Y013180D01*
X005380Y012870D01*
X005551Y012870D01*
X005592Y012881D01*
X005628Y012902D01*
X005658Y012932D01*
X005674Y012960D01*
X005764Y012870D01*
X006196Y012870D01*
X006226Y012900D01*
X006486Y012900D01*
X006589Y012943D01*
X006667Y013021D01*
X007154Y013508D01*
X007154Y013488D01*
X007152Y013484D01*
X007152Y013372D01*
X007195Y013269D01*
X007253Y013211D01*
X007216Y013122D01*
X007216Y012988D01*
X007268Y012863D01*
X007275Y012856D01*
X007275Y012210D01*
X006726Y012210D01*
X006726Y012567D01*
X006632Y012661D01*
X005909Y012661D01*
X005815Y012567D01*
X005815Y011293D01*
X005909Y011199D01*
X005991Y011199D01*
X005991Y011016D01*
X005957Y010982D01*
X005957Y010378D01*
X006051Y010284D01*
X006498Y010284D01*
X006592Y010378D01*
X006592Y010982D01*
X006551Y011024D01*
X006551Y011199D01*
X006632Y011199D01*
X006726Y011293D01*
X006726Y011650D01*
X007321Y011650D01*
X007351Y011620D01*
X007784Y011620D01*
X007868Y011704D01*
X007888Y011684D01*
X007888Y011364D01*
X007862Y011338D01*
X007846Y011366D01*
X007816Y011396D01*
X007779Y011417D01*
X007739Y011427D01*
X007568Y011427D01*
X007568Y011118D01*
X007567Y011118D01*
X007567Y011427D01*
X007396Y011427D01*
X007356Y011417D01*
X007319Y011396D01*
X007289Y011366D01*
X007268Y011329D01*
X007258Y011289D01*
X007257Y011118D01*
X007567Y011118D01*
X007567Y011117D01*
X007568Y011117D01*
X007568Y010807D01*
X007739Y010808D01*
X007779Y010818D01*
X007816Y010839D01*
X007846Y010869D01*
X007862Y010897D01*
X007951Y010808D01*
X008384Y010808D01*
X008454Y010878D01*
X010643Y010878D01*
X010940Y010581D01*
X010940Y008632D01*
X010977Y008544D01*
X012440Y007081D01*
X012440Y006132D01*
X012477Y006044D01*
X012544Y005977D01*
X013044Y005477D01*
X013132Y005440D01*
X013961Y005440D01*
X013941Y005420D01*
X012632Y005420D01*
X012544Y005383D01*
X012477Y005316D01*
X012331Y005170D01*
X010350Y005170D01*
X010312Y005208D01*
X009589Y005208D01*
X009495Y005114D01*
X009495Y004746D01*
X009561Y004680D01*
X009495Y004614D01*
X009495Y004246D01*
X009561Y004180D01*
X009551Y004170D01*
X009445Y004170D01*
X009357Y004133D01*
X009102Y003878D01*
X009065Y003790D01*
X009065Y003257D01*
X009102Y003169D01*
X009156Y003115D01*
X008996Y003115D01*
X008956Y003104D01*
X008919Y003083D01*
X008889Y003053D01*
X008873Y003025D01*
X008807Y003091D01*
X008807Y003215D01*
X008771Y003303D01*
X008703Y003371D01*
X008508Y003566D01*
X008441Y003633D01*
X008353Y003670D01*
X008184Y003670D01*
X008174Y003680D01*
X008240Y003746D01*
X008240Y004114D01*
X008174Y004180D01*
X008240Y004246D01*
X008240Y004614D01*
X008173Y004681D01*
X008178Y004684D01*
X008208Y004714D01*
X008229Y004750D01*
X008240Y004791D01*
X008240Y004930D01*
X008240Y005069D01*
X008229Y005110D01*
X008208Y005146D01*
X008178Y005176D01*
X008142Y005197D01*
X008101Y005208D01*
X007785Y005208D01*
X007785Y004930D01*
X008240Y004930D01*
X007785Y004930D01*
X007785Y004930D01*
X007785Y004930D01*
X007785Y005208D01*
X007468Y005208D01*
X007428Y005197D01*
X007391Y005176D01*
X007362Y005146D01*
X007340Y005110D01*
X007330Y005069D01*
X007330Y004930D01*
X007330Y004791D01*
X007340Y004750D01*
X007362Y004714D01*
X007391Y004684D01*
X007396Y004681D01*
X007385Y004670D01*
X007342Y004670D01*
X007196Y004816D01*
X007128Y004883D01*
X007040Y004920D01*
X006878Y004920D01*
X006870Y004941D01*
X006741Y005070D01*
X006571Y005140D01*
X005788Y005140D01*
X005619Y005070D01*
X005490Y004941D01*
X005490Y004940D01*
X005288Y004940D01*
X004940Y005288D01*
X004940Y006572D01*
X005288Y006920D01*
X005490Y006920D01*
X005490Y006919D01*
X005619Y006790D01*
X005788Y006720D01*
X006571Y006720D01*
X006741Y006790D01*
X006870Y006919D01*
X006870Y006920D01*
X006990Y006920D01*
X006990Y006799D01*
X007084Y006705D01*
X007676Y006705D01*
X007680Y006709D01*
X007684Y006705D01*
X007720Y006705D01*
X007720Y006446D01*
X007680Y006406D01*
X007596Y006490D01*
X007164Y006490D01*
X007114Y006440D01*
X006870Y006440D01*
X006870Y006441D01*
X006741Y006570D01*
X006571Y006640D01*
X005788Y006640D01*
X005619Y006570D01*
X005490Y006441D01*
X005420Y006271D01*
X005420Y006088D01*
X005490Y005919D01*
X005619Y005790D01*
X005788Y005720D01*
X006571Y005720D01*
X006741Y005790D01*
X006870Y005919D01*
X006870Y005920D01*
X007114Y005920D01*
X007164Y005870D01*
X007596Y005870D01*
X007680Y005954D01*
X007764Y005870D01*
X008196Y005870D01*
X008290Y005964D01*
X008290Y006396D01*
X008240Y006446D01*
X008240Y006705D01*
X008276Y006705D01*
X008370Y006799D01*
X008370Y007561D01*
X008276Y007655D01*
X007684Y007655D01*
X007680Y007651D01*
X007676Y007655D01*
X007084Y007655D01*
X006990Y007561D01*
X006990Y007440D01*
X006870Y007440D01*
X006870Y007441D01*
X006741Y007570D01*
X006571Y007640D01*
X005788Y007640D01*
X005619Y007570D01*
X005490Y007441D01*
X005490Y007440D01*
X005128Y007440D01*
X005033Y007400D01*
X004533Y006900D01*
X004460Y006827D01*
X004420Y006732D01*
X004420Y005128D01*
X004460Y005033D01*
X004960Y004533D01*
X005033Y004460D01*
X005128Y004420D01*
X005490Y004420D01*
X005490Y004419D01*
X005619Y004290D01*
X005788Y004220D01*
X006571Y004220D01*
X006741Y004290D01*
X006870Y004419D01*
X006878Y004440D01*
X006893Y004440D01*
X007039Y004294D01*
X007107Y004227D01*
X007195Y004190D01*
X007385Y004190D01*
X007395Y004180D01*
X007385Y004170D01*
X007195Y004170D01*
X007107Y004133D01*
X006893Y003920D01*
X006878Y003920D01*
X006870Y003941D01*
X006741Y004070D01*
X006571Y004140D01*
X005788Y004140D01*
X005619Y004070D01*
X005490Y003941D01*
X005420Y003771D01*
X005420Y003588D01*
X005490Y003419D01*
X005619Y003290D01*
X005788Y003220D01*
X006571Y003220D01*
X006741Y003290D01*
X006870Y003419D01*
X006878Y003440D01*
X007040Y003440D01*
X007128Y003477D01*
X007196Y003544D01*
X007342Y003690D01*
X007385Y003690D01*
X007395Y003680D01*
X007330Y003614D01*
X007330Y003246D01*
X007423Y003152D01*
X008146Y003152D01*
X008184Y003190D01*
X008206Y003190D01*
X008316Y003080D01*
X008281Y003045D01*
X008232Y003045D01*
X008184Y003092D01*
X008060Y003144D01*
X007925Y003144D01*
X007801Y003092D01*
X007705Y002997D01*
X007654Y002872D01*
X007654Y002738D01*
X007705Y002613D01*
X007801Y002518D01*
X007925Y002466D01*
X008060Y002466D01*
X008184Y002518D01*
X008232Y002565D01*
X008281Y002565D01*
X008351Y002495D01*
X008784Y002495D01*
X008873Y002585D01*
X008889Y002557D01*
X008919Y002527D01*
X008956Y002506D01*
X008996Y002495D01*
X009167Y002495D01*
X009167Y002805D01*
X009168Y002805D01*
X009168Y002495D01*
X009339Y002495D01*
X009379Y002506D01*
X009416Y002527D01*
X009446Y002557D01*
X009467Y002593D01*
X009477Y002634D01*
X009477Y002793D01*
X009565Y002706D01*
X009570Y002693D01*
X009570Y002589D01*
X009664Y002495D01*
X010096Y002495D01*
X010180Y002579D01*
X010264Y002495D01*
X010696Y002495D01*
X010729Y002527D01*
X010738Y002518D01*
X010863Y002466D01*
X010997Y002466D01*
X011122Y002518D01*
X011217Y002613D01*
X011269Y002738D01*
X011269Y002872D01*
X011217Y002997D01*
X011122Y003092D01*
X010997Y003144D01*
X010863Y003144D01*
X010738Y003092D01*
X010729Y003083D01*
X010696Y003115D01*
X010264Y003115D01*
X010180Y003031D01*
X010096Y003115D01*
X009834Y003115D01*
X009798Y003152D01*
X010312Y003152D01*
X010350Y003190D01*
X012691Y003190D01*
X012738Y003143D01*
X012863Y003091D01*
X012997Y003091D01*
X013122Y003143D01*
X013217Y003238D01*
X013269Y003363D01*
X013269Y003497D01*
X013217Y003622D01*
X013122Y003717D01*
X012997Y003769D01*
X012863Y003769D01*
X012738Y003717D01*
X012691Y003670D01*
X010350Y003670D01*
X010340Y003680D01*
X010405Y003746D01*
X010405Y004114D01*
X010340Y004180D01*
X010350Y004190D01*
X012691Y004190D01*
X012738Y004143D01*
X012863Y004091D01*
X012997Y004091D01*
X013122Y004143D01*
X013217Y004238D01*
X013269Y004363D01*
X013269Y004497D01*
X013217Y004622D01*
X013122Y004717D01*
X012997Y004769D01*
X012863Y004769D01*
X012738Y004717D01*
X012691Y004670D01*
X010350Y004670D01*
X010340Y004680D01*
X010350Y004690D01*
X012478Y004690D01*
X012566Y004727D01*
X012779Y004940D01*
X013941Y004940D01*
X013988Y004893D01*
X014113Y004841D01*
X014247Y004841D01*
X014372Y004893D01*
X014467Y004988D01*
X014519Y005113D01*
X014519Y005153D01*
X014580Y005153D01*
X014580Y004901D01*
X014674Y004808D01*
X015306Y004808D01*
X015336Y004838D01*
X015339Y004838D01*
X015308Y004806D01*
X015308Y004174D01*
X015401Y004080D01*
X016462Y004080D01*
X015460Y003077D01*
X015420Y002982D01*
X015420Y002946D01*
X015370Y002896D01*
X015370Y002464D01*
X015420Y002414D01*
X015420Y002184D01*
X015414Y002177D01*
X015315Y002177D01*
X015315Y002296D01*
X015221Y002390D01*
X014259Y002390D01*
X014165Y002296D01*
X014165Y002175D01*
X013615Y002175D01*
X013440Y002350D01*
X013440Y002461D01*
X013467Y002488D01*
X013519Y002613D01*
X013519Y002747D01*
X013467Y002872D01*
X013372Y002967D01*
X013247Y003019D01*
X013113Y003019D01*
X012988Y002967D01*
X012893Y002872D01*
X012841Y002747D01*
X012841Y002613D01*
X012893Y002488D01*
X012920Y002461D01*
X012920Y002191D01*
X012960Y002095D01*
X013033Y002022D01*
X013287Y001768D01*
X013287Y001768D01*
X013360Y001695D01*
X013456Y001655D01*
X014165Y001655D01*
X014165Y001534D01*
X014259Y001440D01*
X015221Y001440D01*
X015315Y001534D01*
X015315Y001658D01*
X015414Y001658D01*
X015464Y001608D01*
X015896Y001608D01*
X015986Y001697D01*
X016002Y001669D01*
X016032Y001639D01*
X016068Y001618D01*
X016109Y001608D01*
X016280Y001608D01*
X016280Y001917D01*
X016280Y001607D01*
X016451Y001608D01*
X016492Y001618D01*
X016528Y001639D01*
X016558Y001669D01*
X016579Y001706D01*
X016590Y001746D01*
X016590Y001917D01*
X016280Y001917D01*
X016280Y001917D01*
X016280Y001918D01*
X016280Y002227D01*
X016280Y001918D01*
X016280Y001918D01*
X016590Y001918D01*
X016590Y002089D01*
X016579Y002129D01*
X016558Y002166D01*
X016528Y002196D01*
X016492Y002217D01*
X016451Y002227D01*
X016280Y002227D01*
X016109Y002227D01*
X016068Y002217D01*
X016032Y002196D01*
X016002Y002166D01*
X015986Y002138D01*
X015940Y002184D01*
X015940Y002414D01*
X015980Y002454D01*
X016064Y002370D01*
X016496Y002370D01*
X016546Y002420D01*
X016986Y002420D01*
X016998Y002391D01*
X017141Y002248D01*
X017329Y002170D01*
X017531Y002170D01*
X017719Y002248D01*
X017862Y002391D01*
X017930Y002554D01*
X017998Y002391D01*
X018141Y002248D01*
X018329Y002170D01*
X018531Y002170D01*
X018719Y002248D01*
X018862Y002391D01*
X018930Y002554D01*
X018998Y002391D01*
X019141Y002248D01*
X019329Y002170D01*
X019531Y002170D01*
X019719Y002248D01*
X019862Y002391D01*
X019930Y002554D01*
X019998Y002391D01*
X020141Y002248D01*
X020329Y002170D01*
X020531Y002170D01*
X020719Y002248D01*
X020862Y002391D01*
X020930Y002554D01*
X020998Y002391D01*
X021141Y002248D01*
X021329Y002170D01*
X021531Y002170D01*
X021719Y002248D01*
X021862Y002391D01*
X021933Y002561D01*
X021933Y002561D01*
X021957Y002484D01*
X021994Y002413D01*
X022041Y002348D01*
X022098Y002291D01*
X022163Y002244D01*
X022234Y002207D01*
X022311Y002183D01*
X022390Y002170D01*
X022410Y002170D01*
X022410Y002660D01*
X022450Y002660D01*
X022450Y002700D01*
X022410Y002700D01*
X022410Y003190D01*
X022390Y003190D01*
X022311Y003177D01*
X022234Y003153D01*
X022163Y003116D01*
X022098Y003069D01*
X022041Y003012D01*
X021994Y002947D01*
X021957Y002876D01*
X021933Y002799D01*
X021862Y002969D01*
X021719Y003112D01*
X021531Y003190D01*
X021329Y003190D01*
X021141Y003112D01*
X020998Y002969D01*
X020930Y002806D01*
X020862Y002969D01*
X020719Y003112D01*
X020531Y003190D01*
X020329Y003190D01*
X020280Y003170D01*
X020232Y003217D01*
X020232Y003353D01*
X020196Y003441D01*
X019447Y004190D01*
X020353Y004190D01*
X020441Y004227D01*
X021066Y004852D01*
X021133Y004919D01*
X021170Y005007D01*
X021170Y008581D01*
X021529Y008940D01*
X022581Y008940D01*
X022902Y008618D01*
X022777Y008670D01*
X022583Y008670D01*
X022402Y008595D01*
X022265Y008458D01*
X022190Y008277D01*
X022190Y008083D01*
X022265Y007902D01*
X022402Y007765D01*
X022583Y007690D01*
X022777Y007690D01*
X022815Y007706D01*
X023902Y006618D01*
X023777Y006670D01*
X023583Y006670D01*
X023402Y006595D01*
X023265Y006458D01*
X023190Y006277D01*
X023190Y006083D01*
X023242Y005958D01*
X023154Y006045D01*
X023170Y006083D01*
X023170Y006277D01*
X023095Y006458D01*
X022958Y006595D01*
X022777Y006670D01*
X022583Y006670D01*
X022402Y006595D01*
X022265Y006458D01*
X022190Y006277D01*
X022190Y006083D01*
X022265Y005902D01*
X022402Y005765D01*
X022583Y005690D01*
X022777Y005690D01*
X022815Y005706D01*
X023544Y004977D01*
X023632Y004940D01*
X023961Y004940D01*
X023893Y004872D01*
X023841Y004747D01*
X023841Y004613D01*
X023893Y004488D01*
X023940Y004441D01*
X023940Y004266D01*
X023870Y004196D01*
X023870Y003764D01*
X023954Y003680D01*
X023894Y003620D01*
X023716Y003620D01*
X023650Y003686D01*
X023678Y003702D01*
X023708Y003732D01*
X023729Y003768D01*
X023740Y003809D01*
X023740Y003980D01*
X023740Y004151D01*
X023729Y004192D01*
X023708Y004228D01*
X023678Y004258D01*
X023642Y004279D01*
X023601Y004290D01*
X023430Y004290D01*
X023430Y003980D01*
X023430Y003980D01*
X023740Y003980D01*
X023430Y003980D01*
X023430Y003980D01*
X023430Y003980D01*
X023120Y003980D01*
X023120Y004151D01*
X023131Y004192D01*
X023152Y004228D01*
X023182Y004258D01*
X023218Y004279D01*
X023259Y004290D01*
X023430Y004290D01*
X023430Y003980D01*
X023120Y003980D01*
X023120Y003809D01*
X023131Y003768D01*
X023152Y003732D01*
X023182Y003702D01*
X023210Y003686D01*
X023120Y003596D01*
X023120Y003164D01*
X023214Y003070D01*
X023646Y003070D01*
X023716Y003140D01*
X023894Y003140D01*
X023964Y003070D01*
X024396Y003070D01*
X024490Y003164D01*
X024490Y003596D01*
X024406Y003680D01*
X024490Y003764D01*
X024490Y004196D01*
X024420Y004266D01*
X024420Y004441D01*
X024467Y004488D01*
X024519Y004613D01*
X024519Y004747D01*
X024467Y004872D01*
X024399Y004940D01*
X025961Y004940D01*
X025941Y004920D01*
X025132Y004920D01*
X025044Y004883D01*
X024977Y004816D01*
X024727Y004566D01*
X024690Y004478D01*
X024690Y004329D01*
X024620Y004259D01*
X024620Y003826D01*
X024704Y003742D01*
X024620Y003659D01*
X024620Y003226D01*
X024714Y003133D01*
X025146Y003133D01*
X025216Y003203D01*
X025278Y003203D01*
X025368Y003058D02*
X022774Y003058D01*
X022762Y003069D02*
X022697Y003116D01*
X022626Y003153D01*
X022549Y003177D01*
X022470Y003190D01*
X022450Y003190D01*
X022450Y002700D01*
X022940Y002700D01*
X022940Y002720D01*
X022927Y002799D01*
X022903Y002876D01*
X022866Y002947D01*
X022819Y003012D01*
X022762Y003069D01*
X022891Y002899D02*
X025084Y002899D01*
X024925Y002741D02*
X022937Y002741D01*
X022940Y002660D02*
X022450Y002660D01*
X022450Y002170D01*
X022470Y002170D01*
X022549Y002183D01*
X022626Y002207D01*
X022697Y002244D01*
X022762Y002291D01*
X022819Y002348D01*
X022866Y002413D01*
X022903Y002484D01*
X022927Y002561D01*
X022940Y002640D01*
X022940Y002660D01*
X022931Y002582D02*
X024840Y002582D01*
X024774Y002424D02*
X022872Y002424D01*
X022726Y002265D02*
X024750Y002265D01*
X024750Y002107D02*
X016585Y002107D01*
X016590Y001948D02*
X024769Y001948D01*
X024835Y001790D02*
X016590Y001790D01*
X016514Y001631D02*
X024914Y001631D01*
X025072Y001473D02*
X015254Y001473D01*
X015315Y001631D02*
X015440Y001631D01*
X015920Y001631D02*
X016046Y001631D01*
X016280Y001631D02*
X016280Y001631D01*
X016280Y001790D02*
X016280Y001790D01*
X016280Y001948D02*
X016280Y001948D01*
X016280Y002107D02*
X016280Y002107D01*
X015940Y002265D02*
X017124Y002265D01*
X017736Y002265D02*
X018124Y002265D01*
X017984Y002424D02*
X017876Y002424D01*
X018736Y002265D02*
X019124Y002265D01*
X018984Y002424D02*
X018876Y002424D01*
X019430Y002680D02*
X018618Y003493D01*
X017618Y003493D01*
X017152Y003958D01*
X017152Y004490D01*
X017467Y004490D02*
X017467Y004143D01*
X017680Y003930D01*
X018743Y003930D01*
X019055Y003618D01*
X019628Y004009D02*
X023120Y004009D01*
X023124Y004167D02*
X019470Y004167D01*
X019368Y004430D02*
X020305Y004430D01*
X020930Y005055D01*
X020930Y008680D01*
X021430Y009180D01*
X022680Y009180D01*
X023680Y008180D01*
X024430Y008430D02*
X022680Y010180D01*
X023170Y010190D02*
X023190Y010190D01*
X023168Y010032D02*
X023211Y010032D01*
X023485Y009715D02*
X023523Y009715D01*
X023643Y009556D02*
X024733Y009556D01*
X024720Y009588D02*
X024790Y009419D01*
X024919Y009290D01*
X025088Y009220D01*
X025271Y009220D01*
X025441Y009290D01*
X025570Y009419D01*
X025640Y009588D01*
X025640Y009771D01*
X025631Y009792D01*
X026279Y010440D01*
X027314Y010440D01*
X027315Y010436D01*
X027436Y010315D01*
X027594Y010250D01*
X027766Y010250D01*
X027924Y010315D01*
X027940Y010332D01*
X027940Y010028D01*
X027858Y010110D01*
X027690Y010110D01*
X027690Y009690D01*
X027670Y009690D01*
X027670Y010110D01*
X027502Y010110D01*
X027250Y009858D01*
X027250Y009690D01*
X027670Y009690D01*
X027670Y009670D01*
X027250Y009670D01*
X027250Y009502D01*
X027502Y009250D01*
X027670Y009250D01*
X027670Y009670D01*
X027690Y009670D01*
X027690Y009250D01*
X027858Y009250D01*
X027940Y009332D01*
X027940Y009132D01*
X027977Y009044D01*
X028250Y008771D01*
X028250Y008502D01*
X028502Y008250D01*
X028858Y008250D01*
X029110Y008502D01*
X029110Y008858D01*
X028858Y009110D01*
X028589Y009110D01*
X028420Y009279D01*
X028420Y009332D01*
X028502Y009250D01*
X028858Y009250D01*
X029110Y009502D01*
X029110Y009714D01*
X029592Y010196D01*
X029635Y010299D01*
X029635Y012330D01*
X029651Y012330D01*
X029745Y012424D01*
X029745Y013186D01*
X029651Y013280D01*
X029059Y013280D01*
X029055Y013276D01*
X029051Y013280D01*
X028459Y013280D01*
X028365Y013186D01*
X028365Y012424D01*
X028459Y012330D01*
X028475Y012330D01*
X028475Y011871D01*
X028180Y011576D01*
X027839Y011917D01*
X027736Y011960D01*
X025551Y011960D01*
X025441Y012070D01*
X025271Y012140D01*
X025088Y012140D01*
X024919Y012070D01*
X024790Y011941D01*
X024720Y011771D01*
X024720Y011588D01*
X024790Y011419D01*
X024919Y011290D01*
X025088Y011220D01*
X025271Y011220D01*
X025441Y011290D01*
X025551Y011400D01*
X027564Y011400D01*
X027917Y011047D01*
X027766Y011110D01*
X027594Y011110D01*
X027436Y011045D01*
X027315Y010924D01*
X027314Y010920D01*
X026132Y010920D01*
X026044Y010883D01*
X025292Y010131D01*
X025271Y010140D01*
X025088Y010140D01*
X024919Y010070D01*
X024790Y009941D01*
X024720Y009771D01*
X024720Y009588D01*
X024720Y009715D02*
X023837Y009715D01*
X024066Y009873D02*
X024762Y009873D01*
X024881Y010032D02*
X024149Y010032D01*
X024170Y010190D02*
X025351Y010190D01*
X025271Y010220D02*
X025441Y010290D01*
X025570Y010419D01*
X025640Y010588D01*
X025640Y010771D01*
X025570Y010941D01*
X025441Y011070D01*
X025271Y011140D01*
X025088Y011140D01*
X024919Y011070D01*
X024790Y010941D01*
X024720Y010771D01*
X024720Y010588D01*
X024790Y010419D01*
X024919Y010290D01*
X025088Y010220D01*
X025271Y010220D01*
X025499Y010349D02*
X025509Y010349D01*
X025606Y010507D02*
X025668Y010507D01*
X025640Y010666D02*
X025826Y010666D01*
X025985Y010824D02*
X025618Y010824D01*
X025528Y010983D02*
X027374Y010983D01*
X027665Y011300D02*
X025450Y011300D01*
X024910Y011300D02*
X023886Y011300D01*
X023920Y011458D02*
X024774Y011458D01*
X024720Y011617D02*
X023920Y011617D01*
X023968Y011775D02*
X024721Y011775D01*
X024787Y011934D02*
X024108Y011934D01*
X024170Y012092D02*
X024973Y012092D01*
X025387Y012092D02*
X028475Y012092D01*
X028475Y011934D02*
X027800Y011934D01*
X027981Y011775D02*
X028379Y011775D01*
X028221Y011617D02*
X028139Y011617D01*
X028180Y011180D02*
X028180Y009180D01*
X028680Y008680D01*
X029110Y008605D02*
X030400Y008605D01*
X030400Y008447D02*
X029055Y008447D01*
X028896Y008288D02*
X030400Y008288D01*
X030400Y008130D02*
X027570Y008130D01*
X027502Y008250D02*
X027858Y008250D01*
X028110Y008502D01*
X028110Y008858D01*
X027858Y009110D01*
X027502Y009110D01*
X027250Y008858D01*
X027250Y008502D01*
X027502Y008250D01*
X027464Y008288D02*
X027411Y008288D01*
X027305Y008447D02*
X027253Y008447D01*
X027250Y008605D02*
X027094Y008605D01*
X027250Y008764D02*
X026936Y008764D01*
X026680Y008680D02*
X027680Y007680D01*
X028110Y007654D02*
X028250Y007654D01*
X028250Y007813D02*
X028110Y007813D01*
X027997Y007971D02*
X028363Y007971D01*
X028464Y008288D02*
X027896Y008288D01*
X028055Y008447D02*
X028305Y008447D01*
X028250Y008605D02*
X028110Y008605D01*
X028110Y008764D02*
X028250Y008764D01*
X028099Y008922D02*
X028046Y008922D01*
X027961Y009081D02*
X027888Y009081D01*
X027940Y009239D02*
X025317Y009239D01*
X025415Y009081D02*
X027472Y009081D01*
X027314Y008922D02*
X025578Y008922D01*
X025180Y008680D02*
X026680Y008680D01*
X026733Y008288D02*
X025436Y008288D01*
X025297Y008130D02*
X026891Y008130D01*
X027050Y007971D02*
X025540Y007971D01*
X025180Y007680D02*
X026680Y007680D01*
X027180Y007180D01*
X028180Y007180D01*
X028680Y007680D01*
X029110Y007654D02*
X030400Y007654D01*
X030400Y007496D02*
X029104Y007496D01*
X028945Y007337D02*
X030400Y007337D01*
X030400Y007179D02*
X028518Y007179D01*
X028502Y007110D02*
X028250Y006858D01*
X028250Y006690D01*
X028670Y006690D01*
X028670Y007110D01*
X028502Y007110D01*
X028412Y007020D02*
X028359Y007020D01*
X028253Y006862D02*
X028107Y006862D01*
X028110Y006703D02*
X028250Y006703D01*
X028250Y006670D02*
X028250Y006502D01*
X028502Y006250D01*
X028670Y006250D01*
X028670Y006670D01*
X028250Y006670D01*
X028250Y006545D02*
X028110Y006545D01*
X028310Y006386D02*
X028366Y006386D01*
X028472Y006228D02*
X030400Y006228D01*
X030400Y006386D02*
X028994Y006386D01*
X029110Y006502D02*
X028858Y006250D01*
X028690Y006250D01*
X028690Y006670D01*
X028690Y006690D01*
X028670Y006690D01*
X028670Y006670D01*
X028690Y006670D01*
X029110Y006670D01*
X029110Y006502D01*
X029110Y006545D02*
X030400Y006545D01*
X030400Y006703D02*
X029110Y006703D01*
X029110Y006690D02*
X029110Y006858D01*
X028858Y007110D01*
X028690Y007110D01*
X028690Y006690D01*
X029110Y006690D01*
X029107Y006862D02*
X030400Y006862D01*
X030400Y007020D02*
X028948Y007020D01*
X028690Y007020D02*
X028670Y007020D01*
X028670Y006862D02*
X028690Y006862D01*
X028690Y006703D02*
X028670Y006703D01*
X028670Y006545D02*
X028690Y006545D01*
X028690Y006386D02*
X028670Y006386D01*
X028899Y006069D02*
X030400Y006069D01*
X030400Y005911D02*
X029058Y005911D01*
X029110Y005752D02*
X030400Y005752D01*
X030400Y005594D02*
X029110Y005594D01*
X029043Y005435D02*
X030400Y005435D01*
X030400Y005277D02*
X028885Y005277D01*
X029009Y004960D02*
X030400Y004960D01*
X030400Y005118D02*
X028581Y005118D01*
X028475Y005277D02*
X028423Y005277D01*
X028317Y005435D02*
X028043Y005435D01*
X028110Y005594D02*
X028250Y005594D01*
X028250Y005752D02*
X028110Y005752D01*
X028110Y005911D02*
X028058Y005911D01*
X028180Y006180D02*
X025430Y006180D01*
X024430Y007180D01*
X024430Y008430D01*
X024594Y008605D02*
X024720Y008605D01*
X024720Y008764D02*
X024436Y008764D01*
X024277Y008922D02*
X024782Y008922D01*
X024945Y009081D02*
X024119Y009081D01*
X023960Y009239D02*
X025043Y009239D01*
X024812Y009398D02*
X023802Y009398D01*
X023440Y009081D02*
X023119Y009081D01*
X022960Y009239D02*
X023282Y009239D01*
X023123Y009398D02*
X022782Y009398D01*
X022965Y009556D02*
X020052Y009556D01*
X020052Y009398D02*
X021328Y009398D01*
X021150Y009239D02*
X020025Y009239D01*
X020052Y009081D02*
X020991Y009081D01*
X020833Y008922D02*
X020052Y008922D01*
X020052Y008764D02*
X020705Y008764D01*
X020690Y008605D02*
X020022Y008605D01*
X020356Y008447D02*
X020690Y008447D01*
X020690Y008288D02*
X020375Y008288D01*
X020375Y008130D02*
X020690Y008130D01*
X020690Y007971D02*
X020375Y007971D01*
X020375Y007813D02*
X020690Y007813D01*
X020690Y007654D02*
X020375Y007654D01*
X020363Y007496D02*
X020690Y007496D01*
X020690Y007337D02*
X019452Y007337D01*
X019293Y007179D02*
X020690Y007179D01*
X020690Y007020D02*
X019454Y007020D01*
X019168Y006967D02*
X019743Y006393D01*
X019463Y005839D02*
X019204Y005839D01*
X019110Y005933D01*
X019110Y006021D01*
X019066Y005977D01*
X018908Y005819D01*
X018820Y005783D01*
X018780Y005783D01*
X018780Y005708D01*
X018370Y005708D01*
X018370Y005708D01*
X018780Y005708D01*
X018780Y005687D01*
X018888Y005731D01*
X019022Y005731D01*
X019147Y005680D01*
X019242Y005584D01*
X019294Y005460D01*
X019294Y005325D01*
X019242Y005201D01*
X019147Y005105D01*
X019065Y005072D01*
X019434Y004703D01*
X019433Y004709D01*
X019432Y004880D01*
X019742Y004880D01*
X019742Y004880D01*
X019433Y004880D01*
X019433Y005051D01*
X019443Y005092D01*
X019464Y005128D01*
X019494Y005158D01*
X019522Y005174D01*
X019433Y005264D01*
X019433Y005696D01*
X019463Y005726D01*
X019463Y005839D01*
X019463Y005752D02*
X018780Y005752D01*
X019000Y005911D02*
X019132Y005911D01*
X019233Y005594D02*
X019433Y005594D01*
X019433Y005435D02*
X019294Y005435D01*
X019274Y005277D02*
X019433Y005277D01*
X019459Y005118D02*
X019160Y005118D01*
X019177Y004960D02*
X019433Y004960D01*
X019432Y004801D02*
X019336Y004801D01*
X019743Y004880D02*
X019743Y004880D01*
X020052Y004801D02*
X020337Y004801D01*
X020495Y004960D02*
X020052Y004960D01*
X020026Y005118D02*
X020654Y005118D01*
X020690Y005277D02*
X020052Y005277D01*
X020052Y005435D02*
X020690Y005435D01*
X020690Y005594D02*
X020052Y005594D01*
X020022Y005752D02*
X020690Y005752D01*
X020690Y005911D02*
X020353Y005911D01*
X020375Y006069D02*
X020690Y006069D01*
X020690Y006228D02*
X020375Y006228D01*
X020375Y006386D02*
X020690Y006386D01*
X020690Y006545D02*
X020375Y006545D01*
X020375Y006703D02*
X020690Y006703D01*
X020690Y006862D02*
X020366Y006862D01*
X021170Y006862D02*
X023659Y006862D01*
X023501Y007020D02*
X021170Y007020D01*
X021170Y007179D02*
X023342Y007179D01*
X023184Y007337D02*
X021170Y007337D01*
X021170Y007496D02*
X023025Y007496D01*
X022867Y007654D02*
X021170Y007654D01*
X021170Y007813D02*
X021355Y007813D01*
X021402Y007765D02*
X021583Y007690D01*
X021777Y007690D01*
X021958Y007765D01*
X022095Y007902D01*
X022170Y008083D01*
X022170Y008277D01*
X022095Y008458D01*
X021958Y008595D01*
X021777Y008670D01*
X021583Y008670D01*
X021402Y008595D01*
X021265Y008458D01*
X021190Y008277D01*
X021190Y008083D01*
X021265Y007902D01*
X021402Y007765D01*
X021236Y007971D02*
X021170Y007971D01*
X021170Y008130D02*
X021190Y008130D01*
X021194Y008288D02*
X021170Y008288D01*
X021170Y008447D02*
X021260Y008447D01*
X021194Y008605D02*
X021426Y008605D01*
X021353Y008764D02*
X022757Y008764D01*
X022599Y008922D02*
X021511Y008922D01*
X021934Y008605D02*
X022426Y008605D01*
X022260Y008447D02*
X022100Y008447D01*
X022166Y008288D02*
X022194Y008288D01*
X022190Y008130D02*
X022170Y008130D01*
X022124Y007971D02*
X022236Y007971D01*
X022355Y007813D02*
X022005Y007813D01*
X022680Y008180D02*
X025180Y005680D01*
X027680Y005680D01*
X028180Y005180D02*
X023680Y005180D01*
X022680Y006180D01*
X023125Y006386D02*
X023235Y006386D01*
X023190Y006228D02*
X023170Y006228D01*
X023164Y006069D02*
X023196Y006069D01*
X023352Y006545D02*
X023008Y006545D01*
X022352Y006545D02*
X022008Y006545D01*
X021958Y006595D02*
X021777Y006670D01*
X021583Y006670D01*
X021402Y006595D01*
X021265Y006458D01*
X021190Y006277D01*
X021190Y006083D01*
X021265Y005902D01*
X021402Y005765D01*
X021583Y005690D01*
X021777Y005690D01*
X021958Y005765D01*
X022095Y005902D01*
X022170Y006083D01*
X022170Y006277D01*
X022095Y006458D01*
X021958Y006595D01*
X022125Y006386D02*
X022235Y006386D01*
X022190Y006228D02*
X022170Y006228D01*
X022164Y006069D02*
X022196Y006069D01*
X022261Y005911D02*
X022099Y005911D01*
X021927Y005752D02*
X022433Y005752D01*
X022927Y005594D02*
X021170Y005594D01*
X021170Y005752D02*
X021433Y005752D01*
X021261Y005911D02*
X021170Y005911D01*
X021170Y006069D02*
X021196Y006069D01*
X021190Y006228D02*
X021170Y006228D01*
X021170Y006386D02*
X021235Y006386D01*
X021170Y006545D02*
X021352Y006545D01*
X021170Y006703D02*
X023818Y006703D01*
X024670Y007337D02*
X024872Y007337D01*
X024771Y007179D02*
X026842Y007179D01*
X026684Y007337D02*
X025488Y007337D01*
X025088Y006862D02*
X025889Y006862D01*
X025841Y006703D02*
X025246Y006703D01*
X025405Y006545D02*
X025869Y006545D01*
X026180Y006680D02*
X027680Y006680D01*
X027001Y007020D02*
X024929Y007020D01*
X024759Y007496D02*
X024670Y007496D01*
X024670Y007654D02*
X024720Y007654D01*
X024737Y007813D02*
X024670Y007813D01*
X024670Y007971D02*
X024820Y007971D01*
X024670Y008130D02*
X025063Y008130D01*
X024924Y008288D02*
X024670Y008288D01*
X024670Y008447D02*
X024779Y008447D01*
X023757Y008764D02*
X023436Y008764D01*
X023277Y008922D02*
X023599Y008922D01*
X022523Y009715D02*
X021837Y009715D01*
X021777Y009690D02*
X021958Y009765D01*
X022095Y009902D01*
X022170Y010083D01*
X022170Y010277D01*
X022095Y010458D01*
X021958Y010595D01*
X021777Y010670D01*
X021583Y010670D01*
X021402Y010595D01*
X021265Y010458D01*
X021249Y010420D01*
X020669Y010420D01*
X020622Y010467D01*
X020497Y010519D01*
X020363Y010519D01*
X020238Y010467D01*
X020143Y010372D01*
X020091Y010247D01*
X020091Y010113D01*
X020143Y009988D01*
X020238Y009893D01*
X020363Y009841D01*
X020497Y009841D01*
X020622Y009893D01*
X020669Y009940D01*
X021249Y009940D01*
X021265Y009902D01*
X021402Y009765D01*
X021583Y009690D01*
X021777Y009690D01*
X021523Y009715D02*
X020028Y009715D01*
X019743Y009715D02*
X019742Y009715D01*
X019742Y009790D02*
X019571Y009790D01*
X019531Y009779D01*
X019494Y009758D01*
X019464Y009728D01*
X019443Y009692D01*
X019433Y009651D01*
X019433Y009480D01*
X019742Y009480D01*
X019742Y009480D01*
X019742Y009790D01*
X019742Y009556D02*
X019743Y009556D01*
X019433Y009556D02*
X018990Y009556D01*
X018990Y009398D02*
X019432Y009398D01*
X019460Y009239D02*
X018990Y009239D01*
X018920Y009081D02*
X019433Y009081D01*
X019433Y008922D02*
X018824Y008922D01*
X018665Y008764D02*
X019433Y008764D01*
X019463Y008605D02*
X018507Y008605D01*
X018348Y008447D02*
X019129Y008447D01*
X019110Y008288D02*
X018190Y008288D01*
X018052Y008130D02*
X019110Y008130D01*
X019110Y007971D02*
X018052Y007971D01*
X018052Y007813D02*
X019110Y007813D01*
X019090Y007654D02*
X018052Y007654D01*
X017997Y007496D02*
X017994Y007496D01*
X017960Y007337D02*
X017862Y007337D01*
X017920Y007179D02*
X017960Y007179D01*
X017960Y007020D02*
X017920Y007020D01*
X017680Y007180D02*
X017680Y006805D01*
X017833Y006652D01*
X018370Y006652D01*
X018770Y006652D01*
X018930Y006493D01*
X018930Y006180D01*
X018773Y006023D01*
X018370Y006023D01*
X017898Y006023D01*
X017743Y005868D01*
X017743Y005118D01*
X018618Y004243D01*
X019055Y004243D01*
X019993Y003305D01*
X019993Y003118D01*
X020430Y002680D01*
X020891Y002899D02*
X020969Y002899D01*
X021086Y003058D02*
X020774Y003058D01*
X020233Y003216D02*
X023120Y003216D01*
X023120Y003375D02*
X020223Y003375D01*
X020104Y003533D02*
X023120Y003533D01*
X023200Y003692D02*
X019945Y003692D01*
X019787Y003850D02*
X023120Y003850D01*
X023430Y004009D02*
X023430Y004009D01*
X023430Y004167D02*
X023430Y004167D01*
X023736Y004167D02*
X023870Y004167D01*
X023870Y004009D02*
X023740Y004009D01*
X023740Y003850D02*
X023870Y003850D01*
X023942Y003692D02*
X023660Y003692D01*
X023430Y003380D02*
X024180Y003380D01*
X024490Y003375D02*
X024620Y003375D01*
X024620Y003533D02*
X024490Y003533D01*
X024418Y003692D02*
X024653Y003692D01*
X024620Y003850D02*
X024490Y003850D01*
X024490Y004009D02*
X024620Y004009D01*
X024620Y004167D02*
X024490Y004167D01*
X024420Y004326D02*
X024687Y004326D01*
X024693Y004484D02*
X024463Y004484D01*
X024519Y004643D02*
X024803Y004643D01*
X024962Y004801D02*
X024497Y004801D01*
X024180Y004680D02*
X024180Y003980D01*
X023940Y004326D02*
X020540Y004326D01*
X020698Y004484D02*
X023897Y004484D01*
X023841Y004643D02*
X020857Y004643D01*
X021015Y004801D02*
X023863Y004801D01*
X023585Y004960D02*
X021150Y004960D01*
X021170Y005118D02*
X023403Y005118D01*
X023244Y005277D02*
X021170Y005277D01*
X021170Y005435D02*
X023086Y005435D01*
X024930Y004430D02*
X025180Y004680D01*
X026180Y004680D01*
X025941Y004440D02*
X025988Y004393D01*
X026113Y004341D01*
X026247Y004341D01*
X026372Y004393D01*
X026467Y004488D01*
X026519Y004613D01*
X026519Y004747D01*
X026467Y004872D01*
X026399Y004940D01*
X027332Y004940D01*
X027250Y004858D01*
X027250Y004502D01*
X027502Y004250D01*
X027858Y004250D01*
X028110Y004502D01*
X028110Y004858D01*
X028028Y004940D01*
X028081Y004940D01*
X028250Y004771D01*
X028250Y004502D01*
X028502Y004250D01*
X028858Y004250D01*
X028934Y004326D02*
X030400Y004326D01*
X030400Y004484D02*
X029092Y004484D01*
X029110Y004643D02*
X030400Y004643D01*
X030400Y004801D02*
X029110Y004801D01*
X028680Y004680D02*
X028180Y005180D01*
X028220Y004801D02*
X028110Y004801D01*
X028110Y004643D02*
X028250Y004643D01*
X028268Y004484D02*
X028092Y004484D01*
X027934Y004326D02*
X028426Y004326D01*
X028400Y004009D02*
X027960Y004009D01*
X027858Y004110D02*
X028110Y003858D01*
X028110Y003690D01*
X027690Y003690D01*
X027670Y003690D01*
X027670Y004110D01*
X027502Y004110D01*
X027250Y003858D01*
X027250Y003690D01*
X027670Y003690D01*
X027670Y003670D01*
X027250Y003670D01*
X027250Y003502D01*
X027502Y003250D01*
X027670Y003250D01*
X027670Y003670D01*
X027690Y003670D01*
X027690Y003690D01*
X027690Y004110D01*
X027858Y004110D01*
X027690Y004009D02*
X027670Y004009D01*
X027670Y003850D02*
X027690Y003850D01*
X027690Y003692D02*
X027670Y003692D01*
X027690Y003670D02*
X027690Y003250D01*
X027858Y003250D01*
X028110Y003502D01*
X028110Y003670D01*
X027690Y003670D01*
X027690Y003533D02*
X027670Y003533D01*
X027670Y003375D02*
X027690Y003375D01*
X027983Y003375D02*
X028377Y003375D01*
X028250Y003533D02*
X028110Y003533D01*
X028110Y003692D02*
X028250Y003692D01*
X028250Y003850D02*
X028110Y003850D01*
X027400Y004009D02*
X025990Y004009D01*
X025990Y004167D02*
X025680Y004167D01*
X025680Y004168D01*
X025990Y004168D01*
X025990Y004339D01*
X025979Y004379D01*
X025958Y004416D01*
X025934Y004440D01*
X025941Y004440D01*
X025990Y004326D02*
X027426Y004326D01*
X027268Y004484D02*
X026463Y004484D01*
X026519Y004643D02*
X027250Y004643D01*
X027250Y004801D02*
X026497Y004801D01*
X025680Y004168D02*
X025680Y004167D01*
X025370Y004167D01*
X025240Y004167D01*
X025240Y004259D02*
X025170Y004329D01*
X025170Y004331D01*
X025279Y004440D01*
X025426Y004440D01*
X025402Y004416D01*
X025381Y004379D01*
X025370Y004339D01*
X025370Y004168D01*
X025680Y004168D01*
X025370Y004167D02*
X025370Y003996D01*
X025381Y003956D01*
X025402Y003919D01*
X025432Y003889D01*
X025460Y003873D01*
X025394Y003807D01*
X025307Y003807D01*
X025219Y003771D01*
X025173Y003725D01*
X025156Y003742D01*
X025240Y003826D01*
X025240Y004259D01*
X025173Y004326D02*
X025370Y004326D01*
X024930Y004430D02*
X024930Y004043D01*
X025240Y004009D02*
X025370Y004009D01*
X025436Y003850D02*
X025240Y003850D01*
X025355Y003568D02*
X025230Y003443D01*
X024930Y003443D01*
X024630Y003216D02*
X024490Y003216D01*
X025355Y003568D02*
X025680Y003568D01*
X025990Y003533D02*
X027250Y003533D01*
X027250Y003692D02*
X025990Y003692D01*
X025924Y003850D02*
X027250Y003850D01*
X027377Y003375D02*
X025990Y003375D01*
X025340Y001314D02*
X002520Y001314D01*
X002365Y001250D02*
X002707Y001392D01*
X002968Y001653D01*
X003110Y001995D01*
X003110Y002365D01*
X002968Y002707D01*
X002707Y002968D01*
X002365Y003110D01*
X001995Y003110D01*
X001653Y002968D01*
X001392Y002707D01*
X001250Y002365D01*
X001250Y001995D01*
X001392Y001653D01*
X001653Y001392D01*
X001995Y001250D01*
X002365Y001250D01*
X002788Y001473D02*
X010606Y001473D01*
X010607Y001472D02*
X010643Y001451D01*
X010684Y001440D01*
X011042Y001440D01*
X011042Y001837D01*
X011198Y001837D01*
X011198Y001993D01*
X011042Y001993D01*
X011042Y002390D01*
X010684Y002390D01*
X010643Y002379D01*
X010607Y002358D01*
X010577Y002328D01*
X010556Y002292D01*
X010545Y002251D01*
X010545Y001993D01*
X011042Y001993D01*
X011042Y001837D01*
X010545Y001837D01*
X010545Y001579D01*
X010556Y001538D01*
X010577Y001502D01*
X010607Y001472D01*
X010545Y001631D02*
X002946Y001631D01*
X003025Y001790D02*
X010545Y001790D01*
X010545Y002107D02*
X003110Y002107D01*
X003110Y002265D02*
X010549Y002265D01*
X011042Y002265D02*
X011198Y002265D01*
X011198Y002390D02*
X011198Y001993D01*
X011695Y001993D01*
X011695Y002251D01*
X011684Y002292D01*
X011663Y002328D01*
X011633Y002358D01*
X011597Y002379D01*
X011556Y002390D01*
X011198Y002390D01*
X011186Y002582D02*
X012854Y002582D01*
X012841Y002741D02*
X011269Y002741D01*
X011258Y002899D02*
X012920Y002899D01*
X013440Y002899D02*
X015373Y002899D01*
X015370Y002741D02*
X013519Y002741D01*
X013506Y002582D02*
X015370Y002582D01*
X015410Y002424D02*
X013440Y002424D01*
X013525Y002265D02*
X014165Y002265D01*
X014165Y001631D02*
X011695Y001631D01*
X011695Y001579D02*
X011695Y001837D01*
X011198Y001837D01*
X011198Y001440D01*
X011556Y001440D01*
X011597Y001451D01*
X011633Y001472D01*
X011663Y001502D01*
X011684Y001538D01*
X011695Y001579D01*
X011634Y001473D02*
X014226Y001473D01*
X013265Y001790D02*
X011695Y001790D01*
X011695Y002107D02*
X012955Y002107D01*
X013033Y002022D02*
X013033Y002022D01*
X013107Y001948D02*
X011198Y001948D01*
X011042Y001948D02*
X003091Y001948D01*
X003086Y002424D02*
X012920Y002424D01*
X012920Y002265D02*
X011691Y002265D01*
X011198Y002107D02*
X011042Y002107D01*
X011042Y001790D02*
X011198Y001790D01*
X011198Y001631D02*
X011042Y001631D01*
X011042Y001473D02*
X011198Y001473D01*
X009577Y002582D02*
X009460Y002582D01*
X009477Y002741D02*
X009530Y002741D01*
X009805Y002805D02*
X009305Y003305D01*
X009305Y003743D01*
X009493Y003930D01*
X009950Y003930D01*
X009950Y004430D01*
X012930Y004430D01*
X013253Y004326D02*
X015308Y004326D01*
X015308Y004484D02*
X013269Y004484D01*
X013197Y004643D02*
X015308Y004643D01*
X015308Y004801D02*
X012640Y004801D01*
X012430Y004930D02*
X012680Y005180D01*
X014180Y005180D01*
X013956Y005435D02*
X004940Y005435D01*
X004940Y005594D02*
X012927Y005594D01*
X012769Y005752D02*
X006649Y005752D01*
X006861Y005911D02*
X007123Y005911D01*
X007637Y005911D02*
X007723Y005911D01*
X008237Y005911D02*
X012610Y005911D01*
X012466Y006069D02*
X008290Y006069D01*
X008290Y006228D02*
X012440Y006228D01*
X012440Y006386D02*
X008290Y006386D01*
X008240Y006545D02*
X012440Y006545D01*
X012440Y006703D02*
X008240Y006703D01*
X008370Y006862D02*
X012440Y006862D01*
X012440Y007020D02*
X008370Y007020D01*
X008370Y007179D02*
X012342Y007179D01*
X012184Y007337D02*
X008370Y007337D01*
X008370Y007496D02*
X012025Y007496D01*
X011867Y007654D02*
X008277Y007654D01*
X007683Y007654D02*
X007677Y007654D01*
X007083Y007654D02*
X000960Y007654D01*
X000960Y007496D02*
X005545Y007496D01*
X004969Y007337D02*
X000960Y007337D01*
X000960Y007179D02*
X004811Y007179D01*
X004652Y007020D02*
X000960Y007020D01*
X000960Y006862D02*
X004494Y006862D01*
X004420Y006703D02*
X000960Y006703D01*
X000960Y006545D02*
X004420Y006545D01*
X004420Y006386D02*
X000960Y006386D01*
X000960Y006228D02*
X004420Y006228D01*
X004420Y006069D02*
X000960Y006069D01*
X000960Y005911D02*
X004420Y005911D01*
X004420Y005752D02*
X000960Y005752D01*
X000960Y005594D02*
X004420Y005594D01*
X004420Y005435D02*
X000960Y005435D01*
X000960Y005277D02*
X004420Y005277D01*
X004424Y005118D02*
X000960Y005118D01*
X000960Y004960D02*
X004533Y004960D01*
X004691Y004801D02*
X000960Y004801D01*
X000960Y004643D02*
X004850Y004643D01*
X005008Y004484D02*
X000960Y004484D01*
X000960Y004326D02*
X005584Y004326D01*
X005558Y004009D02*
X000960Y004009D01*
X000960Y004167D02*
X007188Y004167D01*
X007039Y004294D02*
X007039Y004294D01*
X007008Y004326D02*
X006776Y004326D01*
X006993Y004680D02*
X006180Y004680D01*
X005735Y005118D02*
X005110Y005118D01*
X005268Y004960D02*
X005509Y004960D01*
X004951Y005277D02*
X012437Y005277D01*
X012430Y004930D02*
X009950Y004930D01*
X009495Y004960D02*
X008240Y004960D01*
X008224Y005118D02*
X009499Y005118D01*
X009495Y004801D02*
X008240Y004801D01*
X008212Y004643D02*
X009523Y004643D01*
X009495Y004484D02*
X008240Y004484D01*
X008240Y004326D02*
X009495Y004326D01*
X009438Y004167D02*
X008187Y004167D01*
X008240Y004009D02*
X009232Y004009D01*
X009090Y003850D02*
X008240Y003850D01*
X008186Y003692D02*
X009065Y003692D01*
X009065Y003533D02*
X008541Y003533D01*
X008700Y003375D02*
X009065Y003375D01*
X009082Y003216D02*
X008807Y003216D01*
X008841Y003058D02*
X008894Y003058D01*
X008568Y003168D02*
X008568Y002805D01*
X007993Y002805D01*
X008219Y003058D02*
X008294Y003058D01*
X008568Y003168D02*
X008305Y003430D01*
X007785Y003430D01*
X007330Y003375D02*
X006825Y003375D01*
X007185Y003533D02*
X007330Y003533D01*
X007359Y003216D02*
X000960Y003216D01*
X000960Y003058D02*
X001868Y003058D01*
X001584Y002899D02*
X000960Y002899D01*
X000960Y002741D02*
X001425Y002741D01*
X001340Y002582D02*
X000960Y002582D01*
X000960Y002424D02*
X001274Y002424D01*
X001250Y002265D02*
X000960Y002265D01*
X000965Y002107D02*
X001250Y002107D01*
X001269Y001948D02*
X000990Y001948D01*
X001032Y001790D02*
X001335Y001790D01*
X001414Y001631D02*
X001100Y001631D01*
X001192Y001473D02*
X001572Y001473D01*
X001335Y001314D02*
X001840Y001314D01*
X001922Y000997D02*
X029438Y000997D01*
X028983Y003375D02*
X030400Y003375D01*
X030400Y003533D02*
X029110Y003533D01*
X029110Y003692D02*
X030400Y003692D01*
X030400Y003850D02*
X029110Y003850D01*
X028680Y005680D02*
X028180Y006180D01*
X028156Y007496D02*
X028104Y007496D01*
X027256Y007496D02*
X027204Y007496D01*
X027250Y007654D02*
X027045Y007654D01*
X026887Y007813D02*
X027208Y007813D01*
X028997Y007971D02*
X030400Y007971D01*
X030400Y007813D02*
X029110Y007813D01*
X029110Y008764D02*
X030400Y008764D01*
X030400Y008922D02*
X029046Y008922D01*
X028888Y009081D02*
X030400Y009081D01*
X030400Y009239D02*
X028460Y009239D01*
X029006Y009398D02*
X030400Y009398D01*
X030400Y009556D02*
X029110Y009556D01*
X029110Y009715D02*
X030400Y009715D01*
X030400Y009873D02*
X029269Y009873D01*
X029427Y010032D02*
X030400Y010032D01*
X030400Y010190D02*
X029586Y010190D01*
X029635Y010349D02*
X030400Y010349D01*
X030400Y010507D02*
X029635Y010507D01*
X029635Y010666D02*
X030400Y010666D01*
X030400Y010824D02*
X029635Y010824D01*
X029635Y010983D02*
X030400Y010983D01*
X030400Y011141D02*
X029635Y011141D01*
X029635Y011300D02*
X030400Y011300D01*
X030400Y011458D02*
X029635Y011458D01*
X029635Y011617D02*
X030400Y011617D01*
X030400Y011775D02*
X029635Y011775D01*
X029635Y011934D02*
X030400Y011934D01*
X030400Y012092D02*
X029635Y012092D01*
X029635Y012251D02*
X030400Y012251D01*
X030400Y012409D02*
X029730Y012409D01*
X029745Y012568D02*
X030400Y012568D01*
X030400Y012726D02*
X029745Y012726D01*
X029745Y012885D02*
X030400Y012885D01*
X030400Y013043D02*
X029745Y013043D01*
X029730Y013202D02*
X030400Y013202D01*
X030400Y013360D02*
X025811Y013360D01*
X026164Y013519D02*
X030400Y013519D01*
X030400Y013677D02*
X026323Y013677D01*
X026473Y013836D02*
X030400Y013836D01*
X030400Y013994D02*
X026510Y013994D01*
X026510Y014153D02*
X030400Y014153D01*
X030400Y014311D02*
X026510Y014311D01*
X027011Y014470D02*
X030400Y014470D01*
X030400Y014628D02*
X027087Y014628D01*
X027245Y014787D02*
X030400Y014787D01*
X030400Y014945D02*
X027404Y014945D01*
X027562Y015104D02*
X030400Y015104D01*
X030400Y015262D02*
X027721Y015262D01*
X027879Y015421D02*
X030400Y015421D01*
X030400Y015579D02*
X028004Y015579D01*
X028022Y015738D02*
X030400Y015738D01*
X030400Y015896D02*
X028022Y015896D01*
X028022Y016055D02*
X030400Y016055D01*
X030400Y016213D02*
X028022Y016213D01*
X028022Y016372D02*
X030400Y016372D01*
X030400Y016530D02*
X028022Y016530D01*
X028022Y016689D02*
X030400Y016689D01*
X030400Y016847D02*
X028022Y016847D01*
X028052Y017006D02*
X030400Y017006D01*
X030400Y017164D02*
X028052Y017164D01*
X028052Y017323D02*
X030400Y017323D01*
X030400Y017481D02*
X028020Y017481D01*
X028052Y017640D02*
X030400Y017640D01*
X030400Y017798D02*
X028052Y017798D01*
X028033Y017957D02*
X030400Y017957D01*
X030400Y018115D02*
X025726Y018115D01*
X025726Y018065D02*
X025726Y018412D01*
X025338Y018412D01*
X025338Y017926D01*
X025587Y017926D01*
X025628Y017937D01*
X025664Y017958D01*
X025694Y017988D01*
X025715Y018025D01*
X025726Y018065D01*
X025661Y017957D02*
X026639Y017957D01*
X026620Y017798D02*
X022751Y017798D01*
X022909Y017957D02*
X023698Y017957D01*
X023728Y017926D02*
X023634Y018020D01*
X023634Y018160D01*
X023113Y018160D01*
X022486Y017533D01*
X022467Y017488D01*
X022372Y017393D01*
X022247Y017341D01*
X022113Y017341D01*
X021988Y017393D01*
X021893Y017488D01*
X021841Y017613D01*
X021841Y017747D01*
X021893Y017872D01*
X021988Y017967D01*
X022033Y017986D01*
X022799Y018751D01*
X022916Y018800D01*
X023634Y018800D01*
X023634Y018940D01*
X023728Y019034D01*
X024451Y019034D01*
X024545Y018940D01*
X024545Y018020D01*
X024451Y017926D01*
X023728Y017926D01*
X023634Y018115D02*
X023068Y018115D01*
X022479Y018432D02*
X016427Y018432D01*
X016427Y018274D02*
X022321Y018274D01*
X022162Y018115D02*
X016427Y018115D01*
X016427Y017957D02*
X021977Y017957D01*
X021862Y017798D02*
X016427Y017798D01*
X016427Y017640D02*
X021841Y017640D01*
X021900Y017481D02*
X016427Y017481D01*
X016427Y017323D02*
X025320Y017323D01*
X025320Y017351D02*
X025320Y017180D01*
X025630Y017180D01*
X025630Y017180D01*
X025630Y017180D01*
X025630Y017490D01*
X025459Y017490D01*
X025418Y017479D01*
X025382Y017458D01*
X025352Y017428D01*
X025331Y017392D01*
X025320Y017351D01*
X025425Y017481D02*
X022460Y017481D01*
X022592Y017640D02*
X026620Y017640D01*
X026653Y017481D02*
X026455Y017481D01*
X026540Y017323D02*
X026620Y017323D01*
X026620Y017164D02*
X026540Y017164D01*
X026540Y017006D02*
X026620Y017006D01*
X026687Y016847D02*
X026510Y016847D01*
X026510Y016689D02*
X027463Y016689D01*
X027463Y016847D02*
X027173Y016847D01*
X027463Y016530D02*
X026510Y016530D01*
X026510Y016372D02*
X027463Y016372D01*
X027463Y016213D02*
X026510Y016213D01*
X026510Y016055D02*
X027463Y016055D01*
X027463Y015896D02*
X026510Y015896D01*
X026510Y015738D02*
X027404Y015738D01*
X027246Y015579D02*
X026510Y015579D01*
X026510Y015421D02*
X027087Y015421D01*
X026929Y015262D02*
X026510Y015262D01*
X026510Y015104D02*
X026770Y015104D01*
X026528Y014945D02*
X026510Y014945D01*
X025950Y014945D02*
X025866Y014945D01*
X025870Y014941D02*
X025741Y015070D01*
X025571Y015140D01*
X024788Y015140D01*
X024619Y015070D01*
X024490Y014941D01*
X024420Y014771D01*
X024420Y014588D01*
X024490Y014419D01*
X024619Y014290D01*
X024788Y014220D01*
X025571Y014220D01*
X025741Y014290D01*
X025870Y014419D01*
X025940Y014588D01*
X025940Y014771D01*
X025870Y014941D01*
X025934Y014787D02*
X025950Y014787D01*
X025940Y014628D02*
X025950Y014628D01*
X025950Y014470D02*
X025891Y014470D01*
X025950Y014311D02*
X025762Y014311D01*
X025950Y014153D02*
X023617Y014153D01*
X023670Y014311D02*
X024598Y014311D01*
X024469Y014470D02*
X023670Y014470D01*
X023670Y014628D02*
X024420Y014628D01*
X024426Y014787D02*
X023670Y014787D01*
X023670Y014945D02*
X024494Y014945D01*
X024700Y015104D02*
X023670Y015104D01*
X023670Y015262D02*
X024687Y015262D01*
X024490Y015421D02*
X023670Y015421D01*
X023718Y015579D02*
X024424Y015579D01*
X024420Y015738D02*
X023877Y015738D01*
X024035Y015896D02*
X024472Y015896D01*
X024604Y016055D02*
X024194Y016055D01*
X024180Y016380D02*
X023430Y015630D01*
X023430Y014305D01*
X023180Y014055D01*
X023180Y013430D01*
X023680Y012930D01*
X023680Y012180D01*
X023680Y011430D01*
X023430Y011180D01*
X020555Y011180D01*
X020130Y011605D01*
X020130Y012180D01*
X020130Y013855D01*
X019868Y014118D01*
X017930Y014118D01*
X017680Y014368D01*
X017680Y015180D01*
X016868Y015180D01*
X016618Y014930D01*
X016368Y015180D01*
X015680Y015180D01*
X015180Y015680D01*
X015180Y016180D01*
X015495Y016055D02*
X023515Y016055D01*
X023674Y016213D02*
X015519Y016213D01*
X015467Y016372D02*
X023832Y016372D01*
X023870Y016530D02*
X015239Y016530D01*
X014764Y016847D02*
X013277Y016847D01*
X013277Y016728D02*
X013277Y017400D01*
X013736Y017400D01*
X013839Y017443D01*
X013917Y017521D01*
X014297Y017901D01*
X014480Y017901D01*
X014488Y017893D01*
X014612Y017842D01*
X014747Y017842D01*
X014871Y017893D01*
X014967Y017989D01*
X015018Y018113D01*
X015018Y018248D01*
X014967Y018372D01*
X014871Y018468D01*
X014747Y018519D01*
X014612Y018519D01*
X014488Y018468D01*
X014481Y018461D01*
X014125Y018461D01*
X014022Y018418D01*
X013564Y017960D01*
X013277Y017960D01*
X013277Y018632D01*
X013183Y018726D01*
X012027Y018726D01*
X011933Y018632D01*
X011933Y016728D01*
X012027Y016634D01*
X013183Y016634D01*
X013277Y016728D01*
X013238Y016689D02*
X014605Y016689D01*
X014447Y016530D02*
X011328Y016530D01*
X011328Y016372D02*
X014288Y016372D01*
X014130Y016213D02*
X011328Y016213D01*
X011328Y016055D02*
X013971Y016055D01*
X013813Y015896D02*
X011328Y015896D01*
X011328Y015738D02*
X013654Y015738D01*
X013496Y015579D02*
X011301Y015579D01*
X010758Y015421D02*
X013400Y015421D01*
X013400Y015262D02*
X010658Y015262D01*
X010500Y015104D02*
X013400Y015104D01*
X013400Y014945D02*
X010341Y014945D01*
X009423Y014787D02*
X009206Y014787D01*
X009206Y014810D02*
X008928Y014810D01*
X008928Y015029D01*
X008928Y014810D01*
X008928Y014810D01*
X009206Y014810D01*
X009170Y014945D02*
X009404Y014945D01*
X009325Y015104D02*
X007215Y015104D01*
X007056Y015262D02*
X009338Y015262D01*
X009441Y015421D02*
X006898Y015421D01*
X006739Y015579D02*
X007059Y015579D01*
X007032Y015738D02*
X006272Y015738D01*
X006272Y015896D02*
X007032Y015896D01*
X007032Y016055D02*
X006290Y016055D01*
X006290Y016213D02*
X007032Y016213D01*
X007032Y016372D02*
X006290Y016372D01*
X006254Y016545D02*
X006290Y016566D01*
X006320Y016596D01*
X006341Y016632D01*
X006352Y016673D01*
X006352Y016930D01*
X006034Y016930D01*
X005717Y016930D01*
X005717Y016673D01*
X005728Y016632D01*
X005749Y016596D01*
X005779Y016566D01*
X005815Y016545D01*
X005856Y016534D01*
X006034Y016534D01*
X006034Y016930D01*
X006034Y016930D01*
X005717Y016930D01*
X005717Y017187D01*
X005728Y017228D01*
X005749Y017264D01*
X005779Y017294D01*
X005815Y017315D01*
X005856Y017326D01*
X006034Y017326D01*
X006034Y016930D01*
X006034Y016930D01*
X006034Y016930D01*
X006034Y017326D01*
X006213Y017326D01*
X006254Y017315D01*
X006290Y017294D01*
X006320Y017264D01*
X006341Y017228D01*
X006352Y017187D01*
X006352Y016930D01*
X006034Y016930D01*
X006034Y016534D01*
X006213Y016534D01*
X006254Y016545D01*
X006352Y016689D02*
X007032Y016689D01*
X007032Y016847D02*
X006352Y016847D01*
X006352Y017006D02*
X007032Y017006D01*
X007032Y017164D02*
X006352Y017164D01*
X006227Y017323D02*
X007032Y017323D01*
X007032Y018115D02*
X004956Y018115D01*
X004956Y018113D02*
X004956Y018247D01*
X004937Y018293D01*
X004937Y018538D01*
X005026Y018626D01*
X005488Y018626D01*
X005582Y018720D01*
X005582Y019640D01*
X005488Y019734D01*
X004765Y019734D01*
X004672Y019640D01*
X004672Y019177D01*
X004477Y018983D01*
X004477Y018992D01*
X004168Y018992D01*
X004168Y018993D01*
X004167Y018993D01*
X004167Y019302D01*
X003996Y019302D01*
X003956Y019292D01*
X003919Y019271D01*
X003889Y019241D01*
X003873Y019213D01*
X003784Y019302D01*
X003351Y019302D01*
X003258Y019209D01*
X003258Y018776D01*
X003288Y018746D01*
X003288Y018426D01*
X003258Y018396D01*
X003258Y017964D01*
X003351Y017870D01*
X003784Y017870D01*
X003868Y017954D01*
X003951Y017870D01*
X004384Y017870D01*
X004414Y017900D01*
X004418Y017900D01*
X004426Y017893D01*
X004550Y017841D01*
X004685Y017841D01*
X004809Y017893D01*
X004905Y017988D01*
X004956Y018113D01*
X004945Y018274D02*
X007032Y018274D01*
X007032Y018432D02*
X004937Y018432D01*
X004990Y018591D02*
X007032Y018591D01*
X007032Y018749D02*
X006759Y018749D01*
X006763Y018765D02*
X006763Y019112D01*
X006376Y019112D01*
X006376Y019248D01*
X006763Y019248D01*
X006763Y019595D01*
X006752Y019635D01*
X006731Y019672D01*
X006702Y019702D01*
X006665Y019723D01*
X006624Y019734D01*
X006376Y019734D01*
X006376Y019248D01*
X006240Y019248D01*
X006240Y019112D01*
X005853Y019112D01*
X005853Y018765D01*
X005864Y018725D01*
X005885Y018688D01*
X005915Y018658D01*
X005951Y018637D01*
X005992Y018626D01*
X006240Y018626D01*
X006240Y019112D01*
X006376Y019112D01*
X006376Y018626D01*
X006624Y018626D01*
X006665Y018637D01*
X006702Y018658D01*
X006731Y018688D01*
X006752Y018725D01*
X006763Y018765D01*
X006763Y018908D02*
X007032Y018908D01*
X007032Y019066D02*
X006763Y019066D01*
X007032Y019225D02*
X006376Y019225D01*
X006240Y019225D02*
X005582Y019225D01*
X005582Y019383D02*
X005853Y019383D01*
X005853Y019248D02*
X006240Y019248D01*
X006240Y019734D01*
X005992Y019734D01*
X005951Y019723D01*
X005915Y019702D01*
X005885Y019672D01*
X005864Y019635D01*
X005853Y019595D01*
X005853Y019248D01*
X005853Y019066D02*
X005582Y019066D01*
X005582Y018908D02*
X005853Y018908D01*
X005857Y018749D02*
X005582Y018749D01*
X006240Y018749D02*
X006376Y018749D01*
X006376Y018908D02*
X006240Y018908D01*
X006240Y019066D02*
X006376Y019066D01*
X006376Y019383D02*
X006240Y019383D01*
X006240Y019542D02*
X006376Y019542D01*
X006376Y019700D02*
X006240Y019700D01*
X005913Y019700D02*
X005522Y019700D01*
X005582Y019542D02*
X005853Y019542D01*
X006703Y019700D02*
X007032Y019700D01*
X007032Y019542D02*
X006763Y019542D01*
X006763Y019383D02*
X007032Y019383D01*
X008730Y019383D02*
X009630Y019383D01*
X009630Y019225D02*
X008730Y019225D01*
X008730Y019066D02*
X009630Y019066D01*
X009630Y018908D02*
X008730Y018908D01*
X008730Y018749D02*
X009630Y018749D01*
X009630Y018591D02*
X008730Y018591D01*
X008730Y018432D02*
X009630Y018432D01*
X009630Y018274D02*
X008730Y018274D01*
X008730Y018115D02*
X009630Y018115D01*
X009630Y017957D02*
X008730Y017957D01*
X008730Y017798D02*
X009630Y017798D01*
X009630Y017640D02*
X008730Y017640D01*
X008730Y017481D02*
X009630Y017481D01*
X009630Y017323D02*
X008730Y017323D01*
X008730Y017164D02*
X009630Y017164D01*
X009630Y017006D02*
X008730Y017006D01*
X008730Y016847D02*
X009630Y016847D01*
X009630Y016689D02*
X008730Y016689D01*
X008730Y016530D02*
X009630Y016530D01*
X009630Y016372D02*
X008730Y016372D01*
X008730Y016213D02*
X009630Y016213D01*
X009630Y016055D02*
X008730Y016055D01*
X008730Y015896D02*
X009630Y015896D01*
X009630Y015738D02*
X008730Y015738D01*
X008703Y015579D02*
X009657Y015579D01*
X008928Y014945D02*
X008928Y014945D01*
X008928Y014810D02*
X008928Y014810D01*
X008928Y014810D01*
X008928Y014495D01*
X008928Y014495D01*
X008928Y014714D01*
X008928Y014810D01*
X008928Y014787D02*
X008928Y014787D01*
X008928Y014628D02*
X008928Y014628D01*
X009171Y014628D02*
X009232Y014628D01*
X008687Y014945D02*
X007676Y014945D01*
X008100Y014787D02*
X008260Y014787D01*
X008260Y014628D02*
X008100Y014628D01*
X008100Y014470D02*
X008260Y014470D01*
X008260Y014311D02*
X008100Y014311D01*
X008100Y013994D02*
X008260Y013994D01*
X008260Y013836D02*
X008100Y013836D01*
X008100Y013677D02*
X008260Y013677D01*
X008260Y013519D02*
X008100Y013519D01*
X007835Y013360D02*
X008668Y013360D01*
X008668Y013202D02*
X007861Y013202D01*
X007894Y013043D02*
X008667Y013043D01*
X008317Y012990D02*
X008146Y012990D01*
X008106Y012979D01*
X008069Y012958D01*
X008039Y012928D01*
X008018Y012892D01*
X008008Y012851D01*
X008007Y012680D01*
X008317Y012680D01*
X008008Y012680D01*
X008008Y012509D01*
X008018Y012468D01*
X008039Y012432D01*
X008069Y012402D01*
X008106Y012381D01*
X008146Y012370D01*
X008317Y012370D01*
X008317Y012680D01*
X008317Y012680D01*
X008318Y012680D01*
X008317Y012680D01*
X008317Y012990D01*
X008317Y012885D02*
X008318Y012885D01*
X008317Y012726D02*
X008318Y012726D01*
X008317Y012568D02*
X008318Y012568D01*
X008317Y012409D02*
X008318Y012409D01*
X008573Y012409D02*
X008662Y012409D01*
X008477Y012092D02*
X011933Y012092D01*
X011933Y011934D02*
X008477Y011934D01*
X008477Y011775D02*
X011997Y011775D01*
X012243Y012055D02*
X012243Y012055D01*
X011933Y012251D02*
X007835Y012251D01*
X007835Y012409D02*
X008062Y012409D01*
X008008Y012568D02*
X007835Y012568D01*
X007835Y012726D02*
X008008Y012726D01*
X008016Y012885D02*
X007851Y012885D01*
X007259Y012885D02*
X006211Y012885D01*
X005749Y012885D02*
X005598Y012885D01*
X005380Y012885D02*
X005380Y012885D01*
X005380Y012870D02*
X005380Y013180D01*
X005380Y013180D01*
X005380Y013180D01*
X005070Y013180D01*
X005070Y013351D01*
X005081Y013392D01*
X005102Y013428D01*
X005132Y013458D01*
X005168Y013479D01*
X005209Y013490D01*
X005380Y013490D01*
X005380Y013180D01*
X005070Y013180D01*
X005070Y013009D01*
X005081Y012968D01*
X005102Y012932D01*
X005132Y012902D01*
X005168Y012881D01*
X005209Y012870D01*
X005380Y012870D01*
X005380Y013043D02*
X005380Y013043D01*
X005380Y013202D02*
X005380Y013202D01*
X005380Y013360D02*
X005380Y013360D01*
X005072Y013360D02*
X004522Y013360D01*
X004522Y013519D02*
X006373Y013519D01*
X006847Y013202D02*
X007249Y013202D01*
X007216Y013043D02*
X006689Y013043D01*
X007006Y013360D02*
X007157Y013360D01*
X007275Y012726D02*
X004059Y012726D01*
X004218Y012885D02*
X005162Y012885D01*
X005070Y013043D02*
X004376Y013043D01*
X004503Y013202D02*
X005070Y013202D01*
X005022Y012661D02*
X004773Y012661D01*
X004732Y012650D01*
X004696Y012629D01*
X004666Y012599D01*
X004645Y012563D01*
X004634Y012522D01*
X004634Y011998D01*
X005022Y011998D01*
X005022Y012661D01*
X005022Y012568D02*
X005157Y012568D01*
X005157Y012661D02*
X005157Y011998D01*
X005022Y011998D01*
X005022Y011862D01*
X005157Y011862D01*
X005157Y011199D01*
X005406Y011199D01*
X005446Y011210D01*
X005483Y011231D01*
X005513Y011261D01*
X005534Y011297D01*
X005545Y011338D01*
X005545Y011862D01*
X005157Y011862D01*
X005157Y011998D01*
X005545Y011998D01*
X005545Y012522D01*
X005534Y012563D01*
X005513Y012599D01*
X005483Y012629D01*
X005446Y012650D01*
X005406Y012661D01*
X005157Y012661D01*
X005157Y012409D02*
X005022Y012409D01*
X005022Y012251D02*
X005157Y012251D01*
X005157Y012092D02*
X005022Y012092D01*
X005022Y011934D02*
X003020Y011934D01*
X003015Y011938D02*
X002950Y011986D01*
X002877Y012023D01*
X002800Y012048D01*
X002720Y012060D01*
X002718Y012060D01*
X002718Y011584D01*
X003194Y011584D01*
X003194Y011587D01*
X003182Y011667D01*
X003157Y011744D01*
X003120Y011816D01*
X003072Y011881D01*
X003015Y011938D01*
X003141Y011775D02*
X004634Y011775D01*
X004634Y011862D02*
X004634Y011338D01*
X004645Y011297D01*
X004666Y011261D01*
X004696Y011231D01*
X004732Y011210D01*
X004773Y011199D01*
X005022Y011199D01*
X005022Y011862D01*
X004634Y011862D01*
X004634Y012092D02*
X000960Y012092D01*
X000960Y011934D02*
X002340Y011934D01*
X002345Y011938D02*
X002288Y011881D01*
X002240Y011816D01*
X002203Y011744D01*
X002178Y011667D01*
X002166Y011587D01*
X002166Y011584D01*
X002642Y011584D01*
X002642Y011508D01*
X002718Y011508D01*
X002718Y011032D01*
X002720Y011032D01*
X002800Y011044D01*
X002877Y011069D01*
X002950Y011106D01*
X003015Y011154D01*
X003072Y011211D01*
X003120Y011277D01*
X003157Y011349D01*
X003182Y011426D01*
X003194Y011506D01*
X003194Y011508D01*
X002718Y011508D01*
X002718Y011584D01*
X002642Y011584D01*
X002642Y012060D01*
X002640Y012060D01*
X002560Y012048D01*
X002483Y012023D01*
X002410Y011986D01*
X002345Y011938D01*
X002219Y011775D02*
X000960Y011775D01*
X000960Y011617D02*
X002170Y011617D01*
X002166Y011508D02*
X002166Y011506D01*
X002178Y011426D01*
X002203Y011349D01*
X002240Y011277D01*
X002288Y011211D01*
X002345Y011154D01*
X002410Y011106D01*
X002483Y011069D01*
X002560Y011044D01*
X002640Y011032D01*
X002642Y011032D01*
X002642Y011508D01*
X002166Y011508D01*
X002173Y011458D02*
X000960Y011458D01*
X000960Y011300D02*
X002228Y011300D01*
X002363Y011141D02*
X000960Y011141D01*
X000960Y010983D02*
X005262Y010983D01*
X005259Y010978D02*
X005248Y010937D01*
X005248Y010680D01*
X005566Y010680D01*
X005883Y010680D01*
X005883Y010937D01*
X005872Y010978D01*
X005851Y011014D01*
X005821Y011044D01*
X005785Y011065D01*
X005744Y011076D01*
X005566Y011076D01*
X005566Y010680D01*
X005566Y010680D01*
X005883Y010680D01*
X005883Y010423D01*
X005872Y010382D01*
X005851Y010346D01*
X005821Y010316D01*
X005785Y010295D01*
X005744Y010284D01*
X005566Y010284D01*
X005566Y010680D01*
X005566Y010680D01*
X005566Y010680D01*
X005566Y011076D01*
X005387Y011076D01*
X005346Y011065D01*
X005310Y011044D01*
X005280Y011014D01*
X005259Y010978D01*
X005248Y010824D02*
X000960Y010824D01*
X000960Y010666D02*
X002537Y010666D01*
X002578Y010683D02*
X002389Y010604D01*
X002244Y010460D01*
X002166Y010270D01*
X002166Y010066D01*
X002244Y009877D01*
X002389Y009732D01*
X002578Y009654D01*
X002782Y009654D01*
X002971Y009732D01*
X003116Y009877D01*
X003194Y010066D01*
X003194Y010270D01*
X003116Y010460D01*
X002971Y010604D01*
X002782Y010683D01*
X002578Y010683D01*
X002823Y010666D02*
X005248Y010666D01*
X005248Y010680D02*
X005248Y010423D01*
X005259Y010382D01*
X005280Y010346D01*
X005310Y010316D01*
X005346Y010295D01*
X005387Y010284D01*
X005566Y010284D01*
X005566Y010680D01*
X005566Y010680D01*
X005248Y010680D01*
X005248Y010507D02*
X003069Y010507D01*
X003162Y010349D02*
X005278Y010349D01*
X005566Y010349D02*
X005566Y010349D01*
X005566Y010507D02*
X005566Y010507D01*
X005566Y010666D02*
X005566Y010666D01*
X005566Y010824D02*
X005566Y010824D01*
X005566Y010983D02*
X005566Y010983D01*
X005870Y010983D02*
X005957Y010983D01*
X005957Y010824D02*
X005883Y010824D01*
X005883Y010666D02*
X005957Y010666D01*
X005957Y010507D02*
X005883Y010507D01*
X005853Y010349D02*
X005986Y010349D01*
X006563Y010349D02*
X010940Y010349D01*
X010940Y010507D02*
X006592Y010507D01*
X006592Y010666D02*
X010855Y010666D01*
X010697Y010824D02*
X008400Y010824D01*
X007935Y010824D02*
X007789Y010824D01*
X007568Y010824D02*
X007567Y010824D01*
X007567Y010808D02*
X007567Y011117D01*
X007258Y011117D01*
X007258Y010946D01*
X007268Y010906D01*
X007289Y010869D01*
X007319Y010839D01*
X007356Y010818D01*
X007396Y010808D01*
X007567Y010808D01*
X007567Y010983D02*
X007568Y010983D01*
X007567Y011141D02*
X007568Y011141D01*
X007567Y011300D02*
X007568Y011300D01*
X007260Y011300D02*
X006726Y011300D01*
X006726Y011458D02*
X007888Y011458D01*
X007888Y011617D02*
X006726Y011617D01*
X006551Y011141D02*
X007258Y011141D01*
X007258Y010983D02*
X006592Y010983D01*
X006592Y010824D02*
X007346Y010824D01*
X008168Y011118D02*
X010743Y011118D01*
X011180Y010680D01*
X011180Y008680D01*
X012680Y007180D01*
X012680Y006180D01*
X013180Y005680D01*
X014180Y005680D01*
X014467Y005393D01*
X014990Y005393D01*
X014990Y005708D02*
X016708Y005708D01*
X017305Y006305D01*
X017305Y006993D01*
X017680Y007180D02*
X017493Y007368D01*
X017055Y007368D01*
X016868Y007180D01*
X016868Y006555D01*
X016618Y006305D01*
X015680Y006305D01*
X015430Y006555D01*
X015430Y006805D01*
X015268Y006967D01*
X014990Y006967D01*
X014393Y006967D01*
X013980Y007380D01*
X013980Y007680D01*
X013980Y008680D01*
X014430Y008680D01*
X014680Y008930D01*
X014680Y009680D01*
X014220Y009715D02*
X014140Y009715D01*
X014140Y009871D02*
X014140Y009489D01*
X013871Y009220D01*
X013489Y009220D01*
X013220Y009489D01*
X013220Y009871D01*
X013489Y010140D01*
X013871Y010140D01*
X014140Y009871D01*
X014138Y009873D02*
X014222Y009873D01*
X014220Y009871D02*
X014220Y009489D01*
X014440Y009269D01*
X014440Y009029D01*
X014331Y008920D01*
X014266Y008920D01*
X014196Y008990D01*
X013764Y008990D01*
X013674Y008900D01*
X013658Y008928D01*
X013628Y008958D01*
X013592Y008979D01*
X013551Y008990D01*
X013380Y008990D01*
X013380Y008680D01*
X013380Y008680D01*
X013380Y008370D01*
X013551Y008370D01*
X013592Y008381D01*
X013628Y008402D01*
X013658Y008432D01*
X013674Y008460D01*
X013740Y008394D01*
X013740Y007966D01*
X013680Y007906D01*
X013596Y007990D01*
X013397Y007990D01*
X012357Y009029D01*
X012357Y009352D01*
X012489Y009220D01*
X012660Y009220D01*
X012660Y009660D01*
X012700Y009660D01*
X012700Y009700D01*
X012660Y009700D01*
X012660Y010140D01*
X012489Y010140D01*
X012357Y010008D01*
X012357Y010018D01*
X012559Y010220D01*
X012871Y010220D01*
X013140Y010489D01*
X013140Y010871D01*
X012871Y011140D01*
X012489Y011140D01*
X012220Y010871D01*
X012220Y010559D01*
X011914Y010253D01*
X011878Y010165D01*
X011878Y008882D01*
X011914Y008794D01*
X011982Y008727D01*
X013070Y007638D01*
X013070Y007464D01*
X013121Y007413D01*
X013093Y007384D01*
X013041Y007260D01*
X013041Y007125D01*
X013093Y007001D01*
X013134Y006959D01*
X013132Y006958D01*
X013102Y006928D01*
X013081Y006892D01*
X013070Y006851D01*
X013070Y006680D01*
X013380Y006680D01*
X013380Y006370D01*
X013551Y006370D01*
X013592Y006381D01*
X013628Y006402D01*
X013658Y006432D01*
X013674Y006460D01*
X013764Y006370D01*
X013922Y006370D01*
X014175Y006117D01*
X014271Y006077D01*
X014580Y006077D01*
X014580Y006023D01*
X014990Y006023D01*
X014990Y006023D01*
X015400Y006023D01*
X015400Y006154D01*
X015398Y006160D01*
X015400Y006161D01*
X015400Y006246D01*
X015544Y006102D01*
X015632Y006065D01*
X016665Y006065D01*
X016753Y006102D01*
X016821Y006169D01*
X017065Y006413D01*
X017065Y006404D01*
X016608Y005948D01*
X015400Y005948D01*
X015400Y006023D01*
X014990Y006023D01*
X014990Y006023D01*
X014580Y006023D01*
X014580Y005891D01*
X014582Y005885D01*
X014580Y005884D01*
X014580Y005633D01*
X014567Y005633D01*
X014383Y005816D01*
X014316Y005883D01*
X014228Y005920D01*
X013279Y005920D01*
X012920Y006279D01*
X012920Y007228D01*
X012883Y007316D01*
X011420Y008779D01*
X011420Y010728D01*
X011383Y010816D01*
X011316Y010883D01*
X010878Y011321D01*
X010790Y011357D01*
X008454Y011357D01*
X008447Y011364D01*
X008447Y011684D01*
X008447Y011458D02*
X016312Y011458D01*
X016154Y011300D02*
X010900Y011300D01*
X011058Y011141D02*
X015995Y011141D01*
X015837Y010983D02*
X015028Y010983D01*
X015051Y010960D02*
X014871Y011140D01*
X014489Y011140D01*
X014220Y010871D01*
X014220Y010489D01*
X014489Y010220D01*
X014801Y010220D01*
X015338Y009683D01*
X015338Y008216D01*
X015308Y008186D01*
X015308Y007554D01*
X015338Y007524D01*
X015338Y007521D01*
X015306Y007552D01*
X015230Y007552D01*
X015230Y008131D01*
X015277Y008178D01*
X015329Y008303D01*
X015329Y008437D01*
X015277Y008562D01*
X015182Y008657D01*
X015057Y008709D01*
X014923Y008709D01*
X014798Y008657D01*
X014703Y008562D01*
X014651Y008437D01*
X014651Y008303D01*
X014703Y008178D01*
X014750Y008131D01*
X014750Y007552D01*
X014674Y007552D01*
X014580Y007459D01*
X014580Y007207D01*
X014492Y007207D01*
X014263Y007437D01*
X014290Y007464D01*
X014290Y007896D01*
X014220Y007966D01*
X014220Y008394D01*
X014266Y008440D01*
X014478Y008440D01*
X014566Y008477D01*
X014633Y008544D01*
X014883Y008794D01*
X014920Y008882D01*
X014920Y009269D01*
X015140Y009489D01*
X015140Y009871D01*
X014871Y010140D01*
X014489Y010140D01*
X014220Y009871D01*
X014381Y010032D02*
X013979Y010032D01*
X013871Y010220D02*
X013489Y010220D01*
X013220Y010489D01*
X013220Y010871D01*
X013489Y011140D01*
X013871Y011140D01*
X014140Y010871D01*
X014140Y010489D01*
X013871Y010220D01*
X013999Y010349D02*
X014361Y010349D01*
X014220Y010507D02*
X014140Y010507D01*
X014140Y010666D02*
X014220Y010666D01*
X014220Y010824D02*
X014140Y010824D01*
X014028Y010983D02*
X014332Y010983D01*
X014680Y010680D02*
X015578Y009782D01*
X015578Y007870D01*
X015578Y007220D01*
X015805Y006993D01*
X015805Y006743D01*
X016180Y007055D02*
X015893Y007342D01*
X015893Y007870D01*
X015893Y008455D01*
X016118Y008680D01*
X016837Y008837D02*
X017180Y009180D01*
X017180Y010180D01*
X016930Y010430D01*
X015814Y010960D02*
X015051Y010960D01*
X015814Y010960D02*
X018193Y013339D01*
X018271Y013417D01*
X018374Y013460D01*
X019356Y013460D01*
X019363Y013467D01*
X019488Y013519D01*
X019622Y013519D01*
X019747Y013467D01*
X019842Y013372D01*
X019890Y013256D01*
X019890Y013756D01*
X019768Y013878D01*
X017882Y013878D01*
X017794Y013914D01*
X017544Y014164D01*
X017477Y014232D01*
X017440Y014320D01*
X017440Y014482D01*
X017419Y014490D01*
X017290Y014619D01*
X017220Y014788D01*
X017220Y014940D01*
X016967Y014940D01*
X016857Y014831D01*
X016857Y014266D01*
X016927Y014196D01*
X016927Y013764D01*
X016844Y013680D01*
X016927Y013596D01*
X016927Y013164D01*
X016834Y013070D01*
X016401Y013070D01*
X016371Y013100D01*
X016210Y013100D01*
X016210Y012874D01*
X016167Y012771D01*
X015894Y012498D01*
X015815Y012419D01*
X015712Y012376D01*
X015458Y012376D01*
X015458Y012280D01*
X015364Y012186D01*
X014996Y012186D01*
X014929Y012253D01*
X014926Y012248D01*
X014896Y012218D01*
X014860Y012197D01*
X014819Y012186D01*
X014680Y012186D01*
X014680Y012656D01*
X014680Y012656D01*
X014680Y012186D01*
X014541Y012186D01*
X014500Y012197D01*
X014464Y012218D01*
X014434Y012248D01*
X014430Y012255D01*
X014426Y012248D01*
X014396Y012218D01*
X014360Y012197D01*
X014319Y012186D01*
X014180Y012186D01*
X014180Y012656D01*
X014180Y012656D01*
X014180Y012186D01*
X014041Y012186D01*
X014000Y012197D01*
X013964Y012218D01*
X013934Y012248D01*
X013931Y012253D01*
X013864Y012186D01*
X013832Y012186D01*
X013464Y011818D01*
X013361Y011775D01*
X013579Y011934D02*
X016788Y011934D01*
X016946Y012092D02*
X013738Y012092D01*
X013929Y012251D02*
X013932Y012251D01*
X014180Y012251D02*
X014180Y012251D01*
X014180Y012409D02*
X014180Y012409D01*
X014180Y012568D02*
X014180Y012568D01*
X014180Y012656D02*
X014180Y012656D01*
X014402Y012656D01*
X014680Y012656D01*
X014680Y012656D01*
X014180Y012656D01*
X014180Y013430D01*
X014430Y013680D01*
X014430Y014180D01*
X014680Y014430D01*
X014680Y014704D01*
X014680Y015174D01*
X014790Y015174D01*
X014680Y015284D01*
X014570Y015174D01*
X014680Y015174D01*
X014680Y014704D01*
X014680Y014704D01*
X014680Y014245D01*
X014680Y014245D01*
X014680Y014704D01*
X014680Y014704D01*
X014680Y014628D02*
X014680Y014628D01*
X014680Y014470D02*
X014680Y014470D01*
X014680Y014311D02*
X014680Y014311D01*
X014510Y014242D02*
X014510Y013760D01*
X014995Y013760D01*
X014995Y014106D01*
X014984Y014147D01*
X014963Y014183D01*
X014933Y014213D01*
X014897Y014234D01*
X014859Y014244D01*
X014860Y014245D01*
X014896Y014266D01*
X014926Y014295D01*
X014929Y014300D01*
X014996Y014234D01*
X015364Y014234D01*
X015458Y014327D01*
X015458Y014643D01*
X015460Y014648D01*
X015460Y015061D01*
X015544Y014977D01*
X015632Y014940D01*
X016268Y014940D01*
X016378Y014831D01*
X016378Y014266D01*
X016308Y014196D01*
X016308Y013764D01*
X016391Y013680D01*
X016371Y013660D01*
X016176Y013660D01*
X016150Y013686D01*
X016178Y013702D01*
X016208Y013732D01*
X016229Y013768D01*
X016240Y013809D01*
X016240Y013980D01*
X016240Y014151D01*
X016229Y014192D01*
X016208Y014228D01*
X016178Y014258D01*
X016142Y014279D01*
X016101Y014290D01*
X015930Y014290D01*
X015930Y013980D01*
X015930Y013980D01*
X016240Y013980D01*
X015930Y013980D01*
X015930Y013980D01*
X015930Y013980D01*
X015620Y013980D01*
X015620Y014151D01*
X015631Y014192D01*
X015652Y014228D01*
X015682Y014258D01*
X015718Y014279D01*
X015759Y014290D01*
X015930Y014290D01*
X015930Y013980D01*
X015620Y013980D01*
X015620Y013809D01*
X015631Y013768D01*
X015652Y013732D01*
X015682Y013702D01*
X015710Y013686D01*
X015620Y013596D01*
X015620Y013164D01*
X015650Y013134D01*
X015650Y013046D01*
X015540Y012936D01*
X015458Y012936D01*
X015458Y013033D01*
X015364Y013126D01*
X014996Y013126D01*
X014929Y013060D01*
X014926Y013065D01*
X014896Y013094D01*
X014860Y013115D01*
X014859Y013116D01*
X014897Y013126D01*
X014933Y013147D01*
X014963Y013177D01*
X014984Y013213D01*
X014995Y013254D01*
X014995Y013600D01*
X014510Y013600D01*
X014510Y013760D01*
X014350Y013760D01*
X014350Y014234D01*
X014364Y014234D01*
X014431Y014300D01*
X014434Y014295D01*
X014464Y014266D01*
X014500Y014245D01*
X014510Y014242D01*
X014510Y014153D02*
X014350Y014153D01*
X014350Y013994D02*
X014510Y013994D01*
X014510Y013836D02*
X014350Y013836D01*
X014350Y013760D02*
X014350Y013600D01*
X013865Y013600D01*
X013865Y013254D01*
X013876Y013213D01*
X013897Y013177D01*
X013927Y013147D01*
X013963Y013126D01*
X014001Y013116D01*
X014000Y013115D01*
X013964Y013094D01*
X013934Y013065D01*
X013931Y013060D01*
X013864Y013126D01*
X013496Y013126D01*
X013402Y013033D01*
X013402Y012548D01*
X013189Y012335D01*
X013089Y012335D01*
X013059Y012365D01*
X012627Y012365D01*
X012543Y012281D01*
X012522Y012302D01*
X012522Y012424D01*
X012598Y012424D01*
X012692Y012517D01*
X012692Y013150D01*
X012598Y013244D01*
X012522Y013244D01*
X012522Y013314D01*
X012608Y013400D01*
X013486Y013400D01*
X013589Y013443D01*
X013667Y013521D01*
X013906Y013760D01*
X014350Y013760D01*
X014350Y013677D02*
X013823Y013677D01*
X013865Y013519D02*
X013664Y013519D01*
X013865Y013360D02*
X012568Y013360D01*
X012640Y013202D02*
X013883Y013202D01*
X014350Y013202D02*
X014510Y013202D01*
X014510Y013118D02*
X014510Y013600D01*
X014350Y013600D01*
X014350Y013118D01*
X014360Y013115D01*
X014396Y013094D01*
X014426Y013065D01*
X014430Y013058D01*
X014434Y013065D01*
X014464Y013094D01*
X014500Y013115D01*
X014510Y013118D01*
X014510Y013360D02*
X014350Y013360D01*
X014350Y013519D02*
X014510Y013519D01*
X014510Y013677D02*
X015701Y013677D01*
X015620Y013519D02*
X014995Y013519D01*
X014995Y013360D02*
X015620Y013360D01*
X015620Y013202D02*
X014977Y013202D01*
X015448Y013043D02*
X015647Y013043D01*
X016210Y013043D02*
X017897Y013043D01*
X017739Y012885D02*
X016210Y012885D01*
X016122Y012726D02*
X017580Y012726D01*
X017422Y012568D02*
X015963Y012568D01*
X015791Y012409D02*
X017263Y012409D01*
X017105Y012251D02*
X015429Y012251D01*
X014931Y012251D02*
X014928Y012251D01*
X014680Y012251D02*
X014680Y012251D01*
X014680Y012409D02*
X014680Y012409D01*
X014680Y012568D02*
X014680Y012568D01*
X014432Y012251D02*
X014428Y012251D01*
X013680Y012430D02*
X013680Y012656D01*
X013402Y012726D02*
X012692Y012726D01*
X012692Y012568D02*
X013402Y012568D01*
X013263Y012409D02*
X012522Y012409D01*
X011963Y012409D02*
X009173Y012409D01*
X009227Y012568D02*
X009763Y012568D01*
X009654Y012726D02*
X009227Y012726D01*
X009227Y012885D02*
X009530Y012885D01*
X010004Y013202D02*
X010282Y013202D01*
X009865Y013360D02*
X011963Y013360D01*
X011976Y013519D02*
X009818Y013519D01*
X009865Y013677D02*
X012094Y013677D01*
X012252Y013836D02*
X009865Y013836D01*
X009865Y013994D02*
X013348Y013994D01*
X013400Y014153D02*
X012634Y014153D01*
X012630Y014148D02*
X012660Y014178D01*
X012681Y014215D01*
X012692Y014255D01*
X012692Y014481D01*
X012288Y014481D01*
X012288Y014571D01*
X012692Y014571D01*
X012692Y014798D01*
X012681Y014838D01*
X012660Y014875D01*
X012630Y014904D01*
X012594Y014926D01*
X012553Y014936D01*
X012288Y014936D01*
X012288Y014571D01*
X012197Y014571D01*
X012197Y014481D01*
X012288Y014481D01*
X012288Y014116D01*
X012553Y014116D01*
X012594Y014127D01*
X012630Y014148D01*
X012692Y014311D02*
X013400Y014311D01*
X013400Y014470D02*
X012692Y014470D01*
X012692Y014628D02*
X013400Y014628D01*
X013400Y014787D02*
X012692Y014787D01*
X012288Y014787D02*
X012197Y014787D01*
X012197Y014936D02*
X011932Y014936D01*
X011891Y014926D01*
X011855Y014904D01*
X011825Y014875D01*
X011804Y014838D01*
X011793Y014798D01*
X011793Y014571D01*
X012197Y014571D01*
X012197Y014936D01*
X012197Y014628D02*
X012288Y014628D01*
X012288Y014470D02*
X012197Y014470D01*
X012197Y014481D02*
X012197Y014116D01*
X011932Y014116D01*
X011891Y014127D01*
X011855Y014148D01*
X011825Y014178D01*
X011804Y014215D01*
X011793Y014255D01*
X011793Y014481D01*
X012197Y014481D01*
X012197Y014311D02*
X012288Y014311D01*
X012288Y014153D02*
X012197Y014153D01*
X011851Y014153D02*
X011072Y014153D01*
X011129Y014311D02*
X011793Y014311D01*
X011793Y014470D02*
X011129Y014470D01*
X011129Y014628D02*
X011793Y014628D01*
X011793Y014787D02*
X011129Y014787D01*
X010288Y014153D02*
X009784Y014153D01*
X011078Y013202D02*
X011845Y013202D01*
X011793Y013043D02*
X011129Y013043D01*
X011129Y012885D02*
X011793Y012885D01*
X011793Y012726D02*
X011129Y012726D01*
X011129Y012568D02*
X011793Y012568D01*
X012692Y012885D02*
X013402Y012885D01*
X013412Y013043D02*
X012692Y013043D01*
X012597Y011775D02*
X012489Y011775D01*
X012332Y010983D02*
X011217Y010983D01*
X011375Y010824D02*
X012220Y010824D01*
X012220Y010666D02*
X011420Y010666D01*
X011420Y010507D02*
X012168Y010507D01*
X012009Y010349D02*
X011420Y010349D01*
X011420Y010190D02*
X011888Y010190D01*
X011878Y010032D02*
X011420Y010032D01*
X011420Y009873D02*
X011878Y009873D01*
X011878Y009715D02*
X011420Y009715D01*
X011420Y009556D02*
X011878Y009556D01*
X011878Y009398D02*
X011420Y009398D01*
X011420Y009239D02*
X011878Y009239D01*
X011878Y009081D02*
X011420Y009081D01*
X011420Y008922D02*
X011878Y008922D01*
X011945Y008764D02*
X011436Y008764D01*
X011594Y008605D02*
X012103Y008605D01*
X012262Y008447D02*
X011753Y008447D01*
X011911Y008288D02*
X012420Y008288D01*
X012579Y008130D02*
X012070Y008130D01*
X012228Y007971D02*
X012737Y007971D01*
X012896Y007813D02*
X012387Y007813D01*
X012545Y007654D02*
X013054Y007654D01*
X013070Y007496D02*
X012704Y007496D01*
X012862Y007337D02*
X013073Y007337D01*
X013041Y007179D02*
X012920Y007179D01*
X012920Y007020D02*
X013085Y007020D01*
X013073Y006862D02*
X012920Y006862D01*
X012920Y006703D02*
X013070Y006703D01*
X013070Y006680D02*
X013070Y006509D01*
X013081Y006468D01*
X013102Y006432D01*
X013132Y006402D01*
X013168Y006381D01*
X013209Y006370D01*
X013380Y006370D01*
X013380Y006680D01*
X013380Y006680D01*
X013380Y006680D01*
X013070Y006680D01*
X013070Y006545D02*
X012920Y006545D01*
X012920Y006386D02*
X013159Y006386D01*
X013380Y006386D02*
X013380Y006386D01*
X013380Y006545D02*
X013380Y006545D01*
X013601Y006386D02*
X013748Y006386D01*
X014065Y006228D02*
X012972Y006228D01*
X013130Y006069D02*
X014580Y006069D01*
X014580Y005911D02*
X014251Y005911D01*
X014447Y005752D02*
X014580Y005752D01*
X014580Y005118D02*
X014519Y005118D01*
X014580Y004960D02*
X014439Y004960D01*
X014990Y005078D02*
X015390Y005078D01*
X015493Y005180D01*
X015743Y005180D01*
X015967Y005435D02*
X016249Y005435D01*
X016300Y005456D02*
X016176Y005405D01*
X016080Y005309D01*
X016068Y005279D01*
X016030Y005372D01*
X015934Y005467D01*
X015933Y005468D01*
X016660Y005468D01*
X016755Y005468D01*
X016844Y005504D01*
X017441Y006102D01*
X017508Y006169D01*
X017545Y006257D01*
X017545Y006601D01*
X017697Y006449D01*
X017785Y006412D01*
X017960Y006412D01*
X017960Y006337D01*
X017960Y006263D01*
X017850Y006263D01*
X017762Y006226D01*
X017607Y006071D01*
X017539Y006003D01*
X017503Y005915D01*
X017503Y005150D01*
X016706Y005150D01*
X016706Y005185D01*
X016655Y005309D01*
X016559Y005405D01*
X016435Y005456D01*
X016300Y005456D01*
X016486Y005435D02*
X017503Y005435D01*
X017503Y005277D02*
X016668Y005277D01*
X016933Y005594D02*
X017503Y005594D01*
X017503Y005752D02*
X017091Y005752D01*
X017250Y005911D02*
X017503Y005911D01*
X017408Y006069D02*
X017605Y006069D01*
X017533Y006228D02*
X017765Y006228D01*
X017960Y006337D02*
X018370Y006337D01*
X018370Y006337D01*
X017960Y006337D01*
X017960Y006386D02*
X017545Y006386D01*
X017545Y006545D02*
X017601Y006545D01*
X017047Y006386D02*
X017038Y006386D01*
X016888Y006228D02*
X016879Y006228D01*
X016730Y006069D02*
X016675Y006069D01*
X016523Y006743D02*
X016523Y007870D01*
X016837Y007870D02*
X016837Y008837D01*
X017152Y008652D02*
X017555Y009055D01*
X017555Y011493D01*
X017930Y011868D01*
X018185Y012092D02*
X019820Y012092D01*
X019820Y012251D02*
X017896Y012251D01*
X018055Y012409D02*
X019833Y012409D01*
X019890Y012568D02*
X018213Y012568D01*
X018372Y012726D02*
X019890Y012726D01*
X019890Y012885D02*
X019727Y012885D01*
X019865Y013043D02*
X019890Y013043D01*
X019890Y013360D02*
X019847Y013360D01*
X019890Y013519D02*
X019623Y013519D01*
X019487Y013519D02*
X016927Y013519D01*
X016927Y013360D02*
X018214Y013360D01*
X018056Y013202D02*
X016927Y013202D01*
X016847Y013677D02*
X019890Y013677D01*
X019810Y013836D02*
X016927Y013836D01*
X016927Y013994D02*
X017714Y013994D01*
X017556Y014153D02*
X016927Y014153D01*
X016857Y014311D02*
X017444Y014311D01*
X017440Y014470D02*
X016857Y014470D01*
X016857Y014628D02*
X017286Y014628D01*
X017221Y014787D02*
X016857Y014787D01*
X016618Y014930D02*
X016618Y013980D01*
X016308Y013994D02*
X016240Y013994D01*
X016240Y013836D02*
X016308Y013836D01*
X016388Y013677D02*
X016159Y013677D01*
X015930Y013994D02*
X015930Y013994D01*
X015930Y014153D02*
X015930Y014153D01*
X015620Y014153D02*
X014981Y014153D01*
X014995Y013994D02*
X015620Y013994D01*
X015620Y013836D02*
X014995Y013836D01*
X015442Y014311D02*
X016378Y014311D01*
X016378Y014470D02*
X015458Y014470D01*
X015458Y014628D02*
X016378Y014628D01*
X016378Y014787D02*
X015460Y014787D01*
X015460Y014945D02*
X015620Y014945D01*
X015779Y015421D02*
X015960Y015421D01*
X015855Y015579D02*
X015620Y015579D01*
X015462Y015738D02*
X015841Y015738D01*
X015917Y015896D02*
X015420Y015896D01*
X014702Y015262D02*
X014658Y015262D01*
X014680Y015104D02*
X014680Y015104D01*
X014680Y014945D02*
X014680Y014945D01*
X014680Y014787D02*
X014680Y014787D01*
X016240Y014153D02*
X016308Y014153D01*
X017920Y014470D02*
X018472Y014470D01*
X018503Y014454D02*
X018439Y014487D01*
X018380Y014529D01*
X018329Y014580D01*
X018287Y014639D01*
X018254Y014703D01*
X018231Y014772D01*
X018220Y014844D01*
X018220Y015160D01*
X018660Y015160D01*
X018660Y015200D01*
X018660Y015940D01*
X018644Y015940D01*
X018572Y015929D01*
X018503Y015906D01*
X018439Y015873D01*
X018380Y015831D01*
X018329Y015780D01*
X018287Y015721D01*
X018254Y015657D01*
X018231Y015588D01*
X018220Y015516D01*
X018220Y015200D01*
X018660Y015200D01*
X018700Y015200D01*
X018700Y015940D01*
X018716Y015940D01*
X018788Y015929D01*
X018857Y015906D01*
X018921Y015873D01*
X018980Y015831D01*
X019031Y015780D01*
X019073Y015721D01*
X019106Y015657D01*
X019129Y015588D01*
X019140Y015516D01*
X019140Y015200D01*
X018700Y015200D01*
X018700Y015160D01*
X019140Y015160D01*
X019140Y014844D01*
X019129Y014772D01*
X019106Y014703D01*
X019073Y014639D01*
X019031Y014580D01*
X018980Y014529D01*
X018921Y014487D01*
X018857Y014454D01*
X018788Y014431D01*
X018716Y014420D01*
X018700Y014420D01*
X018700Y015160D01*
X018660Y015160D01*
X018660Y014420D01*
X018644Y014420D01*
X018572Y014431D01*
X018503Y014454D01*
X018660Y014470D02*
X018700Y014470D01*
X018700Y014628D02*
X018660Y014628D01*
X018660Y014787D02*
X018700Y014787D01*
X018700Y014945D02*
X018660Y014945D01*
X018660Y015104D02*
X018700Y015104D01*
X018700Y015262D02*
X018660Y015262D01*
X018660Y015421D02*
X018700Y015421D01*
X018700Y015579D02*
X018660Y015579D01*
X018660Y015738D02*
X018700Y015738D01*
X018700Y015896D02*
X018660Y015896D01*
X018483Y015896D02*
X017878Y015896D01*
X018071Y015738D02*
X018299Y015738D01*
X018230Y015579D02*
X018137Y015579D01*
X018140Y015421D02*
X018220Y015421D01*
X018220Y015262D02*
X018140Y015262D01*
X018140Y015104D02*
X018220Y015104D01*
X018220Y014945D02*
X018140Y014945D01*
X018139Y014787D02*
X018229Y014787D01*
X018294Y014628D02*
X018074Y014628D01*
X018888Y014470D02*
X019469Y014470D01*
X019419Y014490D02*
X019588Y014420D01*
X019771Y014420D01*
X019941Y014490D01*
X020070Y014619D01*
X020140Y014788D01*
X020140Y015571D01*
X020070Y015741D01*
X019941Y015870D01*
X019771Y015940D01*
X019588Y015940D01*
X019419Y015870D01*
X019290Y015741D01*
X019220Y015571D01*
X019220Y014788D01*
X019290Y014619D01*
X019419Y014490D01*
X019286Y014628D02*
X019066Y014628D01*
X019131Y014787D02*
X019221Y014787D01*
X019220Y014945D02*
X019140Y014945D01*
X019140Y015104D02*
X019220Y015104D01*
X019220Y015262D02*
X019140Y015262D01*
X019140Y015421D02*
X019220Y015421D01*
X019223Y015579D02*
X019130Y015579D01*
X019061Y015738D02*
X019289Y015738D01*
X019482Y015896D02*
X018877Y015896D01*
X019878Y015896D02*
X020482Y015896D01*
X020419Y015870D02*
X020290Y015741D01*
X020220Y015571D01*
X020220Y014788D01*
X020290Y014619D01*
X020419Y014490D01*
X020588Y014420D01*
X020771Y014420D01*
X020941Y014490D01*
X021070Y014619D01*
X021140Y014788D01*
X021140Y015571D01*
X021070Y015741D01*
X020941Y015870D01*
X020771Y015940D01*
X020588Y015940D01*
X020419Y015870D01*
X020289Y015738D02*
X020071Y015738D01*
X020137Y015579D02*
X020223Y015579D01*
X020220Y015421D02*
X020140Y015421D01*
X020140Y015262D02*
X020220Y015262D01*
X020220Y015104D02*
X020140Y015104D01*
X020140Y014945D02*
X020220Y014945D01*
X020221Y014787D02*
X020139Y014787D01*
X020074Y014628D02*
X020286Y014628D01*
X020469Y014470D02*
X019891Y014470D01*
X020013Y014311D02*
X022400Y014311D01*
X022400Y014470D02*
X021891Y014470D01*
X021941Y014490D02*
X022070Y014619D01*
X022140Y014788D01*
X022140Y015571D01*
X022070Y015741D01*
X021941Y015870D01*
X021771Y015940D01*
X021588Y015940D01*
X021419Y015870D01*
X021290Y015741D01*
X021220Y015571D01*
X021220Y014788D01*
X021290Y014619D01*
X021419Y014490D01*
X021588Y014420D01*
X021771Y014420D01*
X021941Y014490D01*
X022074Y014628D02*
X022286Y014628D01*
X022221Y014787D02*
X022139Y014787D01*
X022140Y014945D02*
X022220Y014945D01*
X022220Y015104D02*
X022140Y015104D01*
X022140Y015262D02*
X022220Y015262D01*
X022220Y015421D02*
X022140Y015421D01*
X022137Y015579D02*
X022223Y015579D01*
X022289Y015738D02*
X022071Y015738D01*
X021878Y015896D02*
X022482Y015896D01*
X022878Y015896D02*
X023357Y015896D01*
X023215Y015738D02*
X023071Y015738D01*
X023137Y015579D02*
X023190Y015579D01*
X023190Y015421D02*
X023140Y015421D01*
X023140Y015262D02*
X023190Y015262D01*
X023190Y015104D02*
X023140Y015104D01*
X023140Y014945D02*
X023190Y014945D01*
X023190Y014787D02*
X023139Y014787D01*
X023190Y014628D02*
X023074Y014628D01*
X022960Y014470D02*
X023190Y014470D01*
X023097Y014311D02*
X022960Y014311D01*
X022960Y014153D02*
X022961Y014153D01*
X022940Y013994D02*
X022890Y013994D01*
X022940Y013836D02*
X022731Y013836D01*
X022573Y013677D02*
X022940Y013677D01*
X022940Y013519D02*
X022414Y013519D01*
X022949Y013360D02*
X021293Y013360D01*
X021067Y013360D02*
X020370Y013360D01*
X020370Y013202D02*
X023069Y013202D01*
X023228Y013043D02*
X020370Y013043D01*
X020370Y012885D02*
X023386Y012885D01*
X023440Y012726D02*
X020370Y012726D01*
X020370Y012568D02*
X021375Y012568D01*
X021985Y012568D02*
X022375Y012568D01*
X022402Y012595D02*
X022265Y012458D01*
X022190Y012277D01*
X022190Y012083D01*
X022265Y011902D01*
X022402Y011765D01*
X022583Y011690D01*
X022777Y011690D01*
X022958Y011765D01*
X023095Y011902D01*
X023170Y012083D01*
X023170Y012277D01*
X023095Y012458D01*
X022958Y012595D01*
X022777Y012670D01*
X022583Y012670D01*
X022402Y012595D01*
X022244Y012409D02*
X022116Y012409D01*
X022170Y012251D02*
X022190Y012251D01*
X022190Y012092D02*
X022170Y012092D01*
X022108Y011934D02*
X022252Y011934D01*
X022392Y011775D02*
X021968Y011775D01*
X021392Y011775D02*
X020370Y011775D01*
X020410Y011934D02*
X020450Y011934D01*
X020458Y011617D02*
X023440Y011617D01*
X023392Y011775D02*
X022968Y011775D01*
X023108Y011934D02*
X023252Y011934D01*
X023190Y012092D02*
X023170Y012092D01*
X023170Y012251D02*
X023190Y012251D01*
X023244Y012409D02*
X023116Y012409D01*
X022985Y012568D02*
X023375Y012568D01*
X023920Y012726D02*
X024238Y012726D01*
X024080Y012885D02*
X023920Y012885D01*
X023921Y013043D02*
X023893Y013043D01*
X023763Y013202D02*
X023748Y013202D01*
X024237Y013519D02*
X024449Y013519D01*
X024420Y013677D02*
X024079Y013677D01*
X023982Y013836D02*
X024447Y013836D01*
X024543Y013994D02*
X023807Y013994D01*
X023553Y013994D02*
X023458Y013994D01*
X024396Y013360D02*
X024549Y013360D01*
X025388Y013202D02*
X028380Y013202D01*
X028365Y013043D02*
X025500Y013043D01*
X025519Y012885D02*
X028365Y012885D01*
X028365Y012726D02*
X025455Y012726D01*
X024170Y012251D02*
X028475Y012251D01*
X028380Y012409D02*
X024116Y012409D01*
X023985Y012568D02*
X028365Y012568D01*
X027823Y011141D02*
X023730Y011141D01*
X023572Y010983D02*
X024832Y010983D01*
X024742Y010824D02*
X018990Y010824D01*
X018990Y010666D02*
X021572Y010666D01*
X021788Y010666D02*
X022572Y010666D01*
X022788Y010666D02*
X023572Y010666D01*
X023788Y010666D02*
X024720Y010666D01*
X024754Y010507D02*
X024046Y010507D01*
X024141Y010349D02*
X024861Y010349D01*
X025712Y009873D02*
X027265Y009873D01*
X027250Y009715D02*
X025640Y009715D01*
X025627Y009556D02*
X027250Y009556D01*
X027354Y009398D02*
X025548Y009398D01*
X025180Y009680D02*
X026180Y010680D01*
X027680Y010680D01*
X027403Y010349D02*
X026188Y010349D01*
X026029Y010190D02*
X027940Y010190D01*
X027937Y010032D02*
X027940Y010032D01*
X027690Y010032D02*
X027670Y010032D01*
X027670Y009873D02*
X027690Y009873D01*
X027690Y009715D02*
X027670Y009715D01*
X027670Y009556D02*
X027690Y009556D01*
X027690Y009398D02*
X027670Y009398D01*
X027423Y010032D02*
X025871Y010032D01*
X023314Y010507D02*
X023046Y010507D01*
X023141Y010349D02*
X023219Y010349D01*
X022314Y010507D02*
X022046Y010507D01*
X022141Y010349D02*
X022219Y010349D01*
X022190Y010190D02*
X022170Y010190D01*
X022149Y010032D02*
X022211Y010032D01*
X022294Y009873D02*
X022066Y009873D01*
X021680Y010180D02*
X020430Y010180D01*
X020091Y010190D02*
X018990Y010190D01*
X018990Y010032D02*
X020125Y010032D01*
X020286Y009873D02*
X018990Y009873D01*
X018941Y009715D02*
X019457Y009715D01*
X018960Y010349D02*
X020133Y010349D01*
X020334Y010507D02*
X018990Y010507D01*
X018958Y010983D02*
X020413Y010983D01*
X020255Y011141D02*
X018990Y011141D01*
X018990Y011300D02*
X020096Y011300D01*
X019938Y011458D02*
X018970Y011458D01*
X018680Y011458D02*
X018680Y011458D01*
X018680Y011300D02*
X018680Y011300D01*
X018370Y011300D02*
X018302Y011300D01*
X018302Y011141D02*
X018370Y011141D01*
X018292Y011018D02*
X018271Y010982D01*
X018302Y010824D02*
X018370Y010824D01*
X018370Y010666D02*
X018302Y010666D01*
X018302Y010507D02*
X018370Y010507D01*
X018400Y010349D02*
X018272Y010349D01*
X018302Y010190D02*
X018370Y010190D01*
X018370Y010032D02*
X018302Y010032D01*
X018302Y009873D02*
X018370Y009873D01*
X018419Y009715D02*
X018253Y009715D01*
X018302Y009556D02*
X018370Y009556D01*
X018370Y009398D02*
X018302Y009398D01*
X018302Y009239D02*
X018370Y009239D01*
X018304Y009081D02*
X018232Y009081D01*
X017993Y008930D02*
X017993Y009380D01*
X017993Y008930D02*
X017467Y008405D01*
X017467Y007870D01*
X017152Y007870D02*
X017152Y008652D01*
X017782Y008220D02*
X018680Y009118D01*
X018680Y009380D01*
X017782Y008220D02*
X017782Y007870D01*
X018370Y007282D02*
X019057Y007282D01*
X019743Y007967D01*
X019168Y006967D02*
X018370Y006967D01*
X018370Y005393D02*
X018955Y005393D01*
X018720Y005078D02*
X018370Y005078D01*
X018720Y005078D02*
X019368Y004430D01*
X021774Y003058D02*
X022086Y003058D01*
X021969Y002899D02*
X021891Y002899D01*
X021933Y002799D02*
X021933Y002799D01*
X021876Y002424D02*
X021988Y002424D01*
X022134Y002265D02*
X021736Y002265D01*
X021124Y002265D02*
X020736Y002265D01*
X020876Y002424D02*
X020984Y002424D01*
X020124Y002265D02*
X019736Y002265D01*
X019876Y002424D02*
X019984Y002424D01*
X022410Y002424D02*
X022450Y002424D01*
X022450Y002582D02*
X022410Y002582D01*
X022410Y002741D02*
X022450Y002741D01*
X022450Y002899D02*
X022410Y002899D01*
X022410Y003058D02*
X022450Y003058D01*
X022450Y002265D02*
X022410Y002265D01*
X016391Y004009D02*
X010405Y004009D01*
X010405Y003850D02*
X016232Y003850D01*
X016074Y003692D02*
X013148Y003692D01*
X013254Y003533D02*
X015915Y003533D01*
X015757Y003375D02*
X013269Y003375D01*
X013195Y003216D02*
X015598Y003216D01*
X015451Y003058D02*
X011157Y003058D01*
X010206Y003058D02*
X010154Y003058D01*
X009950Y003430D02*
X012930Y003430D01*
X012712Y003692D02*
X010351Y003692D01*
X010353Y004167D02*
X012714Y004167D01*
X013146Y004167D02*
X015314Y004167D01*
X015950Y002424D02*
X016010Y002424D01*
X015420Y002265D02*
X015315Y002265D01*
X015400Y006069D02*
X015623Y006069D01*
X015418Y006228D02*
X015400Y006228D01*
X014990Y007282D02*
X014990Y008370D01*
X015234Y008605D02*
X015338Y008605D01*
X015325Y008447D02*
X015338Y008447D01*
X015323Y008288D02*
X015338Y008288D01*
X015308Y008130D02*
X015230Y008130D01*
X015230Y007971D02*
X015308Y007971D01*
X015308Y007813D02*
X015230Y007813D01*
X015230Y007654D02*
X015308Y007654D01*
X014750Y007654D02*
X014290Y007654D01*
X014290Y007496D02*
X014617Y007496D01*
X014580Y007337D02*
X014362Y007337D01*
X014290Y007813D02*
X014750Y007813D01*
X014750Y007971D02*
X014220Y007971D01*
X014220Y008130D02*
X014750Y008130D01*
X014657Y008288D02*
X014220Y008288D01*
X014493Y008447D02*
X014655Y008447D01*
X014694Y008605D02*
X014746Y008605D01*
X014853Y008764D02*
X015338Y008764D01*
X015338Y008922D02*
X014920Y008922D01*
X014920Y009081D02*
X015338Y009081D01*
X015338Y009239D02*
X014920Y009239D01*
X015048Y009398D02*
X015338Y009398D01*
X015338Y009556D02*
X015140Y009556D01*
X015140Y009715D02*
X015306Y009715D01*
X015148Y009873D02*
X015138Y009873D01*
X014989Y010032D02*
X014979Y010032D01*
X014831Y010190D02*
X012529Y010190D01*
X012700Y010140D02*
X012700Y009700D01*
X013140Y009700D01*
X013140Y009871D01*
X012871Y010140D01*
X012700Y010140D01*
X012700Y010032D02*
X012660Y010032D01*
X012660Y009873D02*
X012700Y009873D01*
X012700Y009715D02*
X012660Y009715D01*
X012700Y009660D02*
X013140Y009660D01*
X013140Y009489D01*
X012871Y009220D01*
X012700Y009220D01*
X012700Y009660D01*
X012700Y009556D02*
X012660Y009556D01*
X012660Y009398D02*
X012700Y009398D01*
X012700Y009239D02*
X012660Y009239D01*
X012470Y009239D02*
X012357Y009239D01*
X012357Y009081D02*
X014440Y009081D01*
X014440Y009239D02*
X013890Y009239D01*
X014048Y009398D02*
X014312Y009398D01*
X014220Y009556D02*
X014140Y009556D01*
X014264Y008922D02*
X014333Y008922D01*
X013696Y008922D02*
X013662Y008922D01*
X013380Y008922D02*
X013380Y008922D01*
X013380Y008990D02*
X013380Y008680D01*
X013380Y008680D01*
X013380Y008680D01*
X013070Y008680D01*
X013070Y008851D01*
X013081Y008892D01*
X013102Y008928D01*
X013132Y008958D01*
X013168Y008979D01*
X013209Y008990D01*
X013380Y008990D01*
X013380Y008764D02*
X013380Y008764D01*
X013380Y008680D02*
X013070Y008680D01*
X013070Y008509D01*
X013081Y008468D01*
X013102Y008432D01*
X013132Y008402D01*
X013168Y008381D01*
X013209Y008370D01*
X013380Y008370D01*
X013380Y008680D01*
X013380Y008605D02*
X013380Y008605D01*
X013380Y008447D02*
X013380Y008447D01*
X013667Y008447D02*
X013687Y008447D01*
X013740Y008288D02*
X013099Y008288D01*
X013093Y008447D02*
X012940Y008447D01*
X013070Y008605D02*
X012782Y008605D01*
X012623Y008764D02*
X013070Y008764D01*
X013098Y008922D02*
X012465Y008922D01*
X012118Y008930D02*
X012118Y010118D01*
X012680Y010680D01*
X013140Y010666D02*
X013220Y010666D01*
X013220Y010824D02*
X013140Y010824D01*
X013028Y010983D02*
X013332Y010983D01*
X013220Y010507D02*
X013140Y010507D01*
X012999Y010349D02*
X013361Y010349D01*
X013381Y010032D02*
X012979Y010032D01*
X013138Y009873D02*
X013222Y009873D01*
X013220Y009715D02*
X013140Y009715D01*
X013140Y009556D02*
X013220Y009556D01*
X013312Y009398D02*
X013048Y009398D01*
X012890Y009239D02*
X013470Y009239D01*
X012381Y010032D02*
X012371Y010032D01*
X012118Y008930D02*
X013318Y007730D01*
X013380Y007730D01*
X013380Y007680D01*
X013380Y007193D01*
X013615Y007971D02*
X013740Y007971D01*
X013740Y008130D02*
X013257Y008130D01*
X011708Y007813D02*
X000960Y007813D01*
X000960Y007971D02*
X011550Y007971D01*
X011391Y008130D02*
X000960Y008130D01*
X000960Y008288D02*
X002563Y008288D01*
X002560Y008289D02*
X002640Y008276D01*
X002642Y008276D01*
X002642Y008752D01*
X002718Y008752D01*
X002718Y008276D01*
X002720Y008276D01*
X002800Y008289D01*
X002877Y008314D01*
X002950Y008350D01*
X003015Y008398D01*
X003072Y008455D01*
X003120Y008521D01*
X003157Y008593D01*
X003182Y008670D01*
X003194Y008750D01*
X003194Y008752D01*
X002718Y008752D01*
X002718Y008828D01*
X003194Y008828D01*
X003194Y008831D01*
X003182Y008911D01*
X003157Y008988D01*
X003120Y009060D01*
X003072Y009125D01*
X003015Y009183D01*
X002950Y009230D01*
X002877Y009267D01*
X002800Y009292D01*
X002720Y009305D01*
X002718Y009305D01*
X002718Y008828D01*
X002642Y008828D01*
X002642Y008752D01*
X002166Y008752D01*
X002166Y008750D01*
X002178Y008670D01*
X002203Y008593D01*
X002240Y008521D01*
X002288Y008455D01*
X002345Y008398D01*
X002410Y008350D01*
X002483Y008314D01*
X002560Y008289D01*
X002642Y008288D02*
X002718Y008288D01*
X002797Y008288D02*
X011233Y008288D01*
X011074Y008447D02*
X003064Y008447D01*
X003161Y008605D02*
X010951Y008605D01*
X010940Y008764D02*
X002718Y008764D01*
X002642Y008764D02*
X000960Y008764D01*
X000960Y008922D02*
X002182Y008922D01*
X002178Y008911D02*
X002166Y008831D01*
X002166Y008828D01*
X002642Y008828D01*
X002642Y009305D01*
X002640Y009305D01*
X002560Y009292D01*
X002483Y009267D01*
X002410Y009230D01*
X002345Y009183D01*
X002288Y009125D01*
X002240Y009060D01*
X002203Y008988D01*
X002178Y008911D01*
X002255Y009081D02*
X000960Y009081D01*
X000960Y009239D02*
X002428Y009239D01*
X002642Y009239D02*
X002718Y009239D01*
X002718Y009081D02*
X002642Y009081D01*
X002642Y008922D02*
X002718Y008922D01*
X002718Y008605D02*
X002642Y008605D01*
X002642Y008447D02*
X002718Y008447D01*
X002296Y008447D02*
X000960Y008447D01*
X000960Y008605D02*
X002199Y008605D01*
X003105Y009081D02*
X010940Y009081D01*
X010940Y009239D02*
X002932Y009239D01*
X003178Y008922D02*
X010940Y008922D01*
X010940Y009398D02*
X000960Y009398D01*
X000960Y009556D02*
X010940Y009556D01*
X010940Y009715D02*
X002929Y009715D01*
X003112Y009873D02*
X010940Y009873D01*
X010940Y010032D02*
X003180Y010032D01*
X003194Y010190D02*
X010940Y010190D01*
X007568Y011930D02*
X007555Y011943D01*
X007275Y012251D02*
X006726Y012251D01*
X006726Y012409D02*
X007275Y012409D01*
X007275Y012568D02*
X006725Y012568D01*
X005816Y012568D02*
X005531Y012568D01*
X005545Y012409D02*
X005815Y012409D01*
X005815Y012251D02*
X005545Y012251D01*
X005545Y012092D02*
X005815Y012092D01*
X005815Y011934D02*
X005157Y011934D01*
X005157Y011775D02*
X005022Y011775D01*
X005022Y011617D02*
X005157Y011617D01*
X005157Y011458D02*
X005022Y011458D01*
X005022Y011300D02*
X005157Y011300D01*
X005534Y011300D02*
X005815Y011300D01*
X005815Y011458D02*
X005545Y011458D01*
X005545Y011617D02*
X005815Y011617D01*
X005815Y011775D02*
X005545Y011775D01*
X005991Y011141D02*
X002997Y011141D01*
X003132Y011300D02*
X004645Y011300D01*
X004634Y011458D02*
X003187Y011458D01*
X003190Y011617D02*
X004634Y011617D01*
X004634Y012251D02*
X000960Y012251D01*
X000960Y012409D02*
X004634Y012409D01*
X004648Y012568D02*
X003051Y012568D01*
X002309Y012568D02*
X000960Y012568D01*
X000960Y012726D02*
X002205Y012726D01*
X002166Y012885D02*
X000960Y012885D01*
X000960Y013043D02*
X002173Y013043D01*
X002238Y013202D02*
X000960Y013202D01*
X000960Y013360D02*
X002389Y013360D01*
X002560Y013800D02*
X002483Y013825D01*
X002410Y013862D01*
X002345Y013910D01*
X002288Y013967D01*
X002240Y014032D01*
X002203Y014105D01*
X002178Y014182D01*
X002166Y014262D01*
X002166Y014264D01*
X002642Y014264D01*
X002718Y014264D01*
X002718Y013788D01*
X002720Y013788D01*
X002800Y013800D01*
X002877Y013825D01*
X002950Y013862D01*
X003015Y013910D01*
X003072Y013967D01*
X003120Y014032D01*
X003157Y014105D01*
X003182Y014182D01*
X003194Y014262D01*
X003194Y014264D01*
X002718Y014264D01*
X002718Y014340D01*
X003194Y014340D01*
X003194Y014343D01*
X003182Y014422D01*
X003157Y014499D01*
X003120Y014572D01*
X003072Y014637D01*
X003015Y014694D01*
X002950Y014742D01*
X002877Y014779D01*
X002800Y014804D01*
X002720Y014816D01*
X002718Y014816D01*
X002718Y014340D01*
X002642Y014340D01*
X002642Y014264D01*
X002642Y013788D01*
X002640Y013788D01*
X002560Y013800D01*
X002642Y013836D02*
X002718Y013836D01*
X002718Y013994D02*
X002642Y013994D01*
X002642Y014153D02*
X002718Y014153D01*
X002718Y014311D02*
X003963Y014311D01*
X003963Y014153D02*
X003172Y014153D01*
X003092Y013994D02*
X003963Y013994D01*
X003963Y013836D02*
X002897Y013836D01*
X002463Y013836D02*
X000960Y013836D01*
X000960Y013994D02*
X002268Y013994D01*
X002188Y014153D02*
X000960Y014153D01*
X000960Y014311D02*
X002642Y014311D01*
X002642Y014340D02*
X002166Y014340D01*
X002166Y014343D01*
X002178Y014422D01*
X002203Y014499D01*
X002240Y014572D01*
X002288Y014637D01*
X002345Y014694D01*
X002410Y014742D01*
X002483Y014779D01*
X002560Y014804D01*
X002640Y014816D01*
X002642Y014816D01*
X002642Y014340D01*
X002642Y014470D02*
X002718Y014470D01*
X002718Y014628D02*
X002642Y014628D01*
X002642Y014787D02*
X002718Y014787D01*
X002853Y014787D02*
X003963Y014787D01*
X003963Y014945D02*
X000960Y014945D01*
X000960Y014787D02*
X002507Y014787D01*
X002281Y014628D02*
X000960Y014628D01*
X000960Y014470D02*
X002194Y014470D01*
X003079Y014628D02*
X003963Y014628D01*
X003963Y014470D02*
X003166Y014470D01*
X003963Y015104D02*
X000960Y015104D01*
X000960Y015262D02*
X002166Y015262D01*
X002166Y015259D02*
X002259Y015166D01*
X003101Y015166D01*
X003194Y015259D01*
X003194Y016101D01*
X003101Y016194D01*
X002259Y016194D01*
X002166Y016101D01*
X002166Y015259D01*
X002166Y015421D02*
X000960Y015421D01*
X000960Y015579D02*
X002166Y015579D01*
X002166Y015738D02*
X000960Y015738D01*
X000960Y015896D02*
X002166Y015896D01*
X002166Y016055D02*
X000960Y016055D01*
X000960Y016213D02*
X004255Y016213D01*
X004413Y016372D02*
X000960Y016372D01*
X000960Y016530D02*
X005046Y016530D01*
X005008Y016689D02*
X000960Y016689D01*
X000960Y016847D02*
X005008Y016847D01*
X005008Y017006D02*
X000960Y017006D01*
X000960Y017164D02*
X005008Y017164D01*
X005046Y017323D02*
X000960Y017323D01*
X000960Y017481D02*
X005061Y017481D01*
X005181Y017640D02*
X000960Y017640D01*
X000960Y017798D02*
X005340Y017798D01*
X005553Y017957D02*
X004873Y017957D01*
X004298Y018490D02*
X003951Y018490D01*
X003868Y018406D01*
X003847Y018426D01*
X003847Y018746D01*
X003873Y018772D01*
X003889Y018744D01*
X003919Y018714D01*
X003956Y018693D01*
X003996Y018683D01*
X004167Y018683D01*
X004167Y018992D01*
X004168Y018992D01*
X004168Y018682D01*
X004298Y018683D01*
X004298Y018490D01*
X004298Y018591D02*
X003847Y018591D01*
X003850Y018749D02*
X003887Y018749D01*
X004167Y018749D02*
X004168Y018749D01*
X004167Y018908D02*
X004168Y018908D01*
X004168Y018993D02*
X004477Y018993D01*
X004477Y019164D01*
X004467Y019204D01*
X004446Y019241D01*
X004416Y019271D01*
X004379Y019292D01*
X004339Y019302D01*
X004168Y019302D01*
X004168Y018993D01*
X004167Y019066D02*
X004168Y019066D01*
X004167Y019225D02*
X004168Y019225D01*
X004455Y019225D02*
X004672Y019225D01*
X004672Y019383D02*
X003103Y019383D01*
X003110Y019365D02*
X002968Y019707D01*
X002707Y019968D01*
X002365Y020110D01*
X001995Y020110D01*
X001653Y019968D01*
X001392Y019707D01*
X001250Y019365D01*
X001250Y018995D01*
X001392Y018653D01*
X001653Y018392D01*
X001995Y018250D01*
X002365Y018250D01*
X002707Y018392D01*
X002968Y018653D01*
X003110Y018995D01*
X003110Y019365D01*
X003110Y019225D02*
X003273Y019225D01*
X003258Y019066D02*
X003110Y019066D01*
X003074Y018908D02*
X003258Y018908D01*
X003285Y018749D02*
X003008Y018749D01*
X002906Y018591D02*
X003288Y018591D01*
X003288Y018432D02*
X002747Y018432D01*
X002422Y018274D02*
X003258Y018274D01*
X003258Y018115D02*
X000960Y018115D01*
X000960Y017957D02*
X003265Y017957D01*
X003847Y018432D02*
X003893Y018432D01*
X004477Y019066D02*
X004560Y019066D01*
X004672Y019542D02*
X003037Y019542D01*
X002971Y019700D02*
X004732Y019700D01*
X003880Y019225D02*
X003862Y019225D01*
X002817Y019859D02*
X028543Y019859D01*
X028653Y019968D02*
X028392Y019707D01*
X028250Y019365D01*
X028250Y018995D01*
X028392Y018653D01*
X028653Y018392D01*
X028995Y018250D01*
X029365Y018250D01*
X029707Y018392D01*
X029968Y018653D01*
X030110Y018995D01*
X030110Y019365D01*
X029968Y019707D01*
X029707Y019968D01*
X029365Y020110D01*
X028995Y020110D01*
X028653Y019968D01*
X028771Y020017D02*
X002589Y020017D01*
X001771Y020017D02*
X001306Y020017D01*
X001175Y019859D02*
X001543Y019859D01*
X001389Y019700D02*
X001084Y019700D01*
X001025Y019542D02*
X001323Y019542D01*
X001257Y019383D02*
X000982Y019383D01*
X000963Y019225D02*
X001250Y019225D01*
X001250Y019066D02*
X000960Y019066D01*
X000960Y018908D02*
X001286Y018908D01*
X001352Y018749D02*
X000960Y018749D01*
X000960Y018591D02*
X001454Y018591D01*
X001613Y018432D02*
X000960Y018432D01*
X000960Y018274D02*
X001938Y018274D01*
X001485Y020176D02*
X029875Y020176D01*
X030054Y020017D02*
X029589Y020017D01*
X029817Y019859D02*
X030185Y019859D01*
X030276Y019700D02*
X029971Y019700D01*
X030037Y019542D02*
X030335Y019542D01*
X030378Y019383D02*
X030103Y019383D01*
X030110Y019225D02*
X030397Y019225D01*
X030400Y019066D02*
X030110Y019066D01*
X030074Y018908D02*
X030400Y018908D01*
X030400Y018749D02*
X030008Y018749D01*
X029906Y018591D02*
X030400Y018591D01*
X030400Y018432D02*
X029747Y018432D01*
X029422Y018274D02*
X030400Y018274D01*
X028938Y018274D02*
X025726Y018274D01*
X025726Y018548D02*
X025726Y018895D01*
X025715Y018935D01*
X025694Y018972D01*
X025664Y019002D01*
X025628Y019023D01*
X025587Y019034D01*
X025338Y019034D01*
X025338Y018548D01*
X025203Y018548D01*
X025203Y019034D01*
X024954Y019034D01*
X024914Y019023D01*
X024877Y019002D01*
X024847Y018972D01*
X024826Y018935D01*
X024815Y018895D01*
X024815Y018548D01*
X025203Y018548D01*
X025203Y018412D01*
X025338Y018412D01*
X025338Y018548D01*
X025726Y018548D01*
X025726Y018591D02*
X028454Y018591D01*
X028352Y018749D02*
X025726Y018749D01*
X025722Y018908D02*
X028286Y018908D01*
X028250Y019066D02*
X011328Y019066D01*
X011328Y018908D02*
X023634Y018908D01*
X022796Y018749D02*
X011328Y018749D01*
X011328Y018591D02*
X011933Y018591D01*
X011933Y018432D02*
X011328Y018432D01*
X011328Y018274D02*
X011933Y018274D01*
X011933Y018115D02*
X011328Y018115D01*
X011328Y017957D02*
X011933Y017957D01*
X011933Y017798D02*
X011328Y017798D01*
X011328Y017640D02*
X011933Y017640D01*
X011933Y017481D02*
X011328Y017481D01*
X011328Y017323D02*
X011933Y017323D01*
X011933Y017164D02*
X011328Y017164D01*
X011328Y017006D02*
X011933Y017006D01*
X011933Y016847D02*
X011328Y016847D01*
X011328Y016689D02*
X011973Y016689D01*
X013277Y017006D02*
X014922Y017006D01*
X015081Y017164D02*
X013277Y017164D01*
X013277Y017323D02*
X015083Y017323D01*
X015083Y017481D02*
X013877Y017481D01*
X014036Y017640D02*
X015083Y017640D01*
X015083Y017798D02*
X014194Y017798D01*
X013719Y018115D02*
X013277Y018115D01*
X013277Y018274D02*
X013878Y018274D01*
X014055Y018432D02*
X013277Y018432D01*
X013277Y018591D02*
X015083Y018591D01*
X015083Y018432D02*
X014907Y018432D01*
X015008Y018274D02*
X015083Y018274D01*
X015083Y018115D02*
X015018Y018115D01*
X015083Y017957D02*
X014934Y017957D01*
X014680Y018181D02*
X014679Y018181D01*
X016427Y018591D02*
X022638Y018591D01*
X024545Y018591D02*
X024815Y018591D01*
X024815Y018749D02*
X024545Y018749D01*
X024545Y018908D02*
X024819Y018908D01*
X025203Y018908D02*
X025338Y018908D01*
X025338Y018749D02*
X025203Y018749D01*
X025203Y018591D02*
X025338Y018591D01*
X025338Y018432D02*
X028613Y018432D01*
X027742Y018040D02*
X027742Y017730D01*
X027742Y017730D01*
X027433Y017730D01*
X027433Y017901D01*
X027443Y017942D01*
X027464Y017978D01*
X027494Y018008D01*
X027531Y018029D01*
X027571Y018040D01*
X027742Y018040D01*
X027742Y017957D02*
X027743Y017957D01*
X027742Y017798D02*
X027743Y017798D01*
X027433Y017798D02*
X027240Y017798D01*
X027240Y017640D02*
X027432Y017640D01*
X027465Y017481D02*
X027207Y017481D01*
X026930Y017798D02*
X026930Y017798D01*
X026930Y017957D02*
X026930Y017957D01*
X027221Y017957D02*
X027452Y017957D01*
X026005Y017481D02*
X025835Y017481D01*
X025630Y017481D02*
X025630Y017481D01*
X025630Y017323D02*
X025630Y017323D01*
X025630Y017180D02*
X025320Y017180D01*
X025320Y017009D01*
X025331Y016968D01*
X025352Y016932D01*
X025382Y016902D01*
X025418Y016881D01*
X025459Y016870D01*
X025630Y016870D01*
X025630Y017180D01*
X025630Y017164D02*
X025630Y017164D01*
X025630Y017006D02*
X025630Y017006D01*
X025409Y016847D02*
X025950Y016847D01*
X025950Y016689D02*
X025460Y016689D01*
X025460Y016530D02*
X025950Y016530D01*
X025950Y016372D02*
X025460Y016372D01*
X025460Y016213D02*
X025950Y016213D01*
X025950Y016055D02*
X025756Y016055D01*
X025888Y015896D02*
X025950Y015896D01*
X025940Y015738D02*
X025950Y015738D01*
X025936Y015579D02*
X025950Y015579D01*
X025950Y015421D02*
X025870Y015421D01*
X025950Y015262D02*
X025673Y015262D01*
X025660Y015104D02*
X025950Y015104D01*
X025848Y013994D02*
X025817Y013994D01*
X024900Y016213D02*
X024490Y016213D01*
X024490Y016372D02*
X024900Y016372D01*
X024900Y016530D02*
X024490Y016530D01*
X024415Y016689D02*
X024775Y016689D01*
X025250Y017006D02*
X025321Y017006D01*
X025339Y016917D02*
X025339Y016917D01*
X025320Y017164D02*
X025092Y017164D01*
X025203Y017926D02*
X024954Y017926D01*
X024914Y017937D01*
X024877Y017958D01*
X024847Y017988D01*
X024826Y018025D01*
X024815Y018065D01*
X024815Y018412D01*
X025203Y018412D01*
X025203Y017926D01*
X025203Y017957D02*
X025338Y017957D01*
X025338Y018115D02*
X025203Y018115D01*
X025203Y018274D02*
X025338Y018274D01*
X025203Y018432D02*
X024545Y018432D01*
X024545Y018274D02*
X024815Y018274D01*
X024815Y018115D02*
X024545Y018115D01*
X024481Y017957D02*
X024880Y017957D01*
X023870Y017164D02*
X016427Y017164D01*
X016427Y017006D02*
X023870Y017006D01*
X023870Y016847D02*
X016427Y016847D01*
X016387Y016689D02*
X023945Y016689D01*
X021482Y015896D02*
X020878Y015896D01*
X021071Y015738D02*
X021289Y015738D01*
X021223Y015579D02*
X021137Y015579D01*
X021140Y015421D02*
X021220Y015421D01*
X021220Y015262D02*
X021140Y015262D01*
X021140Y015104D02*
X021220Y015104D01*
X021220Y014945D02*
X021140Y014945D01*
X021139Y014787D02*
X021221Y014787D01*
X021286Y014628D02*
X021074Y014628D01*
X020891Y014470D02*
X021469Y014470D01*
X021307Y013994D02*
X022098Y013994D01*
X022257Y014153D02*
X020172Y014153D01*
X020330Y013994D02*
X021053Y013994D01*
X020878Y013836D02*
X020370Y013836D01*
X020370Y013677D02*
X020841Y013677D01*
X020880Y013519D02*
X020370Y013519D01*
X019383Y012885D02*
X018530Y012885D01*
X018269Y011934D02*
X019850Y011934D01*
X019890Y011775D02*
X018258Y011775D01*
X018158Y011617D02*
X019890Y011617D01*
X020616Y011458D02*
X023369Y011458D01*
X021314Y010507D02*
X020526Y010507D01*
X020574Y009873D02*
X021294Y009873D01*
X018390Y011458D02*
X018282Y011458D01*
X017993Y011230D02*
X017993Y011230D01*
X020427Y012409D02*
X020433Y012409D01*
X017220Y015421D02*
X016400Y015421D01*
X016505Y015579D02*
X017223Y015579D01*
X017289Y015738D02*
X016519Y015738D01*
X016443Y015896D02*
X017482Y015896D01*
X011328Y019225D02*
X028250Y019225D01*
X028257Y019383D02*
X011328Y019383D01*
X011328Y019542D02*
X028323Y019542D01*
X028389Y019700D02*
X011328Y019700D01*
X009630Y019700D02*
X008730Y019700D01*
X008730Y019542D02*
X009630Y019542D01*
X006034Y017323D02*
X006034Y017323D01*
X006034Y017164D02*
X006034Y017164D01*
X006034Y017006D02*
X006034Y017006D01*
X006034Y016930D02*
X006034Y016930D01*
X006034Y016847D02*
X006034Y016847D01*
X006034Y016689D02*
X006034Y016689D01*
X005717Y016689D02*
X005643Y016689D01*
X005643Y016847D02*
X005717Y016847D01*
X005717Y017006D02*
X005643Y017006D01*
X005643Y017164D02*
X005717Y017164D01*
X005656Y017323D02*
X005842Y017323D01*
X005606Y016530D02*
X007032Y016530D01*
X005993Y016168D02*
X005980Y016180D01*
X005713Y015896D02*
X005622Y015896D01*
X005560Y015738D02*
X005713Y015738D01*
X005380Y015738D02*
X005380Y015738D01*
X005380Y015740D02*
X005209Y015740D01*
X005168Y015729D01*
X005132Y015708D01*
X005102Y015678D01*
X005081Y015642D01*
X005070Y015601D01*
X005070Y015430D01*
X005380Y015430D01*
X005380Y015430D01*
X005380Y015430D01*
X005380Y015740D01*
X005380Y015579D02*
X005380Y015579D01*
X005380Y015430D02*
X005070Y015430D01*
X005070Y015259D01*
X005081Y015218D01*
X005102Y015182D01*
X005132Y015152D01*
X005168Y015131D01*
X005209Y015120D01*
X005380Y015120D01*
X005380Y015430D01*
X005380Y015421D02*
X005380Y015421D01*
X005380Y015262D02*
X005380Y015262D01*
X005380Y014990D02*
X005209Y014990D01*
X005168Y014979D01*
X005132Y014958D01*
X005102Y014928D01*
X005081Y014892D01*
X005070Y014851D01*
X005070Y014680D01*
X005380Y014680D01*
X005380Y014680D01*
X005380Y014680D01*
X005380Y014990D01*
X005380Y014945D02*
X005380Y014945D01*
X005380Y014787D02*
X005380Y014787D01*
X005380Y014680D02*
X005070Y014680D01*
X005070Y014509D01*
X005081Y014468D01*
X005102Y014432D01*
X005132Y014402D01*
X005168Y014381D01*
X005209Y014370D01*
X005380Y014370D01*
X005380Y014680D01*
X005380Y014628D02*
X005380Y014628D01*
X005380Y014470D02*
X005380Y014470D01*
X005081Y014470D02*
X004522Y014470D01*
X004522Y014628D02*
X005070Y014628D01*
X005070Y014787D02*
X004522Y014787D01*
X004522Y014945D02*
X005119Y014945D01*
X005641Y014945D02*
X005719Y014945D01*
X006423Y015104D02*
X004522Y015104D01*
X004522Y015262D02*
X005070Y015262D01*
X005070Y015421D02*
X004522Y015421D01*
X004522Y015579D02*
X005070Y015579D01*
X005200Y015738D02*
X004571Y015738D01*
X004730Y015896D02*
X005138Y015896D01*
X005980Y015430D02*
X005993Y015443D01*
X006522Y014945D02*
X006581Y014945D01*
X006719Y014787D02*
X006740Y014787D01*
X006403Y014311D02*
X004522Y014311D01*
X004522Y014153D02*
X004673Y014153D01*
X004591Y013994D02*
X004522Y013994D01*
X004522Y013836D02*
X004602Y013836D01*
X004522Y013677D02*
X004704Y013677D01*
X004930Y013930D02*
X005380Y013930D01*
X005653Y013677D02*
X005707Y013677D01*
X003963Y013677D02*
X000960Y013677D01*
X000960Y013519D02*
X003963Y013519D01*
X003902Y013360D02*
X002971Y013360D01*
X002718Y011934D02*
X002642Y011934D01*
X002642Y011775D02*
X002718Y011775D01*
X002718Y011617D02*
X002642Y011617D01*
X002642Y011458D02*
X002718Y011458D01*
X002718Y011300D02*
X002642Y011300D01*
X002642Y011141D02*
X002718Y011141D01*
X002291Y010507D02*
X000960Y010507D01*
X000960Y010349D02*
X002198Y010349D01*
X002166Y010190D02*
X000960Y010190D01*
X000960Y010032D02*
X002180Y010032D01*
X002248Y009873D02*
X000960Y009873D01*
X000960Y009715D02*
X002431Y009715D01*
X006271Y010684D02*
X006274Y010680D01*
X006815Y007496D02*
X006990Y007496D01*
X006990Y006862D02*
X006812Y006862D01*
X006766Y006545D02*
X007720Y006545D01*
X007720Y006703D02*
X005071Y006703D01*
X004940Y006545D02*
X005594Y006545D01*
X005467Y006386D02*
X004940Y006386D01*
X004940Y006228D02*
X005420Y006228D01*
X005428Y006069D02*
X004940Y006069D01*
X004940Y005911D02*
X005499Y005911D01*
X005711Y005752D02*
X004940Y005752D01*
X005229Y006862D02*
X005548Y006862D01*
X006625Y005118D02*
X007345Y005118D01*
X007330Y004960D02*
X006851Y004960D01*
X007196Y004816D02*
X007196Y004816D01*
X007211Y004801D02*
X007330Y004801D01*
X007330Y004930D02*
X007785Y004930D01*
X007785Y004930D01*
X007330Y004930D01*
X007785Y004960D02*
X007785Y004960D01*
X007785Y005118D02*
X007785Y005118D01*
X007243Y004430D02*
X006993Y004680D01*
X007243Y004430D02*
X007785Y004430D01*
X007785Y003930D02*
X007243Y003930D01*
X006993Y003680D01*
X006180Y003680D01*
X006802Y004009D02*
X006982Y004009D01*
X007766Y003058D02*
X002492Y003058D01*
X002776Y002899D02*
X007665Y002899D01*
X007654Y002741D02*
X002935Y002741D01*
X003020Y002582D02*
X007736Y002582D01*
X008871Y002582D02*
X008875Y002582D01*
X009167Y002582D02*
X009168Y002582D01*
X009167Y002741D02*
X009168Y002741D01*
X005535Y003375D02*
X000960Y003375D01*
X000960Y003533D02*
X005443Y003533D01*
X005420Y003692D02*
X000960Y003692D01*
X000960Y003850D02*
X005453Y003850D01*
X003963Y015262D02*
X003194Y015262D01*
X003194Y015421D02*
X003963Y015421D01*
X003963Y015579D02*
X003194Y015579D01*
X003194Y015738D02*
X003963Y015738D01*
X003977Y015896D02*
X003194Y015896D01*
X003194Y016055D02*
X004096Y016055D01*
X001814Y020334D02*
X029546Y020334D01*
D38*
X022180Y017680D03*
X026743Y014680D03*
X025180Y012930D03*
X023680Y013680D03*
X021180Y013680D03*
X019555Y013180D03*
X017930Y011868D03*
X016930Y010430D03*
X016118Y008680D03*
X014990Y008370D03*
X016180Y007055D03*
X016523Y006743D03*
X015805Y006743D03*
X017305Y006993D03*
X018955Y005393D03*
X016993Y005305D03*
X016368Y005118D03*
X015743Y005180D03*
X014180Y005180D03*
X012930Y004430D03*
X012930Y003430D03*
X013180Y002680D03*
X010930Y002805D03*
X007993Y002805D03*
X013380Y007193D03*
X017618Y003493D03*
X019055Y003618D03*
X024180Y004680D03*
X026180Y004680D03*
X026180Y006680D03*
X020430Y010180D03*
X016180Y015680D03*
X015180Y016180D03*
X014680Y015680D03*
X014679Y018181D03*
X009664Y015164D03*
X007555Y013055D03*
X009976Y012834D03*
X004930Y013930D03*
X004618Y018180D03*
D39*
X004168Y018180D01*
X003568Y018180D02*
X003568Y018993D01*
X005326Y017388D02*
X005618Y017680D01*
X007881Y017680D01*
X005993Y016168D02*
X005993Y015443D01*
X005980Y015430D02*
X006493Y015430D01*
X007113Y014810D01*
X006615Y014495D02*
X006430Y014680D01*
X005980Y014680D01*
X006680Y014180D02*
X006430Y013930D01*
X005980Y013930D01*
X006430Y013180D02*
X007115Y013865D01*
X007432Y013428D02*
X007555Y013305D01*
X007555Y013055D01*
X007555Y011943D01*
X007568Y011930D02*
X006271Y011930D01*
X006271Y010684D01*
X008168Y011118D02*
X008168Y011930D01*
X008918Y012680D02*
X008928Y012941D01*
X009223Y013255D02*
X009555Y013255D01*
X009976Y012834D01*
X010680Y012834D01*
X009555Y013855D02*
X009545Y013865D01*
X009180Y014180D02*
X009526Y014526D01*
X010680Y014526D01*
X010164Y015164D02*
X010479Y015479D01*
X010479Y017680D01*
X012605Y017680D02*
X013680Y017680D01*
X014181Y018181D01*
X014680Y018181D01*
X015755Y017680D02*
X015743Y017430D01*
X013680Y015368D01*
X013680Y014704D01*
X013680Y013930D01*
X013430Y013680D01*
X012493Y013680D01*
X012243Y013430D01*
X012243Y012834D01*
X012243Y012055D01*
X012843Y012055D02*
X013305Y012055D01*
X013680Y012430D01*
X015180Y012656D02*
X015656Y012656D01*
X015930Y012930D01*
X015930Y013380D01*
X016618Y013380D01*
X018430Y013180D02*
X019555Y013180D01*
X018430Y013180D02*
X015930Y010680D01*
X014680Y010680D01*
X017993Y010630D02*
X017993Y009980D01*
X018680Y009980D02*
X018680Y010630D01*
X019743Y008880D02*
X019743Y007967D01*
X019743Y006393D02*
X019743Y005480D01*
X027680Y011680D02*
X028180Y011180D01*
X028755Y011755D01*
X028755Y012805D01*
X029355Y012805D02*
X029355Y010355D01*
X028680Y009680D01*
X027680Y011680D02*
X025180Y011680D01*
X025180Y012930D02*
X024430Y012930D01*
X023680Y013680D01*
X022680Y014180D02*
X022680Y015180D01*
X022680Y014180D02*
X022180Y013680D01*
X021180Y013680D01*
X020730Y012180D02*
X021680Y012180D01*
X025180Y013680D02*
X025930Y013680D01*
X026230Y013980D01*
X026230Y017180D01*
X026930Y017130D02*
X027743Y017130D01*
X027743Y015680D01*
X026743Y014680D01*
X025180Y015680D02*
X025180Y016680D01*
X024880Y016980D01*
X024180Y016980D01*
X015180Y015180D02*
X015180Y014704D01*
X015180Y015180D02*
X014680Y015680D01*
X014180Y015180D01*
X014180Y014704D01*
X010164Y015164D02*
X009664Y015164D01*
X006430Y013180D02*
X005980Y013180D01*
X004243Y013305D02*
X003862Y012924D01*
X002680Y012924D01*
X004243Y013305D02*
X004243Y015805D01*
X004618Y016180D01*
X005380Y016180D01*
X005326Y016234D01*
X005326Y016930D01*
X005326Y017388D01*
D40*
X007113Y014810D02*
X007432Y014810D01*
X007432Y014495D02*
X006615Y014495D01*
X006680Y014180D02*
X007432Y014180D01*
X007432Y013865D02*
X007115Y013865D01*
X007432Y013550D02*
X007432Y013428D01*
X008928Y013550D02*
X008928Y012941D01*
X009223Y013255D02*
X008928Y013550D01*
X008928Y013865D02*
X009545Y013865D01*
X009180Y014180D02*
X008928Y014180D01*
X007980Y007180D02*
X007980Y006180D01*
X007380Y006180D02*
X006180Y006180D01*
X006180Y007180D02*
X005180Y007180D01*
X004680Y006680D01*
X004680Y005180D01*
X005180Y004680D01*
X006180Y004680D01*
X006180Y007180D02*
X007380Y007180D01*
X009805Y002805D02*
X009880Y002805D01*
X010480Y002805D02*
X010930Y002805D01*
X013180Y002680D02*
X013180Y002243D01*
X013508Y001915D01*
X014740Y001915D01*
X014743Y001918D01*
X015680Y001918D01*
X015680Y002680D01*
X015680Y002930D01*
X016837Y004087D01*
X016837Y004490D01*
X014990Y006337D02*
X014323Y006337D01*
X013980Y006680D01*
X016280Y002680D02*
X017430Y002680D01*
D41*
X022180Y017680D02*
X022980Y018480D01*
X024089Y018480D01*
X005127Y019180D02*
X004618Y018671D01*
X004618Y018180D01*
D42*
X016368Y005118D02*
X016555Y004930D01*
X017618Y004930D01*
X017782Y004765D01*
X017782Y004490D01*
M02*
