%
M48
M72
T01C0.0157
T02C0.0360
T03C0.0400
T04C0.0472
T05C0.1300
%
T01
X7993Y2805
X10930Y2805
X12930Y3430
X13180Y2680
X12930Y4430
X14180Y5180
X15743Y5180
X16368Y5118
X16993Y5305
X18955Y5393
X17305Y6993
X16523Y6743
X16180Y7055
X15805Y6743
X14990Y8370
X16118Y8680
X16930Y10430
X17930Y11868
X19555Y13180
X21180Y13680
X23680Y13680
X25180Y12930
X26743Y14680
X22180Y17680
X16180Y15680
X15180Y16180
X14680Y15680
X14679Y18181
X9664Y15164
X7555Y13055
X9976Y12834
X4930Y13930
X4618Y18180
X20430Y10180
X26180Y6680
X26180Y4680
X24180Y4680
X19055Y3618
X17618Y3493
X13380Y7193
T02
X21680Y8180
X22680Y8180
X23680Y8180
X23680Y10180
X22680Y10180
X21680Y10180
X21680Y12180
X22680Y12180
X23680Y12180
X27680Y10680
X28680Y10680
X28680Y9680
X27680Y9680
X27680Y8680
X28680Y8680
X28680Y7680
X27680Y7680
X27680Y6680
X28680Y6680
X28680Y5680
X27680Y5680
X27680Y4680
X28680Y4680
X28680Y3680
X27680Y3680
X23680Y6180
X22680Y6180
X21680Y6180
T03
X25180Y7680
X25180Y8680
X25180Y9680
X25180Y10680
X25180Y11680
X25180Y13680
X25180Y14680
X25180Y15680
X22680Y15180
X21680Y15180
X20680Y15180
X19680Y15180
X18680Y15180
X17680Y15180
X14680Y10680
X13680Y10680
X12680Y10680
X12680Y9680
X13680Y9680
X14680Y9680
X16680Y9680
X17430Y2680
X18430Y2680
X19430Y2680
X20430Y2680
X21430Y2680
X22430Y2680
X6180Y3680
X6180Y4680
X6180Y6180
X6180Y7180
T04
X2680Y8790
X2680Y10168
X2680Y11546
X2680Y12924
X2680Y14302
X2680Y15680
T05
X2180Y2180
X25680Y2180
X29180Y19180
X2180Y19180
M30
